<ttFont>
    <TTGlyph name="A" xMin="39" yMin="-38" xMax="1613" yMax="1442">
      <contour>
        <pt x="1076" y="285" on="1"/>
        <pt x="1071" y="266" on="0"/>
        <pt x="1060" y="217" on="0"/>
        <pt x="1060" y="195" on="1"/>
        <pt x="1060" y="175" on="0"/>
        <pt x="1072" y="147" on="0"/>
        <pt x="1092" y="147" on="1"/>
        <pt x="1119" y="147" on="0"/>
        <pt x="1194" y="186" on="0"/>
        <pt x="1280" y="251" on="0"/>
        <pt x="1372" y="336" on="0"/>
        <pt x="1462" y="427" on="0"/>
        <pt x="1544" y="519" on="0"/>
        <pt x="1576" y="559" on="1"/>
        <pt x="1613" y="426" on="1"/>
        <pt x="1547" y="338" on="0"/>
        <pt x="1407" y="176" on="0"/>
        <pt x="1262" y="52" on="0"/>
        <pt x="1116" y="-22" on="0"/>
        <pt x="1044" y="-22" on="1"/>
        <pt x="1002" y="-22" on="0"/>
        <pt x="943" y="5" on="0"/>
        <pt x="907" y="52" on="0"/>
        <pt x="890" y="113" on="0"/>
        <pt x="890" y="147" on="1"/>
        <pt x="890" y="160" on="0"/>
        <pt x="892" y="208" on="0"/>
        <pt x="895" y="259" on="0"/>
        <pt x="898" y="301" on="0"/>
        <pt x="898" y="307" on="1"/>
        <pt x="543" y="285" on="1"/>
        <pt x="378" y="283" on="1"/>
        <pt x="336" y="192" on="0"/>
        <pt x="295" y="122" on="1"/>
        <pt x="277" y="92" on="0"/>
        <pt x="237" y="34" on="0"/>
        <pt x="197" y="-11" on="0"/>
        <pt x="157" y="-38" on="0"/>
        <pt x="138" y="-38" on="1"/>
        <pt x="108" y="-38" on="0"/>
        <pt x="70" y="-20" on="0"/>
        <pt x="48" y="7" on="0"/>
        <pt x="39" y="41" on="0"/>
        <pt x="39" y="56" on="1"/>
        <pt x="39" y="82" on="0"/>
        <pt x="53" y="133" on="0"/>
        <pt x="66" y="156" on="1"/>
        <pt x="198" y="378" on="1"/>
        <pt x="207" y="392" on="0"/>
        <pt x="262" y="498" on="0"/>
        <pt x="349" y="653" on="0"/>
        <pt x="463" y="841" on="0"/>
        <pt x="596" y="1034" on="0"/>
        <pt x="745" y="1216" on="0"/>
        <pt x="902" y="1357" on="0"/>
        <pt x="1062" y="1442" on="0"/>
        <pt x="1141" y="1442" on="1"/>
        <pt x="1215" y="1442" on="0"/>
        <pt x="1358" y="1350" on="0"/>
        <pt x="1423" y="1245" on="1"/>
        <pt x="1430" y="1231" on="0"/>
        <pt x="1430" y="1221" on="1"/>
        <pt x="1430" y="1208" on="0"/>
        <pt x="1416" y="1182" on="0"/>
        <pt x="1393" y="1162" on="0"/>
        <pt x="1365" y="1150" on="0"/>
        <pt x="1350" y="1150" on="1"/>
        <pt x="1332" y="1150" on="0"/>
        <pt x="1285" y="1166" on="0"/>
        <pt x="1264" y="1192" on="1"/>
        <pt x="1233" y="1228" on="0"/>
        <pt x="1166" y="1261" on="0"/>
        <pt x="1133" y="1261" on="1"/>
        <pt x="1086" y="1261" on="0"/>
        <pt x="988" y="1208" on="0"/>
        <pt x="889" y="1117" on="0"/>
        <pt x="791" y="998" on="0"/>
        <pt x="699" y="866" on="0"/>
        <pt x="613" y="728" on="0"/>
        <pt x="537" y="602" on="0"/>
        <pt x="474" y="496" on="0"/>
        <pt x="450" y="460" on="1"/>
        <pt x="633" y="460" on="1"/>
        <pt x="942" y="483" on="1"/>
        <pt x="951" y="503" on="0"/>
        <pt x="981" y="572" on="0"/>
        <pt x="1018" y="658" on="0"/>
        <pt x="1062" y="758" on="0"/>
        <pt x="1107" y="859" on="0"/>
        <pt x="1151" y="958" on="0"/>
        <pt x="1170" y="1000" on="1"/>
        <pt x="1183" y="1038" on="0"/>
        <pt x="1234" y="1070" on="0"/>
        <pt x="1263" y="1070" on="1"/>
        <pt x="1278" y="1070" on="0"/>
        <pt x="1308" y="1061" on="0"/>
        <pt x="1333" y="1042" on="0"/>
        <pt x="1349" y="1013" on="0"/>
        <pt x="1350" y="993" on="1"/>
        <pt x="1350" y="974" on="0"/>
        <pt x="1317" y="882" on="0"/>
        <pt x="1266" y="758" on="0"/>
        <pt x="1203" y="613" on="0"/>
        <pt x="1142" y="468" on="0"/>
        <pt x="1090" y="335" on="0"/>
      </contour>
    </TTGlyph>
    <TTGlyph name="A.alt" xMin="70" yMin="-445" xMax="1373" yMax="702">
      <contour>
        <pt x="501" y="-111" on="1"/>
        <pt x="501" y="-97" on="0"/>
        <pt x="498" y="-83" on="1"/>
        <pt x="374" y="-146" on="0"/>
        <pt x="245" y="-244" on="0"/>
        <pt x="245" y="-267" on="1"/>
        <pt x="245" y="-289" on="0"/>
        <pt x="273" y="-321" on="0"/>
        <pt x="293" y="-321" on="1"/>
        <pt x="320" y="-321" on="0"/>
        <pt x="392" y="-282" on="0"/>
        <pt x="457" y="-220" on="0"/>
        <pt x="501" y="-146" on="0"/>
      </contour>
      <contour>
        <pt x="1373" y="529" on="1"/>
        <pt x="1300" y="457" on="0"/>
        <pt x="1145" y="324" on="0"/>
        <pt x="971" y="197" on="0"/>
        <pt x="773" y="74" on="0"/>
        <pt x="657" y="11" on="1"/>
        <pt x="658" y="3" on="0"/>
        <pt x="658" y="-12" on="0"/>
        <pt x="658" y="-20" on="1"/>
        <pt x="658" y="-93" on="0"/>
        <pt x="617" y="-212" on="0"/>
        <pt x="548" y="-307" on="0"/>
        <pt x="458" y="-377" on="0"/>
        <pt x="361" y="-422" on="0"/>
        <pt x="261" y="-445" on="0"/>
        <pt x="218" y="-445" on="1"/>
        <pt x="154" y="-445" on="0"/>
        <pt x="70" y="-398" on="0"/>
        <pt x="70" y="-352" on="1"/>
        <pt x="70" y="-298" on="0"/>
        <pt x="253" y="-118" on="0"/>
        <pt x="433" y="-6" on="1"/>
        <pt x="423" y="8" on="0"/>
        <pt x="373" y="22" on="0"/>
        <pt x="309" y="29" on="0"/>
        <pt x="240" y="34" on="0"/>
        <pt x="182" y="41" on="0"/>
        <pt x="145" y="54" on="0"/>
        <pt x="145" y="67" on="1"/>
        <pt x="145" y="81" on="0"/>
        <pt x="160" y="121" on="0"/>
        <pt x="186" y="149" on="1"/>
        <pt x="197" y="161" on="0"/>
        <pt x="263" y="216" on="0"/>
        <pt x="346" y="284" on="0"/>
        <pt x="429" y="355" on="0"/>
        <pt x="457" y="382" on="1"/>
        <pt x="631" y="529" on="1"/>
        <pt x="619" y="529" on="0"/>
        <pt x="593" y="531" on="0"/>
        <pt x="554" y="534" on="0"/>
        <pt x="498" y="539" on="0"/>
        <pt x="457" y="541" on="1"/>
        <pt x="428" y="536" on="0"/>
        <pt x="373" y="495" on="0"/>
        <pt x="316" y="432" on="0"/>
        <pt x="254" y="352" on="0"/>
        <pt x="218" y="307" on="1"/>
        <pt x="215" y="303" on="0"/>
        <pt x="210" y="303" on="1"/>
        <pt x="204" y="303" on="0"/>
        <pt x="190" y="317" on="0"/>
        <pt x="179" y="341" on="0"/>
        <pt x="171" y="372" on="0"/>
        <pt x="171" y="389" on="1"/>
        <pt x="171" y="403" on="0"/>
        <pt x="178" y="431" on="0"/>
        <pt x="186" y="444" on="1"/>
        <pt x="235" y="520" on="0"/>
        <pt x="326" y="619" on="0"/>
        <pt x="428" y="678" on="0"/>
        <pt x="553" y="702" on="0"/>
        <pt x="637" y="702" on="1"/>
        <pt x="708" y="702" on="0"/>
        <pt x="813" y="694" on="0"/>
        <pt x="864" y="694" on="1"/>
        <pt x="883" y="688" on="0"/>
        <pt x="892" y="651" on="0"/>
        <pt x="892" y="633" on="1"/>
        <pt x="892" y="618" on="0"/>
        <pt x="891" y="590" on="0"/>
        <pt x="872" y="559" on="0"/>
        <pt x="828" y="523" on="0"/>
        <pt x="786" y="499" on="1"/>
        <pt x="787" y="499" on="1"/>
        <pt x="761" y="475" on="1"/>
        <pt x="762" y="475" on="1"/>
        <pt x="734" y="450" on="0"/>
        <pt x="658" y="393" on="0"/>
        <pt x="603" y="348" on="1"/>
        <pt x="349" y="142" on="1"/>
        <pt x="374" y="142" on="0"/>
        <pt x="433" y="136" on="0"/>
        <pt x="491" y="126" on="0"/>
        <pt x="543" y="110" on="0"/>
        <pt x="561" y="101" on="1"/>
        <pt x="763" y="201" on="0"/>
        <pt x="1120" y="453" on="0"/>
        <pt x="1291" y="606" on="1"/>
        <pt x="1372" y="548" on="1"/>
      </contour>
    </TTGlyph>
    <TTGlyph name="A.alt2" xMin="-10" yMin="-40" xMax="1418" yMax="1385">
      <contour>
        <pt x="913" y="285" on="1"/>
        <pt x="906" y="265" on="0"/>
        <pt x="891" y="211" on="0"/>
        <pt x="891" y="188" on="1"/>
        <pt x="891" y="170" on="0"/>
        <pt x="904" y="147" on="0"/>
        <pt x="921" y="147" on="1"/>
        <pt x="946" y="147" on="0"/>
        <pt x="1017" y="186" on="0"/>
        <pt x="1100" y="251" on="0"/>
        <pt x="1190" y="336" on="0"/>
        <pt x="1277" y="427" on="0"/>
        <pt x="1356" y="519" on="0"/>
        <pt x="1388" y="559" on="1"/>
        <pt x="1418" y="426" on="1"/>
        <pt x="1351" y="338" on="0"/>
        <pt x="1212" y="176" on="0"/>
        <pt x="1071" y="52" on="0"/>
        <pt x="930" y="-22" on="0"/>
        <pt x="863" y="-22" on="1"/>
        <pt x="821" y="-22" on="0"/>
        <pt x="766" y="4" on="0"/>
        <pt x="732" y="48" on="0"/>
        <pt x="718" y="106" on="0"/>
        <pt x="718" y="139" on="1"/>
        <pt x="718" y="170" on="0"/>
        <pt x="719" y="198" on="1"/>
        <pt x="711" y="191" on="0"/>
        <pt x="703" y="183" on="1"/>
        <pt x="673" y="153" on="0"/>
        <pt x="604" y="100" on="1"/>
        <pt x="552" y="60" on="0"/>
        <pt x="443" y="-3" on="0"/>
        <pt x="332" y="-40" on="0"/>
        <pt x="280" y="-40" on="1"/>
        <pt x="206" y="-40" on="0"/>
        <pt x="97" y="18" on="0"/>
        <pt x="25" y="110" on="0"/>
        <pt x="-10" y="224" on="0"/>
        <pt x="-10" y="280" on="1"/>
        <pt x="-10" y="341" on="0"/>
        <pt x="35" y="500" on="0"/>
        <pt x="116" y="678" on="0"/>
        <pt x="230" y="866" on="0"/>
        <pt x="370" y="1042" on="0"/>
        <pt x="531" y="1199" on="0"/>
        <pt x="706" y="1317" on="0"/>
        <pt x="891" y="1385" on="0"/>
        <pt x="984" y="1385" on="1"/>
        <pt x="1056" y="1385" on="0"/>
        <pt x="1201" y="1338" on="0"/>
        <pt x="1272" y="1286" on="1"/>
        <pt x="1294" y="1269" on="0"/>
        <pt x="1314" y="1223" on="0"/>
        <pt x="1314" y="1200" on="1"/>
        <pt x="1314" y="1182" on="0"/>
        <pt x="1303" y="1147" on="0"/>
        <pt x="1283" y="1121" on="0"/>
        <pt x="1254" y="1105" on="0"/>
        <pt x="1218" y="1105" on="0"/>
        <pt x="1175" y="1124" on="0"/>
        <pt x="1152" y="1147" on="1"/>
        <pt x="1112" y="1185" on="0"/>
        <pt x="1025" y="1219" on="0"/>
        <pt x="977" y="1219" on="1"/>
        <pt x="894" y="1219" on="0"/>
        <pt x="719" y="1127" on="0"/>
        <pt x="551" y="976" on="0"/>
        <pt x="402" y="786" on="0"/>
        <pt x="290" y="589" on="0"/>
        <pt x="224" y="404" on="0"/>
        <pt x="224" y="335" on="1"/>
        <pt x="224" y="306" on="0"/>
        <pt x="234" y="239" on="0"/>
        <pt x="261" y="181" on="0"/>
        <pt x="308" y="142" on="0"/>
        <pt x="384" y="142" on="0"/>
        <pt x="477" y="190" on="0"/>
        <pt x="574" y="266" on="0"/>
        <pt x="670" y="361" on="0"/>
        <pt x="752" y="453" on="0"/>
        <pt x="784" y="494" on="1"/>
        <pt x="817" y="536" on="0"/>
        <pt x="824" y="548" on="1"/>
        <pt x="825" y="550" on="0"/>
        <pt x="829" y="558" on="1"/>
        <pt x="836" y="573" on="0"/>
        <pt x="902" y="698" on="1"/>
        <pt x="943" y="776" on="0"/>
        <pt x="1008" y="895" on="1"/>
        <pt x="1022" y="933" on="0"/>
        <pt x="1076" y="965" on="0"/>
        <pt x="1105" y="965" on="1"/>
        <pt x="1120" y="965" on="0"/>
        <pt x="1149" y="956" on="0"/>
        <pt x="1173" y="937" on="0"/>
        <pt x="1187" y="908" on="0"/>
        <pt x="1187" y="888" on="1"/>
        <pt x="1187" y="870" on="0"/>
        <pt x="1156" y="793" on="0"/>
        <pt x="1106" y="691" on="0"/>
        <pt x="1045" y="571" on="0"/>
        <pt x="984" y="448" on="0"/>
        <pt x="930" y="332" on="0"/>
      </contour>
    </TTGlyph>
    <TTGlyph name="AE" xMin="188" yMin="-38" xMax="2684" yMax="1504">
      <contour>
        <pt x="1817" y="825" on="1"/>
        <pt x="1874" y="825" on="0"/>
        <pt x="1931" y="795" on="0"/>
        <pt x="1931" y="774" on="1"/>
        <pt x="1931" y="754" on="0"/>
        <pt x="1910" y="726" on="0"/>
        <pt x="1875" y="706" on="0"/>
        <pt x="1828" y="693" on="0"/>
        <pt x="1803" y="688" on="1"/>
        <pt x="1777" y="683" on="0"/>
        <pt x="1641" y="679" on="0"/>
        <pt x="1536" y="679" on="1"/>
        <pt x="1494" y="605" on="0"/>
        <pt x="1416" y="466" on="0"/>
        <pt x="1381" y="399" on="1"/>
        <pt x="1350" y="341" on="0"/>
        <pt x="1323" y="258" on="0"/>
        <pt x="1323" y="229" on="1"/>
        <pt x="1323" y="194" on="0"/>
        <pt x="1355" y="154" on="0"/>
        <pt x="1409" y="134" on="0"/>
        <pt x="1480" y="128" on="0"/>
        <pt x="1519" y="128" on="1"/>
        <pt x="1537" y="128" on="0"/>
        <pt x="1572" y="129" on="0"/>
        <pt x="1590" y="129" on="1"/>
        <pt x="1713" y="129" on="0"/>
        <pt x="1885" y="185" on="0"/>
        <pt x="2010" y="270" on="0"/>
        <pt x="2097" y="368" on="0"/>
        <pt x="2172" y="453" on="0"/>
        <pt x="2247" y="509" on="0"/>
        <pt x="2296" y="509" on="1"/>
        <pt x="2334" y="509" on="0"/>
        <pt x="2374" y="476" on="0"/>
        <pt x="2374" y="446" on="1"/>
        <pt x="2374" y="405" on="0"/>
        <pt x="2311" y="301" on="0"/>
        <pt x="2199" y="193" on="0"/>
        <pt x="2045" y="91" on="0"/>
        <pt x="1863" y="11" on="0"/>
        <pt x="1660" y="-38" on="0"/>
        <pt x="1555" y="-38" on="1"/>
        <pt x="1502" y="-38" on="0"/>
        <pt x="1390" y="-32" on="0"/>
        <pt x="1283" y="-15" on="0"/>
        <pt x="1188" y="15" on="0"/>
        <pt x="1116" y="63" on="0"/>
        <pt x="1074" y="130" on="0"/>
        <pt x="1074" y="176" on="1"/>
        <pt x="1074" y="235" on="0"/>
        <pt x="1111" y="309" on="1"/>
        <pt x="1092" y="309" on="0"/>
        <pt x="1064" y="307" on="0"/>
        <pt x="1060" y="307" on="1"/>
        <pt x="732" y="285" on="1"/>
        <pt x="566" y="283" on="1"/>
        <pt x="538" y="237" on="0"/>
        <pt x="483" y="157" on="0"/>
        <pt x="457" y="122" on="1"/>
        <pt x="434" y="92" on="0"/>
        <pt x="385" y="34" on="0"/>
        <pt x="337" y="-11" on="0"/>
        <pt x="293" y="-38" on="0"/>
        <pt x="274" y="-38" on="1"/>
        <pt x="248" y="-38" on="0"/>
        <pt x="215" y="-25" on="0"/>
        <pt x="196" y="-3" on="0"/>
        <pt x="188" y="23" on="0"/>
        <pt x="188" y="37" on="1"/>
        <pt x="188" y="66" on="0"/>
        <pt x="214" y="130" on="0"/>
        <pt x="234" y="156" on="1"/>
        <pt x="403" y="378" on="1"/>
        <pt x="414" y="392" on="0"/>
        <pt x="488" y="502" on="0"/>
        <pt x="601" y="660" on="0"/>
        <pt x="747" y="854" on="0"/>
        <pt x="912" y="1051" on="0"/>
        <pt x="1092" y="1237" on="0"/>
        <pt x="1273" y="1382" on="0"/>
        <pt x="1448" y="1469" on="0"/>
        <pt x="1527" y="1469" on="1"/>
        <pt x="1561" y="1469" on="0"/>
        <pt x="1632" y="1449" on="0"/>
        <pt x="1695" y="1403" on="0"/>
        <pt x="1745" y="1326" on="0"/>
        <pt x="1759" y="1268" on="1"/>
        <pt x="1809" y="1324" on="0"/>
        <pt x="1940" y="1412" on="0"/>
        <pt x="2085" y="1472" on="0"/>
        <pt x="2235" y="1504" on="0"/>
        <pt x="2305" y="1504" on="1"/>
        <pt x="2390" y="1504" on="0"/>
        <pt x="2529" y="1469" on="0"/>
        <pt x="2629" y="1398" on="0"/>
        <pt x="2684" y="1288" on="0"/>
        <pt x="2684" y="1213" on="1"/>
        <pt x="2682" y="1202" on="1"/>
        <pt x="2677" y="1176" on="0"/>
        <pt x="2644" y="1125" on="0"/>
        <pt x="2595" y="1084" on="0"/>
        <pt x="2533" y="1058" on="0"/>
        <pt x="2499" y="1058" on="1"/>
        <pt x="2468" y="1058" on="0"/>
        <pt x="2447" y="1083" on="0"/>
        <pt x="2447" y="1105" on="1"/>
        <pt x="2447" y="1129" on="0"/>
        <pt x="2462" y="1195" on="0"/>
        <pt x="2462" y="1228" on="1"/>
        <pt x="2462" y="1256" on="0"/>
        <pt x="2432" y="1297" on="0"/>
        <pt x="2380" y="1323" on="0"/>
        <pt x="2309" y="1335" on="0"/>
        <pt x="2267" y="1335" on="1"/>
        <pt x="2208" y="1335" on="0"/>
        <pt x="2064" y="1300" on="0"/>
        <pt x="1926" y="1238" on="0"/>
        <pt x="1811" y="1151" on="0"/>
        <pt x="1781" y="1099" on="1"/>
        <pt x="1621" y="825" on="1"/>
      </contour>
      <contour>
        <pt x="1476" y="985" on="1"/>
        <pt x="1504" y="1030" on="0"/>
        <pt x="1553" y="1105" on="0"/>
        <pt x="1589" y="1164" on="0"/>
        <pt x="1610" y="1204" on="0"/>
        <pt x="1610" y="1214" on="1"/>
        <pt x="1610" y="1218" on="0"/>
        <pt x="1609" y="1219" on="1"/>
        <pt x="1585" y="1256" on="0"/>
        <pt x="1524" y="1288" on="0"/>
        <pt x="1489" y="1288" on="1"/>
        <pt x="1442" y="1288" on="0"/>
        <pt x="1335" y="1233" on="0"/>
        <pt x="1220" y="1139" on="0"/>
        <pt x="1102" y="1016" on="0"/>
        <pt x="987" y="879" on="0"/>
        <pt x="877" y="737" on="0"/>
        <pt x="780" y="607" on="0"/>
        <pt x="698" y="497" on="0"/>
        <pt x="668" y="460" on="1"/>
        <pt x="851" y="460" on="1"/>
        <pt x="1164" y="483" on="1"/>
        <pt x="1182" y="513" on="0"/>
        <pt x="1254" y="631" on="0"/>
        <pt x="1343" y="773" on="0"/>
        <pt x="1437" y="923" on="0"/>
      </contour>
    </TTGlyph>
    <TTGlyph name="Aacute" xMin="39" yMin="-38" xMax="1615" yMax="2029">
      <component glyphName="A" x="0" y="0" flags="0x1204"/>
      <component glyphName="acute" x="708" y="722" flags="0x1004"/>
    </TTGlyph>
    <TTGlyph name="Acircumflex" xMin="39" yMin="-38" xMax="1613" yMax="1914">
      <component glyphName="A" x="0" y="0" flags="0x1204"/>
      <component glyphName="circumflex" x="180" y="715" flags="0x1004"/>
    </TTGlyph>
    <TTGlyph name="Adieresis" xMin="39" yMin="-38" xMax="1613" yMax="1762">
      <component glyphName="A" x="0" y="0" flags="0x1204"/>
      <component glyphName="dieresis" x="364" y="650" flags="0x1004"/>
    </TTGlyph>
    <TTGlyph name="Agrave" xMin="39" yMin="-38" xMax="1613" yMax="1996">
      <component glyphName="A" x="0" y="0" flags="0x1204"/>
      <component glyphName="grave" x="753" y="689" flags="0x1004"/>
    </TTGlyph>
    <TTGlyph name="Aring" xMin="39" yMin="-38" xMax="1613" yMax="1921">
      <component glyphName="A" x="0" y="0" flags="0x1204"/>
      <component glyphName="ring" x="419" y="707" flags="0x1004"/>
    </TTGlyph>
    <TTGlyph name="Atilde" xMin="39" yMin="-38" xMax="1613" yMax="1770">
      <component glyphName="A" x="0" y="0" flags="0x1204"/>
      <component glyphName="tilde" x="160" y="735" flags="0x1004"/>
    </TTGlyph>
    <TTGlyph name="B" xMin="91" yMin="-40" xMax="1448" yMax="1442">
      <contour>
        <pt x="874" y="924" on="1"/>
        <pt x="963" y="960" on="0"/>
        <pt x="1097" y="1036" on="0"/>
        <pt x="1187" y="1111" on="0"/>
        <pt x="1233" y="1181" on="0"/>
        <pt x="1233" y="1210" on="1"/>
        <pt x="1233" y="1220" on="0"/>
        <pt x="1213" y="1246" on="0"/>
        <pt x="1172" y="1268" on="0"/>
        <pt x="1110" y="1283" on="0"/>
        <pt x="1069" y="1283" on="1"/>
        <pt x="959" y="1283" on="0"/>
        <pt x="771" y="1230" on="0"/>
        <pt x="617" y="1154" on="0"/>
        <pt x="499" y="1071" on="0"/>
        <pt x="459" y="1040" on="1"/>
        <pt x="434" y="1021" on="0"/>
        <pt x="397" y="984" on="0"/>
        <pt x="362" y="955" on="0"/>
        <pt x="322" y="937" on="0"/>
        <pt x="294" y="937" on="1"/>
        <pt x="252" y="937" on="0"/>
        <pt x="205" y="977" on="0"/>
        <pt x="205" y="1013" on="1"/>
        <pt x="205" y="1056" on="0"/>
        <pt x="273" y="1153" on="0"/>
        <pt x="393" y="1249" on="0"/>
        <pt x="555" y="1336" on="0"/>
        <pt x="742" y="1402" on="0"/>
        <pt x="945" y="1442" on="0"/>
        <pt x="1047" y="1442" on="1"/>
        <pt x="1152" y="1442" on="0"/>
        <pt x="1304" y="1408" on="0"/>
        <pt x="1401" y="1348" on="0"/>
        <pt x="1448" y="1266" on="0"/>
        <pt x="1448" y="1170" on="0"/>
        <pt x="1384" y="1066" on="0"/>
        <pt x="1265" y="962" on="0"/>
        <pt x="1094" y="867" on="0"/>
        <pt x="987" y="828" on="1"/>
        <pt x="1093" y="793" on="0"/>
        <pt x="1226" y="716" on="0"/>
        <pt x="1301" y="633" on="0"/>
        <pt x="1327" y="544" on="0"/>
        <pt x="1327" y="497" on="1"/>
        <pt x="1327" y="428" on="0"/>
        <pt x="1251" y="294" on="0"/>
        <pt x="1116" y="175" on="0"/>
        <pt x="931" y="74" on="0"/>
        <pt x="713" y="1" on="0"/>
        <pt x="471" y="-40" on="0"/>
        <pt x="347" y="-40" on="1"/>
        <pt x="303" y="-40" on="0"/>
        <pt x="213" y="-30" on="0"/>
        <pt x="138" y="-4" on="0"/>
        <pt x="91" y="40" on="0"/>
        <pt x="91" y="75" on="1"/>
        <pt x="91" y="79" on="0"/>
        <pt x="92" y="86" on="0"/>
        <pt x="93" y="91" on="1"/>
        <pt x="97" y="99" on="0"/>
        <pt x="107" y="122" on="0"/>
        <pt x="143" y="144" on="0"/>
        <pt x="220" y="159" on="0"/>
        <pt x="292" y="159" on="1"/>
        <pt x="417" y="388" on="0"/>
        <pt x="580" y="719" on="0"/>
        <pt x="690" y="933" on="0"/>
        <pt x="765" y="1035" on="0"/>
        <pt x="801" y="1035" on="1"/>
        <pt x="817" y="1035" on="0"/>
        <pt x="847" y="1025" on="0"/>
        <pt x="870" y="1008" on="0"/>
        <pt x="884" y="983" on="0"/>
        <pt x="884" y="968" on="1"/>
        <pt x="876" y="958" on="0"/>
        <pt x="874" y="937" on="0"/>
      </contour>
      <contour>
        <pt x="819" y="733" on="1"/>
        <pt x="774" y="631" on="0"/>
        <pt x="695" y="469" on="0"/>
        <pt x="625" y="334" on="0"/>
        <pt x="562" y="217" on="0"/>
        <pt x="532" y="161" on="1"/>
        <pt x="648" y="171" on="0"/>
        <pt x="849" y="232" on="0"/>
        <pt x="998" y="322" on="0"/>
        <pt x="1083" y="434" on="0"/>
        <pt x="1083" y="496" on="1"/>
        <pt x="1083" y="524" on="0"/>
        <pt x="1058" y="586" on="0"/>
        <pt x="998" y="648" on="0"/>
        <pt x="896" y="708" on="0"/>
      </contour>
    </TTGlyph>
    <TTGlyph name="C" xMin="146" yMin="-22" xMax="1364" yMax="1443">
      <contour>
        <pt x="1364" y="1263" on="1"/>
        <pt x="1364" y="1236" on="0"/>
        <pt x="1347" y="1160" on="0"/>
        <pt x="1315" y="1078" on="0"/>
        <pt x="1270" y="997" on="0"/>
        <pt x="1212" y="932" on="0"/>
        <pt x="1144" y="892" on="0"/>
        <pt x="1105" y="892" on="1"/>
        <pt x="1096" y="892" on="0"/>
        <pt x="1067" y="895" on="0"/>
        <pt x="1038" y="906" on="0"/>
        <pt x="1017" y="928" on="0"/>
        <pt x="1017" y="946" on="1"/>
        <pt x="1017" y="958" on="0"/>
        <pt x="1030" y="990" on="0"/>
        <pt x="1047" y="1011" on="1"/>
        <pt x="1065" y="1031" on="0"/>
        <pt x="1107" y="1086" on="0"/>
        <pt x="1141" y="1146" on="0"/>
        <pt x="1164" y="1204" on="0"/>
        <pt x="1164" y="1227" on="1"/>
        <pt x="1164" y="1256" on="0"/>
        <pt x="1137" y="1291" on="0"/>
        <pt x="1104" y="1291" on="1"/>
        <pt x="1061" y="1291" on="0"/>
        <pt x="953" y="1235" on="0"/>
        <pt x="835" y="1137" on="0"/>
        <pt x="713" y="1006" on="0"/>
        <pt x="599" y="857" on="0"/>
        <pt x="498" y="696" on="0"/>
        <pt x="423" y="539" on="0"/>
        <pt x="380" y="394" on="0"/>
        <pt x="380" y="335" on="1"/>
        <pt x="380" y="262" on="0"/>
        <pt x="458" y="174" on="0"/>
        <pt x="548" y="174" on="1"/>
        <pt x="590" y="174" on="0"/>
        <pt x="756" y="239" on="0"/>
        <pt x="867" y="304" on="0"/>
        <pt x="980" y="383" on="0"/>
        <pt x="1082" y="456" on="0"/>
        <pt x="1166" y="515" on="0"/>
        <pt x="1193" y="527" on="1"/>
        <pt x="1198" y="531" on="0"/>
        <pt x="1205" y="531" on="1"/>
        <pt x="1220" y="531" on="0"/>
        <pt x="1231" y="482" on="0"/>
        <pt x="1231" y="451" on="1"/>
        <pt x="1231" y="434" on="0"/>
        <pt x="1222" y="385" on="0"/>
        <pt x="1198" y="353" on="1"/>
        <pt x="1187" y="340" on="0"/>
        <pt x="1127" y="278" on="0"/>
        <pt x="1037" y="200" on="0"/>
        <pt x="921" y="116" on="0"/>
        <pt x="786" y="46" on="0"/>
        <pt x="573" y="-22" on="0"/>
        <pt x="494" y="-22" on="1"/>
        <pt x="401" y="-22" on="0"/>
        <pt x="269" y="23" on="0"/>
        <pt x="185" y="103" on="0"/>
        <pt x="146" y="214" on="0"/>
        <pt x="146" y="280" on="1"/>
        <pt x="146" y="362" on="0"/>
        <pt x="196" y="550" on="0"/>
        <pt x="285" y="744" on="0"/>
        <pt x="408" y="938" on="0"/>
        <pt x="555" y="1115" on="0"/>
        <pt x="721" y="1267" on="0"/>
        <pt x="895" y="1379" on="0"/>
        <pt x="1071" y="1443" on="0"/>
        <pt x="1156" y="1443" on="1"/>
        <pt x="1198" y="1443" on="0"/>
        <pt x="1274" y="1424" on="0"/>
        <pt x="1331" y="1382" on="0"/>
        <pt x="1364" y="1313" on="0"/>
      </contour>
    </TTGlyph>
    <TTGlyph name="Ccedilla" xMin="146" yMin="-459" xMax="1364" yMax="1443">
      <component glyphName="C" x="0" y="0" flags="0x1204"/>
      <component glyphName="cedilla" x="-43" y="0" flags="0x1004"/>
    </TTGlyph>
    <TTGlyph name="D" xMin="177" yMin="-38" xMax="1509" yMax="1443">
      <contour>
        <pt x="928" y="901" on="1"/>
        <pt x="911" y="870" on="0"/>
        <pt x="856" y="768" on="0"/>
        <pt x="785" y="642" on="0"/>
        <pt x="702" y="497" on="0"/>
        <pt x="613" y="351" on="0"/>
        <pt x="520" y="210" on="0"/>
        <pt x="476" y="150" on="1"/>
        <pt x="584" y="161" on="0"/>
        <pt x="784" y="249" on="0"/>
        <pt x="959" y="380" on="0"/>
        <pt x="1104" y="543" on="0"/>
        <pt x="1207" y="718" on="0"/>
        <pt x="1264" y="894" on="0"/>
        <pt x="1264" y="972" on="1"/>
        <pt x="1264" y="1038" on="0"/>
        <pt x="1231" y="1150" on="0"/>
        <pt x="1164" y="1232" on="0"/>
        <pt x="1060" y="1278" on="0"/>
        <pt x="990" y="1278" on="1"/>
        <pt x="925" y="1278" on="0"/>
        <pt x="794" y="1253" on="0"/>
        <pt x="674" y="1211" on="0"/>
        <pt x="573" y="1154" on="0"/>
        <pt x="537" y="1121" on="1"/>
        <pt x="497" y="1077" on="0"/>
        <pt x="436" y="989" on="0"/>
        <pt x="377" y="919" on="0"/>
        <pt x="309" y="875" on="0"/>
        <pt x="263" y="875" on="1"/>
        <pt x="177" y="875" on="0"/>
        <pt x="177" y="951" on="1"/>
        <pt x="177" y="999" on="0"/>
        <pt x="239" y="1110" on="0"/>
        <pt x="350" y="1219" on="0"/>
        <pt x="503" y="1320" on="0"/>
        <pt x="687" y="1397" on="0"/>
        <pt x="895" y="1443" on="0"/>
        <pt x="1005" y="1443" on="1"/>
        <pt x="1133" y="1443" on="0"/>
        <pt x="1323" y="1367" on="0"/>
        <pt x="1448" y="1234" on="0"/>
        <pt x="1509" y="1054" on="0"/>
        <pt x="1509" y="846" on="0"/>
        <pt x="1438" y="618" on="0"/>
        <pt x="1301" y="398" on="0"/>
        <pt x="1100" y="200" on="0"/>
        <pt x="839" y="50" on="0"/>
        <pt x="522" y="-38" on="0"/>
        <pt x="338" y="-38" on="1"/>
        <pt x="298" y="-38" on="0"/>
        <pt x="252" y="13" on="0"/>
        <pt x="252" y="50" on="1"/>
        <pt x="252" y="79" on="0"/>
        <pt x="272" y="133" on="0"/>
        <pt x="288" y="156" on="1"/>
        <pt x="699" y="973" on="1"/>
        <pt x="728" y="1018" on="0"/>
        <pt x="785" y="1072" on="0"/>
        <pt x="834" y="1102" on="0"/>
        <pt x="872" y="1111" on="0"/>
        <pt x="882" y="1111" on="1"/>
        <pt x="927" y="1111" on="0"/>
        <pt x="965" y="1059" on="0"/>
        <pt x="965" y="1023" on="1"/>
        <pt x="965" y="994" on="0"/>
        <pt x="945" y="930" on="0"/>
      </contour>
    </TTGlyph>
    <TTGlyph name="D.alt" xMin="-147" yMin="-44" xMax="1440" yMax="1371">
      <contour>
        <pt x="870" y="871" on="1"/>
        <pt x="854" y="842" on="0"/>
        <pt x="802" y="744" on="0"/>
        <pt x="735" y="623" on="0"/>
        <pt x="657" y="484" on="0"/>
        <pt x="573" y="343" on="0"/>
        <pt x="485" y="208" on="0"/>
        <pt x="443" y="150" on="1"/>
        <pt x="546" y="160" on="0"/>
        <pt x="738" y="242" on="0"/>
        <pt x="905" y="364" on="0"/>
        <pt x="1042" y="518" on="0"/>
        <pt x="1140" y="683" on="0"/>
        <pt x="1194" y="850" on="0"/>
        <pt x="1194" y="925" on="1"/>
        <pt x="1194" y="985" on="0"/>
        <pt x="1161" y="1087" on="0"/>
        <pt x="1091" y="1163" on="0"/>
        <pt x="983" y="1206" on="0"/>
        <pt x="909" y="1206" on="1"/>
        <pt x="844" y="1206" on="0"/>
        <pt x="714" y="1181" on="0"/>
        <pt x="595" y="1139" on="0"/>
        <pt x="495" y="1082" on="0"/>
        <pt x="461" y="1049" on="1"/>
        <pt x="422" y="1005" on="0"/>
        <pt x="365" y="917" on="0"/>
        <pt x="308" y="847" on="0"/>
        <pt x="242" y="803" on="0"/>
        <pt x="196" y="803" on="1"/>
        <pt x="151" y="803" on="0"/>
        <pt x="107" y="845" on="0"/>
        <pt x="107" y="884" on="1"/>
        <pt x="107" y="932" on="0"/>
        <pt x="167" y="1042" on="0"/>
        <pt x="275" y="1150" on="0"/>
        <pt x="424" y="1250" on="0"/>
        <pt x="605" y="1326" on="0"/>
        <pt x="810" y="1371" on="0"/>
        <pt x="919" y="1371" on="1"/>
        <pt x="1052" y="1371" on="0"/>
        <pt x="1248" y="1297" on="0"/>
        <pt x="1377" y="1169" on="0"/>
        <pt x="1440" y="995" on="0"/>
        <pt x="1440" y="896" on="1"/>
        <pt x="1440" y="785" on="0"/>
        <pt x="1362" y="559" on="0"/>
        <pt x="1218" y="351" on="0"/>
        <pt x="1011" y="168" on="0"/>
        <pt x="752" y="34" on="0"/>
        <pt x="447" y="-44" on="0"/>
        <pt x="276" y="-44" on="1"/>
        <pt x="191" y="-44" on="0"/>
        <pt x="37" y="-9" on="0"/>
        <pt x="-79" y="47" on="0"/>
        <pt x="-147" y="119" on="0"/>
        <pt x="-147" y="156" on="1"/>
        <pt x="-147" y="173" on="0"/>
        <pt x="-126" y="206" on="0"/>
        <pt x="-91" y="231" on="0"/>
        <pt x="-46" y="247" on="0"/>
        <pt x="-22" y="247" on="1"/>
        <pt x="8" y="247" on="0"/>
        <pt x="70" y="229" on="0"/>
        <pt x="136" y="202" on="0"/>
        <pt x="209" y="171" on="0"/>
        <pt x="250" y="158" on="1"/>
        <pt x="638" y="943" on="1"/>
        <pt x="666" y="988" on="0"/>
        <pt x="721" y="1042" on="0"/>
        <pt x="769" y="1072" on="0"/>
        <pt x="807" y="1081" on="0"/>
        <pt x="817" y="1081" on="1"/>
        <pt x="864" y="1081" on="0"/>
        <pt x="903" y="1025" on="0"/>
        <pt x="903" y="987" on="1"/>
        <pt x="903" y="959" on="0"/>
        <pt x="886" y="899" on="0"/>
      </contour>
    </TTGlyph>
    <TTGlyph name="E" xMin="138" yMin="-38" xMax="1636" yMax="1443">
      <contour>
        <pt x="1078" y="825" on="1"/>
        <pt x="1094" y="825" on="0"/>
        <pt x="1124" y="817" on="0"/>
        <pt x="1148" y="803" on="0"/>
        <pt x="1162" y="784" on="0"/>
        <pt x="1162" y="774" on="1"/>
        <pt x="1162" y="758" on="0"/>
        <pt x="1122" y="725" on="0"/>
        <pt x="1024" y="697" on="0"/>
        <pt x="861" y="679" on="0"/>
        <pt x="737" y="679" on="1"/>
        <pt x="670" y="679" on="0"/>
        <pt x="538" y="642" on="0"/>
        <pt x="434" y="570" on="0"/>
        <pt x="369" y="466" on="0"/>
        <pt x="369" y="399" on="1"/>
        <pt x="369" y="345" on="0"/>
        <pt x="400" y="247" on="0"/>
        <pt x="463" y="173" on="0"/>
        <pt x="558" y="129" on="0"/>
        <pt x="623" y="129" on="1"/>
        <pt x="754" y="129" on="0"/>
        <pt x="928" y="160" on="0"/>
        <pt x="1045" y="207" on="0"/>
        <pt x="1120" y="261" on="0"/>
        <pt x="1185" y="308" on="0"/>
        <pt x="1254" y="339" on="0"/>
        <pt x="1306" y="339" on="1"/>
        <pt x="1348" y="339" on="0"/>
        <pt x="1396" y="298" on="0"/>
        <pt x="1396" y="260" on="1"/>
        <pt x="1396" y="234" on="0"/>
        <pt x="1341" y="170" on="0"/>
        <pt x="1240" y="103" on="0"/>
        <pt x="1098" y="41" on="0"/>
        <pt x="924" y="-8" on="0"/>
        <pt x="724" y="-38" on="0"/>
        <pt x="616" y="-38" on="1"/>
        <pt x="517" y="-38" on="0"/>
        <pt x="343" y="15" on="0"/>
        <pt x="213" y="121" on="0"/>
        <pt x="138" y="280" on="0"/>
        <pt x="138" y="387" on="1"/>
        <pt x="138" y="479" on="0"/>
        <pt x="222" y="630" on="0"/>
        <pt x="367" y="744" on="0"/>
        <pt x="560" y="818" on="0"/>
        <pt x="669" y="832" on="1"/>
        <pt x="585" y="895" on="0"/>
        <pt x="517" y="1016" on="0"/>
        <pt x="517" y="1075" on="1"/>
        <pt x="517" y="1133" on="0"/>
        <pt x="575" y="1232" on="0"/>
        <pt x="676" y="1314" on="0"/>
        <pt x="810" y="1377" on="0"/>
        <pt x="964" y="1420" on="0"/>
        <pt x="1129" y="1443" on="0"/>
        <pt x="1209" y="1443" on="1"/>
        <pt x="1291" y="1443" on="0"/>
        <pt x="1438" y="1409" on="0"/>
        <pt x="1554" y="1337" on="0"/>
        <pt x="1628" y="1227" on="0"/>
        <pt x="1636" y="1152" on="1"/>
        <pt x="1636" y="1131" on="0"/>
        <pt x="1616" y="1087" on="0"/>
        <pt x="1575" y="1050" on="0"/>
        <pt x="1516" y="1027" on="0"/>
        <pt x="1477" y="1027" on="1"/>
        <pt x="1456" y="1027" on="0"/>
        <pt x="1431" y="1037" on="0"/>
        <pt x="1418" y="1055" on="0"/>
        <pt x="1415" y="1080" on="0"/>
        <pt x="1415" y="1095" on="1"/>
        <pt x="1415" y="1142" on="0"/>
        <pt x="1393" y="1210" on="0"/>
        <pt x="1342" y="1253" on="0"/>
        <pt x="1260" y="1274" on="0"/>
        <pt x="1199" y="1274" on="1"/>
        <pt x="1126" y="1274" on="0"/>
        <pt x="968" y="1243" on="0"/>
        <pt x="836" y="1184" on="0"/>
        <pt x="751" y="1102" on="0"/>
        <pt x="751" y="1051" on="1"/>
        <pt x="751" y="991" on="0"/>
        <pt x="806" y="905" on="0"/>
        <pt x="897" y="850" on="0"/>
        <pt x="1015" y="825" on="0"/>
      </contour>
    </TTGlyph>
    <TTGlyph name="Eacute" xMin="138" yMin="-38" xMax="1636" yMax="2024">
      <component glyphName="E" x="0" y="0" flags="0x1204"/>
      <component glyphName="acute" x="570" y="717" flags="0x1004"/>
    </TTGlyph>
    <TTGlyph name="Ecircumflex" xMin="138" yMin="-38" xMax="1636" yMax="1908">
      <component glyphName="E" x="0" y="0" flags="0x1204"/>
      <component glyphName="circumflex" x="204" y="709" flags="0x1004"/>
    </TTGlyph>
    <TTGlyph name="Edieresis" xMin="138" yMin="-38" xMax="1636" yMax="1800">
      <component glyphName="E" x="0" y="0" flags="0x1204"/>
      <component glyphName="dieresis" x="351" y="688" flags="0x1004"/>
    </TTGlyph>
    <TTGlyph name="Egrave" xMin="138" yMin="-38" xMax="1636" yMax="2042">
      <component glyphName="E" x="0" y="0" flags="0x1204"/>
      <component glyphName="grave" x="703" y="735" flags="0x1004"/>
    </TTGlyph>
    <TTGlyph name="Eth" xMin="125" yMin="-38" xMax="1457" yMax="1443">
      <contour>
        <pt x="911" y="735" on="1"/>
        <pt x="928" y="735" on="0"/>
        <pt x="948" y="706" on="0"/>
        <pt x="948" y="687" on="1"/>
        <pt x="948" y="662" on="0"/>
        <pt x="910" y="617" on="0"/>
        <pt x="866" y="617" on="1"/>
        <pt x="718" y="617" on="1"/>
        <pt x="685" y="559" on="0"/>
        <pt x="613" y="436" on="0"/>
        <pt x="538" y="315" on="0"/>
        <pt x="461" y="200" on="0"/>
        <pt x="424" y="150" on="1"/>
        <pt x="532" y="161" on="0"/>
        <pt x="732" y="249" on="0"/>
        <pt x="907" y="380" on="0"/>
        <pt x="1052" y="543" on="0"/>
        <pt x="1155" y="718" on="0"/>
        <pt x="1212" y="894" on="0"/>
        <pt x="1212" y="972" on="1"/>
        <pt x="1212" y="1038" on="0"/>
        <pt x="1179" y="1150" on="0"/>
        <pt x="1112" y="1232" on="0"/>
        <pt x="1008" y="1278" on="0"/>
        <pt x="938" y="1278" on="1"/>
        <pt x="873" y="1278" on="0"/>
        <pt x="742" y="1253" on="0"/>
        <pt x="622" y="1211" on="0"/>
        <pt x="521" y="1154" on="0"/>
        <pt x="485" y="1121" on="1"/>
        <pt x="445" y="1077" on="0"/>
        <pt x="384" y="989" on="0"/>
        <pt x="325" y="919" on="0"/>
        <pt x="257" y="875" on="0"/>
        <pt x="211" y="875" on="1"/>
        <pt x="125" y="875" on="0"/>
        <pt x="125" y="951" on="1"/>
        <pt x="125" y="999" on="0"/>
        <pt x="187" y="1110" on="0"/>
        <pt x="298" y="1219" on="0"/>
        <pt x="451" y="1320" on="0"/>
        <pt x="635" y="1397" on="0"/>
        <pt x="843" y="1443" on="0"/>
        <pt x="953" y="1443" on="1"/>
        <pt x="1081" y="1443" on="0"/>
        <pt x="1271" y="1367" on="0"/>
        <pt x="1396" y="1234" on="0"/>
        <pt x="1457" y="1054" on="0"/>
        <pt x="1457" y="846" on="0"/>
        <pt x="1386" y="618" on="0"/>
        <pt x="1249" y="398" on="0"/>
        <pt x="1048" y="200" on="0"/>
        <pt x="787" y="50" on="0"/>
        <pt x="470" y="-38" on="0"/>
        <pt x="286" y="-38" on="1"/>
        <pt x="246" y="-38" on="0"/>
        <pt x="200" y="13" on="0"/>
        <pt x="200" y="50" on="1"/>
        <pt x="200" y="79" on="0"/>
        <pt x="220" y="133" on="0"/>
        <pt x="236" y="156" on="1"/>
        <pt x="468" y="617" on="1"/>
        <pt x="271" y="617" on="1"/>
        <pt x="254" y="617" on="0"/>
        <pt x="237" y="641" on="0"/>
        <pt x="237" y="658" on="1"/>
        <pt x="237" y="671" on="0"/>
        <pt x="248" y="698" on="0"/>
        <pt x="271" y="720" on="0"/>
        <pt x="307" y="735" on="0"/>
        <pt x="333" y="735" on="1"/>
        <pt x="527" y="735" on="1"/>
        <pt x="647" y="973" on="1"/>
        <pt x="676" y="1018" on="0"/>
        <pt x="733" y="1072" on="0"/>
        <pt x="782" y="1102" on="0"/>
        <pt x="820" y="1111" on="0"/>
        <pt x="830" y="1111" on="1"/>
        <pt x="875" y="1111" on="0"/>
        <pt x="913" y="1059" on="0"/>
        <pt x="913" y="1023" on="1"/>
        <pt x="913" y="994" on="0"/>
        <pt x="893" y="930" on="0"/>
        <pt x="876" y="901" on="1"/>
        <pt x="785" y="735" on="1"/>
      </contour>
    </TTGlyph>
    <TTGlyph name="Euro" xMin="77" yMin="-22" xMax="1440" yMax="1443">
      <contour>
        <pt x="1440" y="1263" on="1"/>
        <pt x="1440" y="1236" on="0"/>
        <pt x="1423" y="1160" on="0"/>
        <pt x="1391" y="1078" on="0"/>
        <pt x="1346" y="997" on="0"/>
        <pt x="1288" y="932" on="0"/>
        <pt x="1220" y="892" on="0"/>
        <pt x="1181" y="892" on="1"/>
        <pt x="1172" y="892" on="0"/>
        <pt x="1143" y="895" on="0"/>
        <pt x="1114" y="906" on="0"/>
        <pt x="1093" y="928" on="0"/>
        <pt x="1093" y="946" on="1"/>
        <pt x="1093" y="958" on="0"/>
        <pt x="1106" y="990" on="0"/>
        <pt x="1123" y="1011" on="1"/>
        <pt x="1141" y="1031" on="0"/>
        <pt x="1183" y="1086" on="0"/>
        <pt x="1217" y="1146" on="0"/>
        <pt x="1240" y="1204" on="0"/>
        <pt x="1240" y="1227" on="1"/>
        <pt x="1240" y="1256" on="0"/>
        <pt x="1213" y="1291" on="0"/>
        <pt x="1180" y="1291" on="1"/>
        <pt x="1145" y="1291" on="0"/>
        <pt x="1059" y="1252" on="0"/>
        <pt x="964" y="1184" on="0"/>
        <pt x="865" y="1089" on="0"/>
        <pt x="766" y="977" on="0"/>
        <pt x="672" y="852" on="0"/>
        <pt x="631" y="787" on="1"/>
        <pt x="1148" y="787" on="1"/>
        <pt x="1162" y="787" on="0"/>
        <pt x="1175" y="772" on="0"/>
        <pt x="1175" y="750" on="0"/>
        <pt x="1164" y="727" on="0"/>
        <pt x="1145" y="706" on="0"/>
        <pt x="1117" y="693" on="0"/>
        <pt x="1101" y="693" on="1"/>
        <pt x="575" y="693" on="1"/>
        <pt x="563" y="671" on="0"/>
        <pt x="542" y="627" on="0"/>
        <pt x="531" y="606" on="1"/>
        <pt x="1095" y="606" on="1"/>
        <pt x="1112" y="606" on="0"/>
        <pt x="1130" y="587" on="0"/>
        <pt x="1130" y="573" on="1"/>
        <pt x="1130" y="563" on="0"/>
        <pt x="1120" y="541" on="0"/>
        <pt x="1099" y="523" on="0"/>
        <pt x="1069" y="512" on="0"/>
        <pt x="1048" y="512" on="1"/>
        <pt x="492" y="512" on="1"/>
        <pt x="475" y="463" on="0"/>
        <pt x="456" y="373" on="0"/>
        <pt x="456" y="335" on="1"/>
        <pt x="456" y="262" on="0"/>
        <pt x="534" y="174" on="0"/>
        <pt x="624" y="174" on="1"/>
        <pt x="666" y="174" on="0"/>
        <pt x="769" y="216" on="0"/>
        <pt x="880" y="281" on="0"/>
        <pt x="993" y="360" on="0"/>
        <pt x="1095" y="433" on="0"/>
        <pt x="1179" y="492" on="0"/>
        <pt x="1206" y="504" on="1"/>
        <pt x="1211" y="508" on="0"/>
        <pt x="1218" y="508" on="1"/>
        <pt x="1233" y="508" on="0"/>
        <pt x="1244" y="459" on="0"/>
        <pt x="1244" y="428" on="1"/>
        <pt x="1244" y="411" on="0"/>
        <pt x="1235" y="362" on="0"/>
        <pt x="1211" y="330" on="1"/>
        <pt x="1200" y="317" on="0"/>
        <pt x="1140" y="255" on="0"/>
        <pt x="1050" y="177" on="0"/>
        <pt x="934" y="93" on="0"/>
        <pt x="799" y="23" on="0"/>
        <pt x="649" y="-22" on="0"/>
        <pt x="570" y="-22" on="1"/>
        <pt x="477" y="-22" on="0"/>
        <pt x="345" y="23" on="0"/>
        <pt x="261" y="103" on="0"/>
        <pt x="222" y="214" on="0"/>
        <pt x="222" y="280" on="1"/>
        <pt x="222" y="334" on="0"/>
        <pt x="243" y="450" on="0"/>
        <pt x="263" y="512" on="1"/>
        <pt x="110" y="512" on="1"/>
        <pt x="93" y="512" on="0"/>
        <pt x="77" y="531" on="0"/>
        <pt x="77" y="545" on="1"/>
        <pt x="77" y="555" on="0"/>
        <pt x="87" y="577" on="0"/>
        <pt x="107" y="595" on="0"/>
        <pt x="137" y="606" on="0"/>
        <pt x="157" y="606" on="1"/>
        <pt x="298" y="606" on="1"/>
        <pt x="307" y="628" on="0"/>
        <pt x="327" y="671" on="0"/>
        <pt x="338" y="693" on="1"/>
        <pt x="163" y="693" on="1"/>
        <pt x="144" y="693" on="0"/>
        <pt x="127" y="710" on="0"/>
        <pt x="127" y="722" on="1"/>
        <pt x="127" y="732" on="0"/>
        <pt x="139" y="755" on="0"/>
        <pt x="160" y="774" on="0"/>
        <pt x="191" y="787" on="0"/>
        <pt x="210" y="787" on="1"/>
        <pt x="390" y="787" on="1"/>
        <pt x="440" y="872" on="0"/>
        <pt x="562" y="1035" on="0"/>
        <pt x="700" y="1181" on="0"/>
        <pt x="849" y="1304" on="0"/>
        <pt x="1003" y="1393" on="0"/>
        <pt x="1157" y="1443" on="0"/>
        <pt x="1232" y="1443" on="1"/>
        <pt x="1274" y="1443" on="0"/>
        <pt x="1350" y="1424" on="0"/>
        <pt x="1407" y="1382" on="0"/>
        <pt x="1440" y="1313" on="0"/>
      </contour>
    </TTGlyph>
    <TTGlyph name="F" xMin="62" yMin="-42" xMax="1383" yMax="1443">
      <contour>
        <pt x="1182" y="826" on="1"/>
        <pt x="1170" y="797" on="0"/>
        <pt x="1148" y="763" on="0"/>
        <pt x="1122" y="744" on="0"/>
        <pt x="1089" y="738" on="0"/>
        <pt x="1067" y="738" on="1"/>
        <pt x="973" y="746" on="0"/>
        <pt x="838" y="754" on="0"/>
        <pt x="786" y="754" on="1"/>
        <pt x="735" y="754" on="0"/>
        <pt x="658" y="746" on="0"/>
        <pt x="621" y="736" on="1"/>
        <pt x="606" y="712" on="0"/>
        <pt x="546" y="608" on="0"/>
        <pt x="473" y="475" on="0"/>
        <pt x="397" y="325" on="0"/>
        <pt x="365" y="256" on="1"/>
        <pt x="296" y="106" on="0"/>
        <pt x="187" y="-42" on="0"/>
        <pt x="149" y="-42" on="1"/>
        <pt x="103" y="-42" on="0"/>
        <pt x="62" y="-9" on="0"/>
        <pt x="62" y="23" on="1"/>
        <pt x="62" y="61" on="0"/>
        <pt x="117" y="198" on="0"/>
        <pt x="166" y="296" on="1"/>
        <pt x="184" y="332" on="0"/>
        <pt x="227" y="414" on="0"/>
        <pt x="271" y="496" on="0"/>
        <pt x="313" y="574" on="0"/>
        <pt x="347" y="637" on="0"/>
        <pt x="370" y="681" on="0"/>
        <pt x="373" y="688" on="1"/>
        <pt x="376" y="696" on="0"/>
        <pt x="379" y="702" on="0"/>
        <pt x="380" y="705" on="0"/>
        <pt x="380" y="706" on="0"/>
        <pt x="381" y="710" on="1"/>
        <pt x="363" y="710" on="1"/>
        <pt x="325" y="710" on="0"/>
        <pt x="279" y="722" on="0"/>
        <pt x="279" y="742" on="1"/>
        <pt x="279" y="753" on="0"/>
        <pt x="288" y="770" on="1"/>
        <pt x="309" y="809" on="0"/>
        <pt x="361" y="850" on="0"/>
        <pt x="410" y="868" on="0"/>
        <pt x="451" y="869" on="0"/>
        <pt x="462" y="869" on="1"/>
        <pt x="489" y="924" on="0"/>
        <pt x="543" y="1034" on="0"/>
        <pt x="570" y="1089" on="1"/>
        <pt x="621" y="1190" on="0"/>
        <pt x="726" y="1326" on="0"/>
        <pt x="850" y="1408" on="0"/>
        <pt x="1000" y="1443" on="0"/>
        <pt x="1096" y="1443" on="1"/>
        <pt x="1184" y="1443" on="0"/>
        <pt x="1289" y="1433" on="0"/>
        <pt x="1310" y="1428" on="1"/>
        <pt x="1350" y="1417" on="0"/>
        <pt x="1383" y="1364" on="0"/>
        <pt x="1383" y="1332" on="1"/>
        <pt x="1383" y="1307" on="0"/>
        <pt x="1366" y="1257" on="0"/>
        <pt x="1337" y="1216" on="0"/>
        <pt x="1300" y="1190" on="0"/>
        <pt x="1281" y="1190" on="1"/>
        <pt x="1270" y="1190" on="0"/>
        <pt x="1262" y="1194" on="1"/>
        <pt x="1240" y="1204" on="0"/>
        <pt x="1205" y="1219" on="0"/>
        <pt x="1169" y="1228" on="0"/>
        <pt x="1124" y="1232" on="0"/>
        <pt x="1091" y="1232" on="1"/>
        <pt x="1057" y="1232" on="0"/>
        <pt x="964" y="1229" on="0"/>
        <pt x="897" y="1226" on="1"/>
        <pt x="870" y="1179" on="0"/>
        <pt x="823" y="1098" on="0"/>
        <pt x="778" y="1019" on="0"/>
        <pt x="731" y="938" on="0"/>
        <pt x="703" y="890" on="1"/>
        <pt x="740" y="903" on="0"/>
        <pt x="827" y="924" on="0"/>
        <pt x="918" y="938" on="0"/>
        <pt x="1010" y="946" on="0"/>
        <pt x="1052" y="946" on="1"/>
        <pt x="1128" y="946" on="0"/>
        <pt x="1195" y="922" on="0"/>
        <pt x="1195" y="885" on="1"/>
        <pt x="1195" y="877" on="0"/>
        <pt x="1193" y="846" on="0"/>
      </contour>
    </TTGlyph>
    <TTGlyph name="G" xMin="227" yMin="-256" xMax="1528" yMax="1443">
      <contour>
        <pt x="1245" y="435" on="1"/>
        <pt x="1241" y="430" on="0"/>
        <pt x="1220" y="377" on="0"/>
        <pt x="1190" y="297" on="0"/>
        <pt x="1155" y="198" on="0"/>
        <pt x="1118" y="95" on="0"/>
        <pt x="1084" y="-4" on="0"/>
        <pt x="1057" y="-84" on="0"/>
        <pt x="1039" y="-138" on="0"/>
        <pt x="1037" y="-143" on="1"/>
        <pt x="1032" y="-159" on="0"/>
        <pt x="1010" y="-198" on="0"/>
        <pt x="980" y="-233" on="0"/>
        <pt x="944" y="-256" on="0"/>
        <pt x="925" y="-256" on="1"/>
        <pt x="893" y="-256" on="0"/>
        <pt x="864" y="-220" on="0"/>
        <pt x="864" y="-172" on="1"/>
        <pt x="864" y="-165" on="0"/>
        <pt x="864" y="-151" on="0"/>
        <pt x="865" y="-143" on="1"/>
        <pt x="866" y="-127" on="0"/>
        <pt x="894" y="-39" on="0"/>
        <pt x="933" y="72" on="0"/>
        <pt x="978" y="191" on="0"/>
        <pt x="996" y="238" on="1"/>
        <pt x="943" y="188" on="0"/>
        <pt x="819" y="89" on="0"/>
        <pt x="689" y="10" on="0"/>
        <pt x="557" y="-40" on="0"/>
        <pt x="496" y="-40" on="1"/>
        <pt x="426" y="-40" on="0"/>
        <pt x="325" y="12" on="0"/>
        <pt x="259" y="96" on="0"/>
        <pt x="227" y="202" on="0"/>
        <pt x="227" y="255" on="1"/>
        <pt x="227" y="262" on="0"/>
        <pt x="227" y="274" on="0"/>
        <pt x="228" y="280" on="1"/>
        <pt x="234" y="376" on="0"/>
        <pt x="287" y="578" on="0"/>
        <pt x="373" y="778" on="0"/>
        <pt x="486" y="969" on="0"/>
        <pt x="619" y="1139" on="0"/>
        <pt x="769" y="1282" on="0"/>
        <pt x="927" y="1385" on="0"/>
        <pt x="1088" y="1443" on="0"/>
        <pt x="1167" y="1443" on="1"/>
        <pt x="1258" y="1443" on="0"/>
        <pt x="1428" y="1359" on="0"/>
        <pt x="1502" y="1265" on="1"/>
        <pt x="1519" y="1244" on="0"/>
        <pt x="1528" y="1201" on="0"/>
        <pt x="1528" y="1182" on="1"/>
        <pt x="1528" y="1137" on="0"/>
        <pt x="1477" y="1085" on="0"/>
        <pt x="1442" y="1085" on="1"/>
        <pt x="1410" y="1085" on="0"/>
        <pt x="1355" y="1142" on="0"/>
        <pt x="1321" y="1195" on="1"/>
        <pt x="1289" y="1243" on="0"/>
        <pt x="1212" y="1286" on="0"/>
        <pt x="1167" y="1286" on="1"/>
        <pt x="1097" y="1286" on="0"/>
        <pt x="938" y="1188" on="0"/>
        <pt x="782" y="1027" on="0"/>
        <pt x="639" y="820" on="0"/>
        <pt x="529" y="603" on="0"/>
        <pt x="464" y="392" on="0"/>
        <pt x="464" y="308" on="1"/>
        <pt x="464" y="280" on="0"/>
        <pt x="473" y="221" on="0"/>
        <pt x="498" y="173" on="0"/>
        <pt x="541" y="142" on="0"/>
        <pt x="574" y="142" on="1"/>
        <pt x="611" y="142" on="0"/>
        <pt x="705" y="184" on="0"/>
        <pt x="806" y="252" on="0"/>
        <pt x="908" y="338" on="0"/>
        <pt x="996" y="426" on="0"/>
        <pt x="1064" y="507" on="0"/>
        <pt x="1081" y="537" on="1"/>
        <pt x="1174" y="772" on="1"/>
        <pt x="1191" y="810" on="0"/>
        <pt x="1246" y="842" on="0"/>
        <pt x="1275" y="842" on="1"/>
        <pt x="1289" y="842" on="0"/>
        <pt x="1317" y="834" on="0"/>
        <pt x="1339" y="817" on="0"/>
        <pt x="1352" y="790" on="0"/>
        <pt x="1352" y="772" on="1"/>
        <pt x="1352" y="724" on="0"/>
        <pt x="1332" y="640" on="0"/>
        <pt x="1301" y="560" on="0"/>
        <pt x="1263" y="479" on="0"/>
      </contour>
    </TTGlyph>
    <TTGlyph name="H" xMin="78" yMin="-82" xMax="1793" yMax="1443">
      <contour>
        <pt x="1401" y="405" on="1"/>
        <pt x="1396" y="405" on="0"/>
        <pt x="1389" y="404" on="0"/>
        <pt x="1385" y="404" on="1"/>
        <pt x="1336" y="294" on="0"/>
        <pt x="1261" y="128" on="0"/>
        <pt x="1241" y="91" on="1"/>
        <pt x="1224" y="60" on="0"/>
        <pt x="1181" y="14" on="0"/>
        <pt x="1133" y="-17" on="0"/>
        <pt x="1084" y="-32" on="0"/>
        <pt x="1063" y="-32" on="1"/>
        <pt x="1032" y="-32" on="0"/>
        <pt x="990" y="-2" on="0"/>
        <pt x="990" y="28" on="1"/>
        <pt x="990" y="54" on="0"/>
        <pt x="1006" y="89" on="1"/>
        <pt x="1150" y="394" on="1"/>
        <pt x="1041" y="390" on="0"/>
        <pt x="840" y="384" on="0"/>
        <pt x="747" y="382" on="1"/>
        <pt x="700" y="286" on="0"/>
        <pt x="592" y="117" on="0"/>
        <pt x="472" y="-9" on="0"/>
        <pt x="342" y="-82" on="0"/>
        <pt x="272" y="-82" on="1"/>
        <pt x="218" y="-82" on="0"/>
        <pt x="172" y="-54" on="1"/>
        <pt x="158" y="-48" on="0"/>
        <pt x="125" y="-15" on="0"/>
        <pt x="97" y="31" on="0"/>
        <pt x="78" y="85" on="0"/>
        <pt x="78" y="113" on="1"/>
        <pt x="78" y="133" on="0"/>
        <pt x="92" y="170" on="0"/>
        <pt x="105" y="187" on="1"/>
        <pt x="111" y="194" on="0"/>
        <pt x="127" y="216" on="0"/>
        <pt x="149" y="237" on="0"/>
        <pt x="174" y="251" on="0"/>
        <pt x="189" y="251" on="1"/>
        <pt x="195" y="251" on="0"/>
        <pt x="207" y="248" on="0"/>
        <pt x="212" y="244" on="1"/>
        <pt x="222" y="238" on="0"/>
        <pt x="241" y="196" on="0"/>
        <pt x="264" y="151" on="0"/>
        <pt x="292" y="115" on="0"/>
        <pt x="311" y="115" on="1"/>
        <pt x="338" y="115" on="0"/>
        <pt x="393" y="156" on="0"/>
        <pt x="450" y="229" on="0"/>
        <pt x="508" y="331" on="0"/>
        <pt x="537" y="391" on="1"/>
        <pt x="505" y="401" on="0"/>
        <pt x="479" y="438" on="0"/>
        <pt x="479" y="458" on="1"/>
        <pt x="479" y="470" on="0"/>
        <pt x="497" y="494" on="0"/>
        <pt x="529" y="513" on="0"/>
        <pt x="572" y="527" on="0"/>
        <pt x="598" y="528" on="1"/>
        <pt x="634" y="616" on="0"/>
        <pt x="700" y="806" on="0"/>
        <pt x="760" y="988" on="0"/>
        <pt x="810" y="1155" on="0"/>
        <pt x="848" y="1287" on="0"/>
        <pt x="872" y="1373" on="0"/>
        <pt x="875" y="1384" on="1"/>
        <pt x="883" y="1415" on="0"/>
        <pt x="928" y="1443" on="0"/>
        <pt x="954" y="1443" on="1"/>
        <pt x="993" y="1443" on="0"/>
        <pt x="1034" y="1392" on="0"/>
        <pt x="1034" y="1325" on="1"/>
        <pt x="1034" y="1317" on="0"/>
        <pt x="1034" y="1300" on="0"/>
        <pt x="1033" y="1290" on="1"/>
        <pt x="1031" y="1264" on="0"/>
        <pt x="1015" y="1175" on="0"/>
        <pt x="989" y="1059" on="0"/>
        <pt x="951" y="920" on="0"/>
        <pt x="904" y="769" on="0"/>
        <pt x="847" y="609" on="0"/>
        <pt x="814" y="530" on="1"/>
        <pt x="845" y="530" on="0"/>
        <pt x="919" y="530" on="0"/>
        <pt x="1012" y="529" on="0"/>
        <pt x="1130" y="526" on="0"/>
        <pt x="1206" y="524" on="1"/>
        <pt x="1207" y="524" on="0"/>
        <pt x="1209" y="523" on="0"/>
        <pt x="1210" y="523" on="1"/>
        <pt x="1298" y="708" on="0"/>
        <pt x="1456" y="1035" on="0"/>
        <pt x="1588" y="1280" on="0"/>
        <pt x="1690" y="1422" on="0"/>
        <pt x="1723" y="1422" on="1"/>
        <pt x="1758" y="1422" on="0"/>
        <pt x="1793" y="1389" on="0"/>
        <pt x="1793" y="1361" on="1"/>
        <pt x="1793" y="1346" on="0"/>
        <pt x="1786" y="1323" on="0"/>
        <pt x="1780" y="1309" on="1"/>
        <pt x="1754" y="1246" on="0"/>
        <pt x="1674" y="1062" on="0"/>
        <pt x="1580" y="849" on="0"/>
        <pt x="1479" y="620" on="0"/>
        <pt x="1432" y="513" on="1"/>
        <pt x="1462" y="507" on="0"/>
        <pt x="1501" y="486" on="0"/>
        <pt x="1501" y="469" on="1"/>
        <pt x="1501" y="447" on="0"/>
        <pt x="1455" y="408" on="0"/>
      </contour>
    </TTGlyph>
    <TTGlyph name="I" xMin="256" yMin="-6" xMax="1546" yMax="1443">
      <contour>
        <pt x="778" y="8" on="1"/>
        <pt x="712" y="15" on="0"/>
        <pt x="609" y="20" on="0"/>
        <pt x="564" y="20" on="1"/>
        <pt x="534" y="20" on="0"/>
        <pt x="477" y="18" on="0"/>
        <pt x="420" y="17" on="0"/>
        <pt x="359" y="15" on="0"/>
        <pt x="325" y="15" on="1"/>
        <pt x="292" y="15" on="0"/>
        <pt x="256" y="53" on="0"/>
        <pt x="256" y="81" on="1"/>
        <pt x="256" y="92" on="0"/>
        <pt x="259" y="104" on="1"/>
        <pt x="262" y="114" on="0"/>
        <pt x="303" y="137" on="0"/>
        <pt x="370" y="158" on="0"/>
        <pt x="460" y="174" on="0"/>
        <pt x="511" y="178" on="1"/>
        <pt x="563" y="291" on="0"/>
        <pt x="676" y="522" on="0"/>
        <pt x="790" y="741" on="0"/>
        <pt x="898" y="941" on="0"/>
        <pt x="992" y="1106" on="0"/>
        <pt x="1067" y="1228" on="0"/>
        <pt x="1091" y="1260" on="1"/>
        <pt x="1040" y="1249" on="0"/>
        <pt x="944" y="1224" on="0"/>
        <pt x="884" y="1212" on="1"/>
        <pt x="872" y="1208" on="0"/>
        <pt x="860" y="1208" on="1"/>
        <pt x="831" y="1208" on="0"/>
        <pt x="799" y="1249" on="0"/>
        <pt x="799" y="1278" on="1"/>
        <pt x="799" y="1291" on="0"/>
        <pt x="846" y="1326" on="0"/>
        <pt x="929" y="1363" on="0"/>
        <pt x="1042" y="1398" on="0"/>
        <pt x="1175" y="1426" on="0"/>
        <pt x="1322" y="1443" on="0"/>
        <pt x="1397" y="1443" on="1"/>
        <pt x="1467" y="1443" on="0"/>
        <pt x="1546" y="1414" on="0"/>
        <pt x="1546" y="1379" on="1"/>
        <pt x="1546" y="1362" on="0"/>
        <pt x="1526" y="1327" on="0"/>
        <pt x="1493" y="1299" on="0"/>
        <pt x="1447" y="1282" on="0"/>
        <pt x="1422" y="1282" on="1"/>
        <pt x="1408" y="1282" on="0"/>
        <pt x="1384" y="1285" on="0"/>
        <pt x="1370" y="1285" on="1"/>
        <pt x="1333" y="1285" on="0"/>
        <pt x="1269" y="1282" on="0"/>
        <pt x="1240" y="1280" on="1"/>
        <pt x="1242" y="1270" on="0"/>
        <pt x="1242" y="1265" on="1"/>
        <pt x="1242" y="1251" on="0"/>
        <pt x="1232" y="1226" on="0"/>
        <pt x="1227" y="1215" on="1"/>
        <pt x="1196" y="1150" on="0"/>
        <pt x="1108" y="967" on="0"/>
        <pt x="1008" y="761" on="0"/>
        <pt x="905" y="549" on="0"/>
        <pt x="813" y="361" on="0"/>
        <pt x="739" y="214" on="0"/>
        <pt x="720" y="176" on="1"/>
        <pt x="776" y="171" on="0"/>
        <pt x="870" y="154" on="0"/>
        <pt x="937" y="129" on="0"/>
        <pt x="975" y="95" on="0"/>
        <pt x="975" y="74" on="1"/>
        <pt x="975" y="59" on="0"/>
        <pt x="955" y="30" on="0"/>
        <pt x="923" y="7" on="0"/>
        <pt x="883" y="-6" on="0"/>
        <pt x="862" y="-6" on="1"/>
        <pt x="839" y="-6" on="0"/>
        <pt x="798" y="6" on="0"/>
      </contour>
    </TTGlyph>
    <TTGlyph name="Iacute" xMin="256" yMin="-6" xMax="1718" yMax="2028">
      <component glyphName="I" x="0" y="0" flags="0x1204"/>
      <component glyphName="acute" x="811" y="721" flags="0x1004"/>
    </TTGlyph>
    <TTGlyph name="Icircumflex" xMin="256" yMin="-6" xMax="1610" yMax="1881">
      <component glyphName="I" x="0" y="0" flags="0x1204"/>
      <component glyphName="circumflex" x="228" y="682" flags="0x1004"/>
    </TTGlyph>
    <TTGlyph name="Idieresis" xMin="256" yMin="-6" xMax="1640" yMax="1787">
      <component glyphName="I" x="0" y="0" flags="0x1204"/>
      <component glyphName="dieresis" x="414" y="675" flags="0x1004"/>
    </TTGlyph>
    <TTGlyph name="Igrave" xMin="256" yMin="-6" xMax="1546" yMax="2048">
      <component glyphName="I" x="0" y="0" flags="0x1204"/>
      <component glyphName="grave" x="747" y="741" flags="0x1004"/>
    </TTGlyph>
    <TTGlyph name="J" xMin="117" yMin="-43" xMax="1924" yMax="1444">
      <contour>
        <pt x="1264" y="636" on="1"/>
        <pt x="1202" y="499" on="0"/>
        <pt x="1057" y="252" on="0"/>
        <pt x="892" y="66" on="0"/>
        <pt x="712" y="-43" on="0"/>
        <pt x="616" y="-43" on="1"/>
        <pt x="560" y="-43" on="0"/>
        <pt x="446" y="-7" on="0"/>
        <pt x="327" y="70" on="0"/>
        <pt x="206" y="191" on="0"/>
        <pt x="144" y="277" on="1"/>
        <pt x="129" y="294" on="0"/>
        <pt x="117" y="328" on="0"/>
        <pt x="117" y="348" on="1"/>
        <pt x="117" y="363" on="0"/>
        <pt x="136" y="407" on="0"/>
        <pt x="172" y="448" on="0"/>
        <pt x="224" y="477" on="0"/>
        <pt x="257" y="477" on="1"/>
        <pt x="277" y="477" on="0"/>
        <pt x="311" y="463" on="0"/>
        <pt x="325" y="446" on="1"/>
        <pt x="405" y="286" on="0"/>
        <pt x="562" y="138" on="0"/>
        <pt x="639" y="138" on="1"/>
        <pt x="695" y="138" on="0"/>
        <pt x="806" y="211" on="0"/>
        <pt x="916" y="350" on="0"/>
        <pt x="1027" y="550" on="0"/>
        <pt x="1083" y="677" on="1"/>
        <pt x="1370" y="1272" on="1"/>
        <pt x="1263" y="1273" on="0"/>
        <pt x="1124" y="1273" on="0"/>
        <pt x="1098" y="1273" on="1"/>
        <pt x="1080" y="1273" on="0"/>
        <pt x="1051" y="1289" on="0"/>
        <pt x="1030" y="1313" on="0"/>
        <pt x="1018" y="1343" on="0"/>
        <pt x="1018" y="1357" on="1"/>
        <pt x="1018" y="1385" on="0"/>
        <pt x="1062" y="1420" on="0"/>
        <pt x="1110" y="1420" on="1"/>
        <pt x="1119" y="1420" on="0"/>
        <pt x="1138" y="1419" on="0"/>
        <pt x="1147" y="1419" on="1"/>
        <pt x="1221" y="1419" on="0"/>
        <pt x="1370" y="1427" on="0"/>
        <pt x="1517" y="1436" on="0"/>
        <pt x="1664" y="1444" on="0"/>
        <pt x="1736" y="1444" on="1"/>
        <pt x="1793" y="1444" on="0"/>
        <pt x="1866" y="1437" on="0"/>
        <pt x="1908" y="1424" on="0"/>
        <pt x="1924" y="1404" on="0"/>
        <pt x="1924" y="1392" on="1"/>
        <pt x="1924" y="1376" on="0"/>
        <pt x="1909" y="1342" on="0"/>
        <pt x="1867" y="1313" on="0"/>
        <pt x="1790" y="1295" on="0"/>
        <pt x="1728" y="1295" on="1"/>
        <pt x="1699" y="1295" on="0"/>
        <pt x="1630" y="1290" on="0"/>
        <pt x="1589" y="1285" on="1"/>
      </contour>
    </TTGlyph>
    <TTGlyph name="K" xMin="197" yMin="-83" xMax="1903" yMax="1444">
      <contour>
        <pt x="288" y="-54" on="1"/>
        <pt x="274" y="-48" on="0"/>
        <pt x="243" y="-16" on="0"/>
        <pt x="215" y="28" on="0"/>
        <pt x="197" y="81" on="0"/>
        <pt x="197" y="108" on="1"/>
        <pt x="197" y="148" on="0"/>
        <pt x="225" y="187" on="1"/>
        <pt x="231" y="194" on="0"/>
        <pt x="248" y="216" on="0"/>
        <pt x="271" y="237" on="0"/>
        <pt x="297" y="251" on="0"/>
        <pt x="311" y="251" on="1"/>
        <pt x="317" y="251" on="0"/>
        <pt x="329" y="248" on="0"/>
        <pt x="334" y="244" on="1"/>
        <pt x="344" y="238" on="0"/>
        <pt x="362" y="196" on="0"/>
        <pt x="384" y="151" on="0"/>
        <pt x="412" y="115" on="0"/>
        <pt x="430" y="115" on="1"/>
        <pt x="464" y="115" on="0"/>
        <pt x="540" y="182" on="0"/>
        <pt x="618" y="298" on="0"/>
        <pt x="698" y="453" on="0"/>
        <pt x="775" y="629" on="0"/>
        <pt x="847" y="817" on="0"/>
        <pt x="912" y="997" on="0"/>
        <pt x="967" y="1161" on="0"/>
        <pt x="1008" y="1290" on="0"/>
        <pt x="1034" y="1374" on="0"/>
        <pt x="1037" y="1385" on="1"/>
        <pt x="1046" y="1416" on="0"/>
        <pt x="1091" y="1444" on="0"/>
        <pt x="1117" y="1444" on="1"/>
        <pt x="1155" y="1444" on="0"/>
        <pt x="1195" y="1397" on="0"/>
        <pt x="1195" y="1335" on="1"/>
        <pt x="1195" y="1325" on="0"/>
        <pt x="1194" y="1303" on="0"/>
        <pt x="1193" y="1291" on="1"/>
        <pt x="1190" y="1262" on="0"/>
        <pt x="1169" y="1159" on="0"/>
        <pt x="1133" y="1025" on="0"/>
        <pt x="1083" y="865" on="0"/>
        <pt x="1052" y="779" on="1"/>
        <pt x="1195" y="901" on="0"/>
        <pt x="1416" y="1083" on="0"/>
        <pt x="1583" y="1214" on="0"/>
        <pt x="1701" y="1299" on="0"/>
        <pt x="1782" y="1348" on="0"/>
        <pt x="1830" y="1368" on="0"/>
        <pt x="1844" y="1368" on="1"/>
        <pt x="1859" y="1368" on="0"/>
        <pt x="1881" y="1352" on="0"/>
        <pt x="1896" y="1330" on="0"/>
        <pt x="1903" y="1307" on="0"/>
        <pt x="1903" y="1300" on="1"/>
        <pt x="1903" y="1283" on="0"/>
        <pt x="1886" y="1252" on="0"/>
        <pt x="1869" y="1241" on="1"/>
        <pt x="1799" y="1192" on="0"/>
        <pt x="1645" y="1074" on="0"/>
        <pt x="1490" y="949" on="0"/>
        <pt x="1340" y="823" on="0"/>
        <pt x="1207" y="711" on="0"/>
        <pt x="1098" y="621" on="0"/>
        <pt x="1061" y="593" on="1"/>
        <pt x="1114" y="522" on="0"/>
        <pt x="1213" y="394" on="0"/>
        <pt x="1304" y="273" on="0"/>
        <pt x="1389" y="157" on="0"/>
        <pt x="1427" y="98" on="1"/>
        <pt x="1440" y="78" on="0"/>
        <pt x="1451" y="39" on="0"/>
        <pt x="1451" y="23" on="1"/>
        <pt x="1451" y="-4" on="0"/>
        <pt x="1427" y="-44" on="0"/>
        <pt x="1394" y="-70" on="0"/>
        <pt x="1359" y="-83" on="0"/>
        <pt x="1347" y="-83" on="1"/>
        <pt x="1314" y="-83" on="0"/>
        <pt x="1255" y="-36" on="0"/>
        <pt x="1234" y="0" on="1"/>
        <pt x="1203" y="41" on="0"/>
        <pt x="1162" y="99" on="0"/>
        <pt x="1128" y="150" on="0"/>
        <pt x="1095" y="204" on="0"/>
        <pt x="1046" y="281" on="0"/>
        <pt x="974" y="389" on="0"/>
        <pt x="920" y="469" on="1"/>
        <pt x="867" y="359" on="0"/>
        <pt x="746" y="159" on="0"/>
        <pt x="612" y="7" on="0"/>
        <pt x="466" y="-82" on="0"/>
        <pt x="389" y="-82" on="1"/>
        <pt x="362" y="-82" on="0"/>
        <pt x="311" y="-68" on="0"/>
      </contour>
    </TTGlyph>
    <TTGlyph name="L" xMin="136" yMin="-30" xMax="1489" yMax="1443">
      <contour>
        <pt x="326" y="209" on="1"/>
        <pt x="326" y="196" on="0"/>
        <pt x="354" y="169" on="0"/>
        <pt x="413" y="145" on="0"/>
        <pt x="506" y="130" on="0"/>
        <pt x="571" y="129" on="1"/>
        <pt x="541" y="145" on="0"/>
        <pt x="480" y="180" on="0"/>
        <pt x="424" y="209" on="0"/>
        <pt x="378" y="228" on="0"/>
        <pt x="362" y="228" on="1"/>
        <pt x="326" y="228" on="0"/>
      </contour>
      <contour>
        <pt x="1215" y="1322" on="1"/>
        <pt x="1230" y="1352" on="0"/>
        <pt x="1272" y="1398" on="0"/>
        <pt x="1320" y="1428" on="0"/>
        <pt x="1370" y="1443" on="0"/>
        <pt x="1392" y="1443" on="1"/>
        <pt x="1424" y="1443" on="0"/>
        <pt x="1468" y="1410" on="0"/>
        <pt x="1468" y="1378" on="1"/>
        <pt x="1468" y="1353" on="0"/>
        <pt x="1455" y="1324" on="1"/>
        <pt x="1399" y="1204" on="0"/>
        <pt x="1283" y="961" on="0"/>
        <pt x="1166" y="729" on="0"/>
        <pt x="1054" y="514" on="0"/>
        <pt x="950" y="330" on="0"/>
        <pt x="859" y="184" on="0"/>
        <pt x="822" y="136" on="1"/>
        <pt x="909" y="142" on="0"/>
        <pt x="1053" y="162" on="0"/>
        <pt x="1187" y="188" on="0"/>
        <pt x="1322" y="219" on="0"/>
        <pt x="1400" y="235" on="1"/>
        <pt x="1405" y="237" on="0"/>
        <pt x="1417" y="239" on="0"/>
        <pt x="1422" y="239" on="1"/>
        <pt x="1453" y="239" on="0"/>
        <pt x="1489" y="190" on="0"/>
        <pt x="1489" y="159" on="1"/>
        <pt x="1489" y="140" on="0"/>
        <pt x="1417" y="97" on="0"/>
        <pt x="1292" y="55" on="0"/>
        <pt x="1123" y="16" on="0"/>
        <pt x="927" y="-13" on="0"/>
        <pt x="713" y="-30" on="0"/>
        <pt x="607" y="-30" on="1"/>
        <pt x="484" y="-30" on="0"/>
        <pt x="306" y="4" on="0"/>
        <pt x="191" y="64" on="0"/>
        <pt x="136" y="146" on="0"/>
        <pt x="136" y="194" on="1"/>
        <pt x="136" y="241" on="0"/>
        <pt x="171" y="306" on="0"/>
        <pt x="232" y="346" on="0"/>
        <pt x="315" y="364" on="0"/>
        <pt x="363" y="364" on="1"/>
        <pt x="402" y="364" on="0"/>
        <pt x="486" y="336" on="0"/>
        <pt x="567" y="291" on="0"/>
        <pt x="640" y="236" on="0"/>
        <pt x="667" y="208" on="1"/>
        <pt x="690" y="268" on="0"/>
        <pt x="755" y="416" on="0"/>
        <pt x="831" y="579" on="0"/>
        <pt x="915" y="750" on="0"/>
        <pt x="999" y="916" on="0"/>
        <pt x="1079" y="1070" on="0"/>
        <pt x="1147" y="1198" on="0"/>
        <pt x="1200" y="1296" on="0"/>
      </contour>
    </TTGlyph>
    <TTGlyph name="Lslash" xMin="6" yMin="-30" xMax="1359" yMax="1443">
      <contour>
        <pt x="196" y="209" on="1"/>
        <pt x="196" y="196" on="0"/>
        <pt x="224" y="169" on="0"/>
        <pt x="283" y="145" on="0"/>
        <pt x="376" y="130" on="0"/>
        <pt x="441" y="129" on="1"/>
        <pt x="411" y="145" on="0"/>
        <pt x="350" y="180" on="0"/>
        <pt x="294" y="209" on="0"/>
        <pt x="248" y="228" on="0"/>
        <pt x="232" y="228" on="1"/>
        <pt x="196" y="228" on="0"/>
      </contour>
      <contour>
        <pt x="1085" y="1322" on="1"/>
        <pt x="1100" y="1352" on="0"/>
        <pt x="1142" y="1398" on="0"/>
        <pt x="1190" y="1428" on="0"/>
        <pt x="1240" y="1443" on="0"/>
        <pt x="1262" y="1443" on="1"/>
        <pt x="1294" y="1443" on="0"/>
        <pt x="1338" y="1410" on="0"/>
        <pt x="1338" y="1378" on="1"/>
        <pt x="1338" y="1353" on="0"/>
        <pt x="1325" y="1324" on="1"/>
        <pt x="1269" y="1204" on="0"/>
        <pt x="1211" y="1082" on="1"/>
        <pt x="1168" y="992" on="0"/>
        <pt x="1125" y="906" on="1"/>
        <pt x="1178" y="920" on="0"/>
        <pt x="1222" y="932" on="1"/>
        <pt x="1274" y="946" on="0"/>
        <pt x="1308" y="955" on="1"/>
        <pt x="1311" y="956" on="0"/>
        <pt x="1316" y="956" on="1"/>
        <pt x="1334" y="956" on="0"/>
        <pt x="1359" y="922" on="0"/>
        <pt x="1359" y="900" on="1"/>
        <pt x="1359" y="879" on="0"/>
        <pt x="1330" y="838" on="0"/>
        <pt x="1295" y="829" on="1"/>
        <pt x="1259" y="819" on="0"/>
        <pt x="1206" y="805" on="1"/>
        <pt x="1153" y="790" on="0"/>
        <pt x="1092" y="774" on="1"/>
        <pt x="1073" y="769" on="0"/>
        <pt x="1053" y="764" on="1"/>
        <pt x="1016" y="692" on="0"/>
        <pt x="980" y="622" on="1"/>
        <pt x="924" y="514" on="0"/>
        <pt x="820" y="330" on="0"/>
        <pt x="729" y="184" on="0"/>
        <pt x="692" y="136" on="1"/>
        <pt x="779" y="142" on="0"/>
        <pt x="923" y="162" on="0"/>
        <pt x="1057" y="188" on="0"/>
        <pt x="1192" y="219" on="0"/>
        <pt x="1270" y="235" on="1"/>
        <pt x="1275" y="237" on="0"/>
        <pt x="1287" y="239" on="0"/>
        <pt x="1292" y="239" on="1"/>
        <pt x="1323" y="239" on="0"/>
        <pt x="1359" y="190" on="0"/>
        <pt x="1359" y="159" on="1"/>
        <pt x="1359" y="140" on="0"/>
        <pt x="1287" y="97" on="0"/>
        <pt x="1162" y="55" on="0"/>
        <pt x="993" y="16" on="0"/>
        <pt x="797" y="-13" on="0"/>
        <pt x="583" y="-30" on="0"/>
        <pt x="477" y="-30" on="1"/>
        <pt x="354" y="-30" on="0"/>
        <pt x="176" y="4" on="0"/>
        <pt x="61" y="64" on="0"/>
        <pt x="6" y="146" on="0"/>
        <pt x="6" y="194" on="1"/>
        <pt x="6" y="241" on="0"/>
        <pt x="41" y="306" on="0"/>
        <pt x="102" y="346" on="0"/>
        <pt x="185" y="364" on="0"/>
        <pt x="233" y="364" on="1"/>
        <pt x="272" y="364" on="0"/>
        <pt x="356" y="336" on="0"/>
        <pt x="437" y="291" on="0"/>
        <pt x="510" y="236" on="0"/>
        <pt x="537" y="208" on="1"/>
        <pt x="560" y="268" on="0"/>
        <pt x="625" y="416" on="0"/>
        <pt x="663" y="498" on="1"/>
        <pt x="701" y="578" on="0"/>
        <pt x="743" y="664" on="1"/>
        <pt x="751" y="680" on="0"/>
        <pt x="752" y="683" on="1"/>
        <pt x="738" y="679" on="0"/>
        <pt x="725" y="676" on="1"/>
        <pt x="672" y="662" on="0"/>
        <pt x="636" y="652" on="1"/>
        <pt x="633" y="651" on="0"/>
        <pt x="626" y="651" on="1"/>
        <pt x="610" y="651" on="0"/>
        <pt x="590" y="680" on="0"/>
        <pt x="590" y="700" on="1"/>
        <pt x="590" y="723" on="0"/>
        <pt x="623" y="771" on="0"/>
        <pt x="665" y="782" on="1"/>
        <pt x="700" y="791" on="0"/>
        <pt x="752" y="805" on="1"/>
        <pt x="786" y="814" on="0"/>
        <pt x="823" y="824" on="1"/>
        <pt x="825" y="828" on="0"/>
        <pt x="827" y="833" on="1"/>
        <pt x="869" y="916" on="0"/>
        <pt x="949" y="1070" on="0"/>
        <pt x="1017" y="1198" on="0"/>
        <pt x="1070" y="1296" on="0"/>
      </contour>
    </TTGlyph>
    <TTGlyph name="M" xMin="180" yMin="-29" xMax="1803" yMax="1443">
      <contour>
        <pt x="1485" y="71" on="1"/>
        <pt x="1494" y="157" on="0"/>
        <pt x="1520" y="383" on="0"/>
        <pt x="1550" y="630" on="0"/>
        <pt x="1581" y="880" on="0"/>
        <pt x="1596" y="989" on="1"/>
        <pt x="1543" y="887" on="0"/>
        <pt x="1435" y="681" on="0"/>
        <pt x="1338" y="496" on="0"/>
        <pt x="1257" y="346" on="0"/>
        <pt x="1232" y="300" on="1"/>
        <pt x="1209" y="269" on="0"/>
        <pt x="1163" y="213" on="0"/>
        <pt x="1118" y="171" on="0"/>
        <pt x="1074" y="146" on="0"/>
        <pt x="1053" y="146" on="1"/>
        <pt x="1025" y="146" on="0"/>
        <pt x="992" y="170" on="0"/>
        <pt x="992" y="194" on="1"/>
        <pt x="992" y="199" on="0"/>
        <pt x="993" y="208" on="0"/>
        <pt x="995" y="213" on="1"/>
        <pt x="989" y="355" on="0"/>
        <pt x="983" y="644" on="0"/>
        <pt x="983" y="784" on="1"/>
        <pt x="983" y="817" on="0"/>
        <pt x="983" y="883" on="0"/>
        <pt x="984" y="915" on="1"/>
        <pt x="944" y="825" on="0"/>
        <pt x="850" y="631" on="0"/>
        <pt x="748" y="442" on="0"/>
        <pt x="640" y="267" on="0"/>
        <pt x="532" y="124" on="0"/>
        <pt x="427" y="23" on="0"/>
        <pt x="379" y="3" on="1"/>
        <pt x="337" y="-14" on="0"/>
        <pt x="275" y="-29" on="0"/>
        <pt x="251" y="-29" on="1"/>
        <pt x="215" y="-29" on="0"/>
        <pt x="180" y="0" on="0"/>
        <pt x="180" y="21" on="1"/>
        <pt x="180" y="46" on="0"/>
        <pt x="222" y="100" on="0"/>
        <pt x="260" y="115" on="1"/>
        <pt x="306" y="133" on="0"/>
        <pt x="415" y="256" on="0"/>
        <pt x="531" y="432" on="0"/>
        <pt x="649" y="648" on="0"/>
        <pt x="760" y="870" on="0"/>
        <pt x="858" y="1083" on="0"/>
        <pt x="934" y="1255" on="0"/>
        <pt x="983" y="1370" on="0"/>
        <pt x="989" y="1384" on="1"/>
        <pt x="1003" y="1415" on="0"/>
        <pt x="1053" y="1443" on="0"/>
        <pt x="1079" y="1443" on="1"/>
        <pt x="1115" y="1443" on="0"/>
        <pt x="1143" y="1404" on="0"/>
        <pt x="1143" y="1354" on="1"/>
        <pt x="1151" y="1291" on="0"/>
        <pt x="1162" y="1180" on="0"/>
        <pt x="1170" y="1063" on="0"/>
        <pt x="1173" y="928" on="0"/>
        <pt x="1173" y="840" on="1"/>
        <pt x="1173" y="777" on="0"/>
        <pt x="1168" y="625" on="0"/>
        <pt x="1168" y="531" on="1"/>
        <pt x="1288" y="749" on="0"/>
        <pt x="1473" y="1082" on="0"/>
        <pt x="1610" y="1307" on="0"/>
        <pt x="1704" y="1422" on="0"/>
        <pt x="1732" y="1422" on="1"/>
        <pt x="1739" y="1422" on="1"/>
        <pt x="1742" y="1422" on="0"/>
        <pt x="1748" y="1423" on="0"/>
        <pt x="1751" y="1423" on="1"/>
        <pt x="1775" y="1423" on="0"/>
        <pt x="1803" y="1363" on="0"/>
        <pt x="1803" y="1315" on="1"/>
        <pt x="1799" y="1266" on="0"/>
        <pt x="1783" y="1120" on="0"/>
        <pt x="1762" y="945" on="0"/>
        <pt x="1738" y="751" on="0"/>
        <pt x="1714" y="560" on="0"/>
        <pt x="1693" y="380" on="0"/>
        <pt x="1686" y="307" on="1"/>
        <pt x="1684" y="294" on="0"/>
        <pt x="1684" y="267" on="0"/>
        <pt x="1684" y="253" on="1"/>
        <pt x="1684" y="227" on="0"/>
        <pt x="1686" y="174" on="0"/>
        <pt x="1686" y="148" on="1"/>
        <pt x="1686" y="118" on="0"/>
        <pt x="1680" y="57" on="0"/>
        <pt x="1653" y="8" on="0"/>
        <pt x="1595" y="-23" on="0"/>
        <pt x="1544" y="-23" on="1"/>
        <pt x="1517" y="-23" on="0"/>
        <pt x="1485" y="18" on="0"/>
      </contour>
    </TTGlyph>
    <TTGlyph name="N" xMin="108" yMin="-82" xMax="2046" yMax="1458">
      <contour>
        <pt x="1065" y="1347" on="1"/>
        <pt x="1081" y="1278" on="0"/>
        <pt x="1113" y="1114" on="0"/>
        <pt x="1144" y="937" on="0"/>
        <pt x="1175" y="754" on="0"/>
        <pt x="1206" y="577" on="0"/>
        <pt x="1235" y="412" on="0"/>
        <pt x="1250" y="342" on="1"/>
        <pt x="1351" y="541" on="0"/>
        <pt x="1538" y="897" on="0"/>
        <pt x="1700" y="1180" on="0"/>
        <pt x="1832" y="1379" on="0"/>
        <pt x="1880" y="1422" on="1"/>
        <pt x="1901" y="1442" on="0"/>
        <pt x="1947" y="1458" on="0"/>
        <pt x="1969" y="1458" on="1"/>
        <pt x="2001" y="1458" on="0"/>
        <pt x="2046" y="1426" on="0"/>
        <pt x="2046" y="1401" on="1"/>
        <pt x="2046" y="1386" on="0"/>
        <pt x="2036" y="1366" on="0"/>
        <pt x="2025" y="1354" on="1"/>
        <pt x="1984" y="1307" on="0"/>
        <pt x="1912" y="1228" on="0"/>
        <pt x="1843" y="1141" on="0"/>
        <pt x="1774" y="1033" on="0"/>
        <pt x="1737" y="958" on="1"/>
        <pt x="1692" y="875" on="0"/>
        <pt x="1602" y="700" on="0"/>
        <pt x="1518" y="527" on="0"/>
        <pt x="1441" y="365" on="0"/>
        <pt x="1377" y="228" on="0"/>
        <pt x="1325" y="121" on="0"/>
        <pt x="1308" y="91" on="1"/>
        <pt x="1279" y="29" on="0"/>
        <pt x="1204" y="-31" on="0"/>
        <pt x="1173" y="-32" on="1"/>
        <pt x="1166" y="-32" on="1"/>
        <pt x="1146" y="-31" on="0"/>
        <pt x="1108" y="-17" on="0"/>
        <pt x="1076" y="11" on="0"/>
        <pt x="1053" y="54" on="0"/>
        <pt x="1049" y="83" on="1"/>
        <pt x="1033" y="146" on="0"/>
        <pt x="1008" y="267" on="0"/>
        <pt x="986" y="394" on="0"/>
        <pt x="963" y="533" on="0"/>
        <pt x="937" y="697" on="0"/>
        <pt x="904" y="891" on="0"/>
        <pt x="882" y="1009" on="1"/>
        <pt x="852" y="909" on="0"/>
        <pt x="766" y="670" on="0"/>
        <pt x="662" y="427" on="0"/>
        <pt x="542" y="200" on="0"/>
        <pt x="410" y="24" on="0"/>
        <pt x="271" y="-82" on="0"/>
        <pt x="201" y="-82" on="1"/>
        <pt x="189" y="-82" on="0"/>
        <pt x="157" y="-71" on="0"/>
        <pt x="128" y="-50" on="0"/>
        <pt x="108" y="-20" on="0"/>
        <pt x="108" y="-2" on="1"/>
        <pt x="108" y="12" on="0"/>
        <pt x="119" y="35" on="0"/>
        <pt x="129" y="51" on="1"/>
        <pt x="142" y="72" on="0"/>
        <pt x="198" y="103" on="0"/>
        <pt x="271" y="141" on="0"/>
        <pt x="357" y="192" on="0"/>
        <pt x="400" y="234" on="1"/>
        <pt x="424" y="257" on="0"/>
        <pt x="490" y="376" on="0"/>
        <pt x="567" y="539" on="0"/>
        <pt x="650" y="734" on="0"/>
        <pt x="730" y="932" on="0"/>
        <pt x="802" y="1121" on="0"/>
        <pt x="859" y="1272" on="0"/>
        <pt x="895" y="1373" on="0"/>
        <pt x="899" y="1384" on="1"/>
        <pt x="909" y="1414" on="0"/>
        <pt x="954" y="1442" on="0"/>
        <pt x="980" y="1443" on="1"/>
        <pt x="979" y="1443" on="0"/>
        <pt x="978" y="1442" on="1"/>
        <pt x="981" y="1442" on="0"/>
        <pt x="988" y="1443" on="0"/>
        <pt x="991" y="1443" on="1"/>
        <pt x="1013" y="1443" on="0"/>
        <pt x="1056" y="1400" on="0"/>
      </contour>
    </TTGlyph>
    <TTGlyph name="N.alt" xMin="-145" yMin="-82" xMax="1637" yMax="1405">
      <contour>
        <pt x="741" y="1294" on="1"/>
        <pt x="764" y="1207" on="0"/>
        <pt x="816" y="1006" on="0"/>
        <pt x="870" y="795" on="0"/>
        <pt x="923" y="582" on="0"/>
        <pt x="947" y="484" on="1"/>
        <pt x="965" y="409" on="0"/>
        <pt x="982" y="342" on="1"/>
        <pt x="1024" y="450" on="0"/>
        <pt x="1064" y="550" on="1"/>
        <pt x="1148" y="762" on="0"/>
        <pt x="1295" y="1094" on="0"/>
        <pt x="1418" y="1319" on="0"/>
        <pt x="1467" y="1369" on="1"/>
        <pt x="1486" y="1389" on="0"/>
        <pt x="1530" y="1405" on="0"/>
        <pt x="1552" y="1405" on="1"/>
        <pt x="1586" y="1405" on="0"/>
        <pt x="1637" y="1369" on="0"/>
        <pt x="1637" y="1341" on="1"/>
        <pt x="1637" y="1321" on="0"/>
        <pt x="1621" y="1301" on="1"/>
        <pt x="1586" y="1253" on="0"/>
        <pt x="1523" y="1175" on="0"/>
        <pt x="1464" y="1088" on="0"/>
        <pt x="1408" y="981" on="0"/>
        <pt x="1381" y="905" on="1"/>
        <pt x="1328" y="781" on="0"/>
        <pt x="1232" y="530" on="0"/>
        <pt x="1152" y="310" on="0"/>
        <pt x="1090" y="137" on="0"/>
        <pt x="1070" y="91" on="1"/>
        <pt x="1049" y="29" on="0"/>
        <pt x="981" y="-32" on="0"/>
        <pt x="950" y="-32" on="1"/>
        <pt x="949" y="-32" on="0"/>
        <pt x="948" y="-32" on="0"/>
        <pt x="947" y="-32" on="1"/>
        <pt x="907" y="-32" on="0"/>
        <pt x="829" y="23" on="0"/>
        <pt x="812" y="83" on="1"/>
        <pt x="793" y="150" on="0"/>
        <pt x="762" y="268" on="0"/>
        <pt x="731" y="390" on="0"/>
        <pt x="698" y="524" on="0"/>
        <pt x="660" y="690" on="0"/>
        <pt x="636" y="793" on="1"/>
        <pt x="619" y="867" on="0"/>
        <pt x="600" y="956" on="1"/>
        <pt x="600" y="955" on="0"/>
        <pt x="599" y="953" on="1"/>
        <pt x="581" y="853" on="0"/>
        <pt x="526" y="622" on="0"/>
        <pt x="454" y="392" on="0"/>
        <pt x="365" y="179" on="0"/>
        <pt x="258" y="16" on="0"/>
        <pt x="134" y="-82" on="0"/>
        <pt x="63" y="-82" on="1"/>
        <pt x="7" y="-82" on="0"/>
        <pt x="-40" y="-54" on="1"/>
        <pt x="-55" y="-48" on="0"/>
        <pt x="-91" y="-13" on="0"/>
        <pt x="-123" y="35" on="0"/>
        <pt x="-145" y="92" on="0"/>
        <pt x="-145" y="121" on="1"/>
        <pt x="-145" y="154" on="0"/>
        <pt x="-123" y="187" on="1"/>
        <pt x="-118" y="194" on="0"/>
        <pt x="-103" y="216" on="0"/>
        <pt x="-83" y="237" on="0"/>
        <pt x="-58" y="251" on="0"/>
        <pt x="-43" y="251" on="1"/>
        <pt x="-29" y="251" on="0"/>
        <pt x="-19" y="244" on="1"/>
        <pt x="-9" y="238" on="0"/>
        <pt x="13" y="196" on="0"/>
        <pt x="39" y="151" on="0"/>
        <pt x="70" y="115" on="0"/>
        <pt x="89" y="115" on="1"/>
        <pt x="123" y="115" on="0"/>
        <pt x="192" y="179" on="0"/>
        <pt x="259" y="290" on="0"/>
        <pt x="323" y="438" on="0"/>
        <pt x="383" y="606" on="0"/>
        <pt x="437" y="786" on="0"/>
        <pt x="484" y="958" on="0"/>
        <pt x="523" y="1115" on="0"/>
        <pt x="551" y="1239" on="0"/>
        <pt x="569" y="1320" on="0"/>
        <pt x="571" y="1331" on="1"/>
        <pt x="578" y="1362" on="0"/>
        <pt x="620" y="1390" on="0"/>
        <pt x="646" y="1390" on="1"/>
        <pt x="651" y="1390" on="0"/>
        <pt x="656" y="1390" on="1"/>
        <pt x="678" y="1390" on="0"/>
        <pt x="726" y="1347" on="0"/>
      </contour>
    </TTGlyph>
    <TTGlyph name="Ntilde" xMin="108" yMin="-82" xMax="2046" yMax="1744">
      <component glyphName="N" x="0" y="0" flags="0x1204"/>
      <component glyphName="tilde" x="362" y="709" flags="0x1004"/>
    </TTGlyph>
    <TTGlyph name="O" xMin="235" yMin="-23" xMax="1652" yMax="1443">
      <contour>
        <pt x="235" y="459" on="1"/>
        <pt x="235" y="605" on="0"/>
        <pt x="322" y="864" on="0"/>
        <pt x="469" y="1083" on="0"/>
        <pt x="662" y="1257" on="0"/>
        <pt x="873" y="1378" on="0"/>
        <pt x="1090" y="1443" on="0"/>
        <pt x="1188" y="1443" on="1"/>
        <pt x="1275" y="1443" on="0"/>
        <pt x="1432" y="1403" on="0"/>
        <pt x="1555" y="1321" on="0"/>
        <pt x="1637" y="1196" on="0"/>
        <pt x="1651" y="1112" on="1"/>
        <pt x="1652" y="1107" on="0"/>
        <pt x="1652" y="1099" on="0"/>
        <pt x="1652" y="1094" on="1"/>
        <pt x="1652" y="1055" on="0"/>
        <pt x="1607" y="1014" on="0"/>
        <pt x="1581" y="1014" on="1"/>
        <pt x="1552" y="1014" on="0"/>
        <pt x="1502" y="1076" on="0"/>
        <pt x="1479" y="1133" on="1"/>
        <pt x="1442" y="1203" on="0"/>
        <pt x="1302" y="1267" on="0"/>
        <pt x="1214" y="1267" on="1"/>
        <pt x="1137" y="1267" on="0"/>
        <pt x="968" y="1211" on="0"/>
        <pt x="803" y="1109" on="0"/>
        <pt x="653" y="966" on="0"/>
        <pt x="539" y="793" on="0"/>
        <pt x="472" y="593" on="0"/>
        <pt x="472" y="486" on="1"/>
        <pt x="472" y="397" on="0"/>
        <pt x="516" y="275" on="0"/>
        <pt x="588" y="199" on="0"/>
        <pt x="678" y="165" on="0"/>
        <pt x="724" y="165" on="1"/>
        <pt x="827" y="165" on="0"/>
        <pt x="1014" y="277" on="0"/>
        <pt x="1156" y="486" on="0"/>
        <pt x="1240" y="787" on="0"/>
        <pt x="1240" y="976" on="1"/>
        <pt x="1240" y="995" on="0"/>
        <pt x="1239" y="1032" on="0"/>
        <pt x="1239" y="1052" on="1"/>
        <pt x="1239" y="1102" on="0"/>
        <pt x="1275" y="1149" on="0"/>
        <pt x="1298" y="1149" on="1"/>
        <pt x="1337" y="1149" on="0"/>
        <pt x="1386" y="1106" on="0"/>
        <pt x="1414" y="1035" on="0"/>
        <pt x="1425" y="944" on="0"/>
        <pt x="1425" y="896" on="1"/>
        <pt x="1425" y="760" on="0"/>
        <pt x="1367" y="519" on="0"/>
        <pt x="1264" y="314" on="0"/>
        <pt x="1123" y="151" on="0"/>
        <pt x="959" y="38" on="0"/>
        <pt x="778" y="-23" on="0"/>
        <pt x="686" y="-23" on="1"/>
        <pt x="601" y="-23" on="0"/>
        <pt x="439" y="26" on="0"/>
        <pt x="312" y="139" on="0"/>
        <pt x="235" y="324" on="0"/>
      </contour>
    </TTGlyph>
    <TTGlyph name="OE" xMin="199" yMin="-38" xMax="1867" yMax="1443">
      <contour>
        <pt x="436" y="486" on="1"/>
        <pt x="436" y="396" on="0"/>
        <pt x="519" y="268" on="0"/>
        <pt x="655" y="187" on="0"/>
        <pt x="832" y="150" on="0"/>
        <pt x="926" y="150" on="1"/>
        <pt x="1173" y="1267" on="1"/>
        <pt x="1096" y="1266" on="0"/>
        <pt x="927" y="1209" on="0"/>
        <pt x="764" y="1106" on="0"/>
        <pt x="615" y="964" on="0"/>
        <pt x="503" y="791" on="0"/>
        <pt x="436" y="593" on="0"/>
      </contour>
      <contour>
        <pt x="1508" y="825" on="1"/>
        <pt x="1565" y="825" on="0"/>
        <pt x="1622" y="795" on="0"/>
        <pt x="1622" y="774" on="1"/>
        <pt x="1622" y="754" on="0"/>
        <pt x="1601" y="726" on="0"/>
        <pt x="1566" y="706" on="0"/>
        <pt x="1519" y="693" on="0"/>
        <pt x="1494" y="688" on="1"/>
        <pt x="1467" y="683" on="0"/>
        <pt x="1326" y="679" on="0"/>
        <pt x="1217" y="679" on="1"/>
        <pt x="1083" y="129" on="1"/>
        <pt x="1214" y="129" on="0"/>
        <pt x="1388" y="160" on="0"/>
        <pt x="1505" y="207" on="0"/>
        <pt x="1580" y="261" on="0"/>
        <pt x="1645" y="308" on="0"/>
        <pt x="1714" y="339" on="0"/>
        <pt x="1766" y="339" on="1"/>
        <pt x="1808" y="339" on="0"/>
        <pt x="1856" y="298" on="0"/>
        <pt x="1856" y="260" on="1"/>
        <pt x="1856" y="234" on="0"/>
        <pt x="1800" y="170" on="0"/>
        <pt x="1693" y="103" on="0"/>
        <pt x="1539" y="41" on="0"/>
        <pt x="1344" y="-8" on="0"/>
        <pt x="1110" y="-38" on="0"/>
        <pt x="977" y="-38" on="1"/>
        <pt x="810" y="-38" on="0"/>
        <pt x="525" y="15" on="0"/>
        <pt x="317" y="133" on="0"/>
        <pt x="199" y="322" on="0"/>
        <pt x="199" y="459" on="1"/>
        <pt x="199" y="605" on="0"/>
        <pt x="292" y="864" on="0"/>
        <pt x="453" y="1083" on="0"/>
        <pt x="668" y="1257" on="0"/>
        <pt x="912" y="1378" on="0"/>
        <pt x="1171" y="1443" on="0"/>
        <pt x="1295" y="1443" on="1"/>
        <pt x="1418" y="1443" on="0"/>
        <pt x="1619" y="1409" on="0"/>
        <pt x="1767" y="1337" on="0"/>
        <pt x="1856" y="1227" on="0"/>
        <pt x="1867" y="1152" on="1"/>
        <pt x="1867" y="1141" on="1"/>
        <pt x="1867" y="1121" on="0"/>
        <pt x="1843" y="1081" on="0"/>
        <pt x="1800" y="1048" on="0"/>
        <pt x="1742" y="1027" on="0"/>
        <pt x="1708" y="1027" on="1"/>
        <pt x="1687" y="1027" on="0"/>
        <pt x="1662" y="1037" on="0"/>
        <pt x="1650" y="1055" on="0"/>
        <pt x="1646" y="1079" on="0"/>
        <pt x="1646" y="1093" on="1"/>
        <pt x="1646" y="1124" on="1"/>
        <pt x="1646" y="1133" on="0"/>
        <pt x="1646" y="1152" on="0"/>
        <pt x="1644" y="1161" on="1"/>
        <pt x="1641" y="1191" on="0"/>
        <pt x="1592" y="1233" on="0"/>
        <pt x="1512" y="1261" on="0"/>
        <pt x="1408" y="1274" on="0"/>
        <pt x="1350" y="1274" on="1"/>
        <pt x="1259" y="825" on="1"/>
      </contour>
    </TTGlyph>
    <TTGlyph name="Oacute" xMin="235" yMin="-23" xMax="1652" yMax="2022">
      <component glyphName="O" x="0" y="0" flags="0x1204"/>
      <component glyphName="acute" x="721" y="715" flags="0x1004"/>
    </TTGlyph>
    <TTGlyph name="Ocircumflex" xMin="235" yMin="-23" xMax="1652" yMax="1901">
      <component glyphName="O" x="0" y="0" flags="0x1204"/>
      <component glyphName="circumflex" x="136" y="702" flags="0x1004"/>
    </TTGlyph>
    <TTGlyph name="Odieresis" xMin="235" yMin="-23" xMax="1652" yMax="1781">
      <component glyphName="O" x="0" y="0" flags="0x1204"/>
      <component glyphName="dieresis" x="336" y="669" flags="0x1004"/>
    </TTGlyph>
    <TTGlyph name="Ograve" xMin="235" yMin="-23" xMax="1652" yMax="2015">
      <component glyphName="O" x="0" y="0" flags="0x1204"/>
      <component glyphName="grave" x="688" y="708" flags="0x1004"/>
    </TTGlyph>
    <TTGlyph name="Oslash" xMin="-44" yMin="-139" xMax="1510" yMax="1527">
      <contour>
        <pt x="396" y="214" on="1"/>
        <pt x="428" y="188" on="0"/>
        <pt x="504" y="165" on="0"/>
        <pt x="543" y="165" on="1"/>
        <pt x="643" y="165" on="0"/>
        <pt x="827" y="272" on="0"/>
        <pt x="968" y="473" on="0"/>
        <pt x="1055" y="761" on="0"/>
        <pt x="1059" y="943" on="1"/>
      </contour>
      <contour>
        <pt x="312" y="339" on="1"/>
        <pt x="413" y="452" on="0"/>
        <pt x="622" y="684" on="0"/>
        <pt x="831" y="917" on="0"/>
        <pt x="1037" y="1145" on="0"/>
        <pt x="1135" y="1255" on="1"/>
        <pt x="1088" y="1267" on="0"/>
        <pt x="1033" y="1267" on="1"/>
        <pt x="956" y="1267" on="0"/>
        <pt x="787" y="1211" on="0"/>
        <pt x="622" y="1109" on="0"/>
        <pt x="472" y="966" on="0"/>
        <pt x="358" y="793" on="0"/>
        <pt x="291" y="593" on="0"/>
        <pt x="291" y="486" on="1"/>
        <pt x="291" y="400" on="0"/>
      </contour>
      <contour>
        <pt x="54" y="459" on="1"/>
        <pt x="54" y="605" on="0"/>
        <pt x="141" y="864" on="0"/>
        <pt x="288" y="1083" on="0"/>
        <pt x="481" y="1257" on="0"/>
        <pt x="692" y="1378" on="0"/>
        <pt x="909" y="1443" on="0"/>
        <pt x="1007" y="1443" on="1"/>
        <pt x="1076" y="1443" on="0"/>
        <pt x="1204" y="1418" on="0"/>
        <pt x="1258" y="1392" on="1"/>
        <pt x="1353" y="1498" on="1"/>
        <pt x="1379" y="1527" on="0"/>
        <pt x="1419" y="1527" on="1"/>
        <pt x="1435" y="1527" on="0"/>
        <pt x="1468" y="1516" on="0"/>
        <pt x="1494" y="1497" on="0"/>
        <pt x="1510" y="1472" on="0"/>
        <pt x="1510" y="1458" on="1"/>
        <pt x="1510" y="1447" on="0"/>
        <pt x="1506" y="1439" on="1"/>
        <pt x="1503" y="1432" on="1"/>
        <pt x="1383" y="1300" on="1"/>
        <pt x="1399" y="1281" on="0"/>
        <pt x="1431" y="1234" on="0"/>
        <pt x="1456" y="1181" on="0"/>
        <pt x="1471" y="1124" on="0"/>
        <pt x="1471" y="1094" on="1"/>
        <pt x="1471" y="1055" on="0"/>
        <pt x="1426" y="1014" on="0"/>
        <pt x="1400" y="1014" on="1"/>
        <pt x="1371" y="1014" on="0"/>
        <pt x="1321" y="1076" on="0"/>
        <pt x="1298" y="1133" on="1"/>
        <pt x="1287" y="1154" on="0"/>
        <pt x="1269" y="1175" on="1"/>
        <pt x="1203" y="1101" on="1"/>
        <pt x="1226" y="1065" on="0"/>
        <pt x="1244" y="956" on="0"/>
        <pt x="1244" y="896" on="1"/>
        <pt x="1244" y="760" on="0"/>
        <pt x="1186" y="519" on="0"/>
        <pt x="1083" y="314" on="0"/>
        <pt x="942" y="151" on="0"/>
        <pt x="778" y="38" on="0"/>
        <pt x="597" y="-23" on="0"/>
        <pt x="505" y="-23" on="1"/>
        <pt x="435" y="-23" on="0"/>
        <pt x="301" y="10" on="0"/>
        <pt x="243" y="46" on="1"/>
        <pt x="208" y="7" on="0"/>
        <pt x="137" y="-70" on="0"/>
        <pt x="104" y="-108" on="1"/>
        <pt x="77" y="-139" on="0"/>
        <pt x="40" y="-139" on="1"/>
        <pt x="24" y="-139" on="0"/>
        <pt x="-6" y="-128" on="0"/>
        <pt x="-30" y="-110" on="0"/>
        <pt x="-44" y="-87" on="0"/>
        <pt x="-44" y="-75" on="1"/>
        <pt x="-44" y="-67" on="0"/>
        <pt x="-39" y="-52" on="0"/>
        <pt x="-34" y="-47" on="1"/>
        <pt x="8" y="0" on="0"/>
        <pt x="93" y="95" on="0"/>
        <pt x="138" y="146" on="1"/>
        <pt x="99" y="202" on="0"/>
        <pt x="54" y="356" on="0"/>
      </contour>
    </TTGlyph>
    <TTGlyph name="Otilde" xMin="235" yMin="-23" xMax="1652" yMax="1770">
      <component glyphName="O" x="0" y="0" flags="0x1204"/>
      <component glyphName="tilde" x="202" y="735" flags="0x1004"/>
    </TTGlyph>
    <TTGlyph name="P" xMin="239" yMin="-38" xMax="1488" yMax="1442">
      <contour>
        <pt x="763" y="537" on="1"/>
        <pt x="744" y="495" on="0"/>
        <pt x="698" y="377" on="0"/>
        <pt x="644" y="249" on="0"/>
        <pt x="583" y="123" on="0"/>
        <pt x="516" y="24" on="0"/>
        <pt x="445" y="-38" on="0"/>
        <pt x="408" y="-38" on="1"/>
        <pt x="377" y="-38" on="0"/>
        <pt x="337" y="-19" on="0"/>
        <pt x="315" y="10" on="0"/>
        <pt x="306" y="45" on="0"/>
        <pt x="306" y="61" on="1"/>
        <pt x="306" y="85" on="0"/>
        <pt x="321" y="135" on="0"/>
        <pt x="332" y="156" on="1"/>
        <pt x="715" y="861" on="1"/>
        <pt x="740" y="905" on="0"/>
        <pt x="785" y="955" on="0"/>
        <pt x="824" y="979" on="0"/>
        <pt x="854" y="984" on="0"/>
        <pt x="864" y="984" on="1"/>
        <pt x="882" y="984" on="0"/>
        <pt x="912" y="959" on="0"/>
        <pt x="912" y="926" on="1"/>
        <pt x="912" y="894" on="0"/>
        <pt x="878" y="782" on="0"/>
        <pt x="832" y="694" on="1"/>
        <pt x="910" y="700" on="0"/>
        <pt x="1062" y="741" on="0"/>
        <pt x="1183" y="813" on="0"/>
        <pt x="1257" y="916" on="0"/>
        <pt x="1257" y="984" on="1"/>
        <pt x="1257" y="1044" on="0"/>
        <pt x="1218" y="1153" on="0"/>
        <pt x="1143" y="1236" on="0"/>
        <pt x="1033" y="1285" on="0"/>
        <pt x="961" y="1285" on="1"/>
        <pt x="863" y="1285" on="0"/>
        <pt x="722" y="1248" on="0"/>
        <pt x="621" y="1188" on="0"/>
        <pt x="553" y="1110" on="0"/>
        <pt x="504" y="1030" on="0"/>
        <pt x="466" y="952" on="0"/>
        <pt x="425" y="892" on="0"/>
        <pt x="373" y="855" on="0"/>
        <pt x="335" y="855" on="1"/>
        <pt x="286" y="855" on="0"/>
        <pt x="239" y="905" on="0"/>
        <pt x="239" y="997" on="0"/>
        <pt x="289" y="1106" on="0"/>
        <pt x="381" y="1216" on="0"/>
        <pt x="512" y="1317" on="0"/>
        <pt x="676" y="1395" on="0"/>
        <pt x="869" y="1442" on="0"/>
        <pt x="976" y="1442" on="1"/>
        <pt x="1076" y="1442" on="0"/>
        <pt x="1261" y="1385" on="0"/>
        <pt x="1403" y="1271" on="0"/>
        <pt x="1488" y="1100" on="0"/>
        <pt x="1488" y="985" on="1"/>
        <pt x="1488" y="880" on="0"/>
        <pt x="1387" y="711" on="0"/>
        <pt x="1216" y="594" on="0"/>
        <pt x="992" y="531" on="0"/>
        <pt x="868" y="531" on="1"/>
        <pt x="842" y="531" on="0"/>
        <pt x="789" y="533" on="0"/>
      </contour>
    </TTGlyph>
    <TTGlyph name="Q" xMin="210" yMin="-427" xMax="1627" yMax="1443">
      <contour>
        <pt x="210" y="459" on="1"/>
        <pt x="210" y="605" on="0"/>
        <pt x="297" y="864" on="0"/>
        <pt x="444" y="1083" on="0"/>
        <pt x="637" y="1257" on="0"/>
        <pt x="848" y="1378" on="0"/>
        <pt x="1065" y="1443" on="0"/>
        <pt x="1163" y="1443" on="1"/>
        <pt x="1250" y="1443" on="0"/>
        <pt x="1407" y="1403" on="0"/>
        <pt x="1530" y="1321" on="0"/>
        <pt x="1612" y="1196" on="0"/>
        <pt x="1626" y="1112" on="1"/>
        <pt x="1627" y="1107" on="0"/>
        <pt x="1627" y="1099" on="0"/>
        <pt x="1627" y="1094" on="1"/>
        <pt x="1627" y="1055" on="0"/>
        <pt x="1582" y="1014" on="0"/>
        <pt x="1556" y="1014" on="1"/>
        <pt x="1527" y="1014" on="0"/>
        <pt x="1477" y="1076" on="0"/>
        <pt x="1454" y="1133" on="1"/>
        <pt x="1417" y="1203" on="0"/>
        <pt x="1277" y="1267" on="0"/>
        <pt x="1189" y="1267" on="1"/>
        <pt x="1112" y="1267" on="0"/>
        <pt x="943" y="1211" on="0"/>
        <pt x="778" y="1109" on="0"/>
        <pt x="628" y="966" on="0"/>
        <pt x="514" y="793" on="0"/>
        <pt x="447" y="593" on="0"/>
        <pt x="447" y="486" on="1"/>
        <pt x="447" y="397" on="0"/>
        <pt x="491" y="275" on="0"/>
        <pt x="563" y="199" on="0"/>
        <pt x="653" y="165" on="0"/>
        <pt x="699" y="165" on="1"/>
        <pt x="704" y="165" on="1"/>
        <pt x="701" y="176" on="0"/>
        <pt x="698" y="199" on="0"/>
        <pt x="698" y="209" on="1"/>
        <pt x="698" y="231" on="0"/>
        <pt x="713" y="264" on="0"/>
        <pt x="738" y="287" on="0"/>
        <pt x="771" y="299" on="0"/>
        <pt x="788" y="299" on="1"/>
        <pt x="819" y="299" on="0"/>
        <pt x="876" y="260" on="0"/>
        <pt x="889" y="220" on="1"/>
        <pt x="979" y="280" on="0"/>
        <pt x="1104" y="435" on="0"/>
        <pt x="1180" y="635" on="0"/>
        <pt x="1214" y="886" on="0"/>
        <pt x="1214" y="1042" on="1"/>
        <pt x="1214" y="1097" on="0"/>
        <pt x="1262" y="1149" on="0"/>
        <pt x="1293" y="1149" on="1"/>
        <pt x="1326" y="1149" on="0"/>
        <pt x="1367" y="1106" on="0"/>
        <pt x="1391" y="1035" on="0"/>
        <pt x="1400" y="944" on="0"/>
        <pt x="1400" y="896" on="1"/>
        <pt x="1400" y="740" on="0"/>
        <pt x="1324" y="468" on="0"/>
        <pt x="1192" y="248" on="0"/>
        <pt x="1016" y="84" on="0"/>
        <pt x="916" y="37" on="1"/>
        <pt x="933" y="-43" on="0"/>
        <pt x="988" y="-151" on="0"/>
        <pt x="1056" y="-217" on="0"/>
        <pt x="1133" y="-245" on="0"/>
        <pt x="1174" y="-245" on="1"/>
        <pt x="1208" y="-245" on="0"/>
        <pt x="1278" y="-230" on="0"/>
        <pt x="1339" y="-206" on="0"/>
        <pt x="1388" y="-177" on="0"/>
        <pt x="1402" y="-163" on="1"/>
        <pt x="1408" y="-160" on="0"/>
        <pt x="1417" y="-155" on="0"/>
        <pt x="1423" y="-155" on="1"/>
        <pt x="1439" y="-155" on="0"/>
        <pt x="1464" y="-185" on="0"/>
        <pt x="1464" y="-208" on="1"/>
        <pt x="1464" y="-228" on="0"/>
        <pt x="1442" y="-273" on="0"/>
        <pt x="1416" y="-297" on="1"/>
        <pt x="1358" y="-363" on="0"/>
        <pt x="1226" y="-427" on="0"/>
        <pt x="1158" y="-427" on="1"/>
        <pt x="1096" y="-427" on="0"/>
        <pt x="976" y="-375" on="0"/>
        <pt x="869" y="-272" on="0"/>
        <pt x="779" y="-118" on="0"/>
        <pt x="747" y="-16" on="1"/>
        <pt x="725" y="-19" on="0"/>
        <pt x="683" y="-23" on="0"/>
        <pt x="661" y="-23" on="1"/>
        <pt x="576" y="-23" on="0"/>
        <pt x="414" y="26" on="0"/>
        <pt x="287" y="139" on="0"/>
        <pt x="210" y="324" on="0"/>
      </contour>
    </TTGlyph>
    <TTGlyph name="R" xMin="155" yMin="-38" xMax="1461" yMax="1443">
      <contour>
        <pt x="707" y="651" on="1"/>
        <pt x="713" y="650" on="0"/>
        <pt x="726" y="650" on="0"/>
        <pt x="733" y="650" on="1"/>
        <pt x="820" y="650" on="0"/>
        <pt x="975" y="725" on="0"/>
        <pt x="1091" y="841" on="0"/>
        <pt x="1158" y="983" on="0"/>
        <pt x="1158" y="1050" on="1"/>
        <pt x="1158" y="1098" on="0"/>
        <pt x="1123" y="1184" on="0"/>
        <pt x="1048" y="1248" on="0"/>
        <pt x="931" y="1286" on="0"/>
        <pt x="850" y="1286" on="1"/>
        <pt x="759" y="1286" on="0"/>
        <pt x="628" y="1252" on="0"/>
        <pt x="533" y="1198" on="0"/>
        <pt x="468" y="1128" on="0"/>
        <pt x="421" y="1054" on="0"/>
        <pt x="383" y="984" on="0"/>
        <pt x="342" y="930" on="0"/>
        <pt x="292" y="896" on="0"/>
        <pt x="255" y="896" on="1"/>
        <pt x="205" y="896" on="0"/>
        <pt x="155" y="947" on="0"/>
        <pt x="155" y="993" on="1"/>
        <pt x="155" y="1036" on="0"/>
        <pt x="202" y="1136" on="0"/>
        <pt x="289" y="1236" on="0"/>
        <pt x="415" y="1329" on="0"/>
        <pt x="572" y="1400" on="0"/>
        <pt x="758" y="1443" on="0"/>
        <pt x="862" y="1443" on="1"/>
        <pt x="964" y="1443" on="0"/>
        <pt x="1151" y="1391" on="0"/>
        <pt x="1295" y="1288" on="0"/>
        <pt x="1380" y="1132" on="0"/>
        <pt x="1380" y="1028" on="1"/>
        <pt x="1380" y="958" on="0"/>
        <pt x="1329" y="831" on="0"/>
        <pt x="1243" y="720" on="0"/>
        <pt x="1128" y="627" on="0"/>
        <pt x="998" y="555" on="0"/>
        <pt x="861" y="505" on="0"/>
        <pt x="797" y="494" on="1"/>
        <pt x="806" y="447" on="0"/>
        <pt x="847" y="330" on="0"/>
        <pt x="906" y="225" on="0"/>
        <pt x="978" y="151" on="0"/>
        <pt x="1018" y="148" on="1"/>
        <pt x="1026" y="147" on="0"/>
        <pt x="1040" y="147" on="0"/>
        <pt x="1047" y="147" on="1"/>
        <pt x="1120" y="147" on="0"/>
        <pt x="1234" y="195" on="0"/>
        <pt x="1272" y="224" on="1"/>
        <pt x="1317" y="257" on="0"/>
        <pt x="1350" y="301" on="1"/>
        <pt x="1381" y="336" on="0"/>
        <pt x="1413" y="336" on="1"/>
        <pt x="1433" y="336" on="0"/>
        <pt x="1461" y="308" on="0"/>
        <pt x="1461" y="284" on="1"/>
        <pt x="1461" y="261" on="0"/>
        <pt x="1432" y="200" on="0"/>
        <pt x="1397" y="167" on="1"/>
        <pt x="1294" y="70" on="0"/>
        <pt x="1097" y="-19" on="0"/>
        <pt x="1009" y="-19" on="1"/>
        <pt x="937" y="-19" on="0"/>
        <pt x="815" y="63" on="0"/>
        <pt x="715" y="203" on="0"/>
        <pt x="633" y="390" on="0"/>
        <pt x="601" y="494" on="1"/>
        <pt x="583" y="453" on="0"/>
        <pt x="545" y="342" on="0"/>
        <pt x="501" y="224" on="0"/>
        <pt x="453" y="109" on="0"/>
        <pt x="395" y="18" on="0"/>
        <pt x="329" y="-38" on="0"/>
        <pt x="290" y="-38" on="1"/>
        <pt x="258" y="-38" on="0"/>
        <pt x="218" y="-18" on="0"/>
        <pt x="196" y="12" on="0"/>
        <pt x="187" y="48" on="0"/>
        <pt x="187" y="64" on="1"/>
        <pt x="187" y="87" on="0"/>
        <pt x="199" y="135" on="0"/>
        <pt x="210" y="156" on="1"/>
        <pt x="505" y="696" on="1"/>
        <pt x="543" y="764" on="0"/>
        <pt x="620" y="891" on="0"/>
        <pt x="693" y="989" on="0"/>
        <pt x="758" y="1048" on="0"/>
        <pt x="784" y="1048" on="1"/>
        <pt x="791" y="1048" on="0"/>
        <pt x="811" y="1043" on="0"/>
        <pt x="827" y="1030" on="0"/>
        <pt x="839" y="1005" on="0"/>
        <pt x="839" y="967" on="0"/>
        <pt x="817" y="899" on="0"/>
        <pt x="781" y="811" on="0"/>
        <pt x="733" y="706" on="0"/>
      </contour>
    </TTGlyph>
    <TTGlyph name="S" xMin="183" yMin="-20" xMax="1334" yMax="1443">
      <contour>
        <pt x="535" y="557" on="1"/>
        <pt x="564" y="557" on="0"/>
        <pt x="591" y="510" on="0"/>
        <pt x="591" y="480" on="1"/>
        <pt x="591" y="465" on="0"/>
        <pt x="585" y="443" on="0"/>
        <pt x="567" y="424" on="0"/>
        <pt x="537" y="407" on="0"/>
        <pt x="513" y="397" on="1"/>
        <pt x="457" y="373" on="0"/>
        <pt x="393" y="306" on="0"/>
        <pt x="393" y="273" on="1"/>
        <pt x="393" y="252" on="0"/>
        <pt x="421" y="214" on="0"/>
        <pt x="481" y="185" on="0"/>
        <pt x="576" y="168" on="0"/>
        <pt x="643" y="168" on="1"/>
        <pt x="712" y="168" on="0"/>
        <pt x="836" y="201" on="0"/>
        <pt x="929" y="261" on="0"/>
        <pt x="984" y="343" on="0"/>
        <pt x="984" y="391" on="1"/>
        <pt x="984" y="427" on="0"/>
        <pt x="924" y="505" on="0"/>
        <pt x="859" y="547" on="1"/>
        <pt x="744" y="622" on="0"/>
        <pt x="625" y="714" on="0"/>
        <pt x="611" y="726" on="1"/>
        <pt x="536" y="792" on="0"/>
        <pt x="462" y="914" on="0"/>
        <pt x="462" y="980" on="1"/>
        <pt x="462" y="1041" on="0"/>
        <pt x="521" y="1157" on="0"/>
        <pt x="621" y="1259" on="0"/>
        <pt x="752" y="1346" on="0"/>
        <pt x="895" y="1408" on="0"/>
        <pt x="1040" y="1443" on="0"/>
        <pt x="1105" y="1443" on="1"/>
        <pt x="1154" y="1443" on="0"/>
        <pt x="1237" y="1421" on="0"/>
        <pt x="1299" y="1374" on="0"/>
        <pt x="1334" y="1300" on="0"/>
        <pt x="1334" y="1248" on="1"/>
        <pt x="1334" y="1173" on="0"/>
        <pt x="1248" y="1037" on="0"/>
        <pt x="1160" y="978" on="1"/>
        <pt x="1121" y="951" on="0"/>
        <pt x="1088" y="951" on="1"/>
        <pt x="1054" y="951" on="0"/>
        <pt x="1014" y="1000" on="0"/>
        <pt x="1014" y="1033" on="1"/>
        <pt x="1014" y="1061" on="0"/>
        <pt x="1047" y="1117" on="0"/>
        <pt x="1084" y="1137" on="1"/>
        <pt x="1113" y="1152" on="0"/>
        <pt x="1158" y="1203" on="0"/>
        <pt x="1158" y="1227" on="1"/>
        <pt x="1158" y="1250" on="0"/>
        <pt x="1127" y="1264" on="0"/>
        <pt x="1105" y="1264" on="1"/>
        <pt x="1063" y="1264" on="0"/>
        <pt x="964" y="1243" on="0"/>
        <pt x="865" y="1207" on="0"/>
        <pt x="772" y="1157" on="0"/>
        <pt x="701" y="1099" on="0"/>
        <pt x="658" y="1034" on="0"/>
        <pt x="658" y="1002" on="1"/>
        <pt x="658" y="980" on="0"/>
        <pt x="676" y="942" on="0"/>
        <pt x="711" y="904" on="0"/>
        <pt x="761" y="863" on="0"/>
        <pt x="794" y="839" on="1"/>
        <pt x="1028" y="666" on="1"/>
        <pt x="1073" y="633" on="0"/>
        <pt x="1144" y="570" on="0"/>
        <pt x="1192" y="507" on="0"/>
        <pt x="1218" y="443" on="0"/>
        <pt x="1218" y="407" on="1"/>
        <pt x="1218" y="327" on="0"/>
        <pt x="1135" y="174" on="0"/>
        <pt x="982" y="54" on="0"/>
        <pt x="767" y="-20" on="0"/>
        <pt x="636" y="-20" on="1"/>
        <pt x="514" y="-20" on="0"/>
        <pt x="343" y="19" on="0"/>
        <pt x="233" y="86" on="0"/>
        <pt x="183" y="173" on="0"/>
        <pt x="183" y="221" on="1"/>
        <pt x="183" y="271" on="0"/>
        <pt x="234" y="374" on="0"/>
        <pt x="327" y="466" on="0"/>
        <pt x="457" y="538" on="0"/>
      </contour>
    </TTGlyph>
    <TTGlyph name="S.alt" xMin="53" yMin="-20" xMax="1204" yMax="1383">
      <contour>
        <pt x="405" y="557" on="1"/>
        <pt x="434" y="557" on="0"/>
        <pt x="461" y="510" on="0"/>
        <pt x="461" y="480" on="1"/>
        <pt x="461" y="465" on="0"/>
        <pt x="455" y="443" on="0"/>
        <pt x="437" y="424" on="0"/>
        <pt x="407" y="407" on="0"/>
        <pt x="383" y="397" on="1"/>
        <pt x="327" y="373" on="0"/>
        <pt x="263" y="306" on="0"/>
        <pt x="263" y="273" on="1"/>
        <pt x="263" y="252" on="0"/>
        <pt x="291" y="214" on="0"/>
        <pt x="351" y="185" on="0"/>
        <pt x="446" y="168" on="0"/>
        <pt x="513" y="168" on="1"/>
        <pt x="586" y="168" on="0"/>
        <pt x="717" y="201" on="0"/>
        <pt x="816" y="261" on="0"/>
        <pt x="874" y="343" on="0"/>
        <pt x="874" y="391" on="1"/>
        <pt x="874" y="423" on="0"/>
        <pt x="815" y="491" on="0"/>
        <pt x="749" y="527" on="1"/>
        <pt x="636" y="590" on="0"/>
        <pt x="514" y="666" on="0"/>
        <pt x="501" y="676" on="1"/>
        <pt x="413" y="744" on="0"/>
        <pt x="332" y="880" on="0"/>
        <pt x="332" y="950" on="1"/>
        <pt x="332" y="1007" on="0"/>
        <pt x="391" y="1115" on="0"/>
        <pt x="491" y="1212" on="0"/>
        <pt x="622" y="1292" on="0"/>
        <pt x="765" y="1351" on="0"/>
        <pt x="910" y="1383" on="0"/>
        <pt x="975" y="1383" on="1"/>
        <pt x="1024" y="1383" on="0"/>
        <pt x="1107" y="1361" on="0"/>
        <pt x="1169" y="1314" on="0"/>
        <pt x="1204" y="1240" on="0"/>
        <pt x="1204" y="1188" on="1"/>
        <pt x="1204" y="1036" on="0"/>
        <pt x="1030" y="918" on="1"/>
        <pt x="989" y="891" on="0"/>
        <pt x="958" y="891" on="1"/>
        <pt x="924" y="891" on="0"/>
        <pt x="884" y="940" on="0"/>
        <pt x="884" y="973" on="1"/>
        <pt x="884" y="1001" on="0"/>
        <pt x="917" y="1057" on="0"/>
        <pt x="954" y="1077" on="1"/>
        <pt x="983" y="1092" on="0"/>
        <pt x="1028" y="1143" on="0"/>
        <pt x="1028" y="1167" on="1"/>
        <pt x="1028" y="1190" on="0"/>
        <pt x="997" y="1204" on="0"/>
        <pt x="975" y="1204" on="1"/>
        <pt x="933" y="1204" on="0"/>
        <pt x="834" y="1186" on="0"/>
        <pt x="735" y="1153" on="0"/>
        <pt x="642" y="1109" on="0"/>
        <pt x="571" y="1057" on="0"/>
        <pt x="528" y="1001" on="0"/>
        <pt x="528" y="972" on="1"/>
        <pt x="528" y="922" on="0"/>
        <pt x="605" y="837" on="0"/>
        <pt x="684" y="789" on="1"/>
        <pt x="918" y="646" on="1"/>
        <pt x="1012" y="584" on="0"/>
        <pt x="1108" y="459" on="0"/>
        <pt x="1108" y="387" on="1"/>
        <pt x="1108" y="311" on="0"/>
        <pt x="1022" y="165" on="0"/>
        <pt x="864" y="50" on="0"/>
        <pt x="642" y="-20" on="0"/>
        <pt x="506" y="-20" on="1"/>
        <pt x="384" y="-20" on="0"/>
        <pt x="213" y="19" on="0"/>
        <pt x="103" y="86" on="0"/>
        <pt x="53" y="173" on="0"/>
        <pt x="53" y="221" on="1"/>
        <pt x="53" y="271" on="0"/>
        <pt x="104" y="374" on="0"/>
        <pt x="197" y="466" on="0"/>
        <pt x="327" y="538" on="0"/>
      </contour>
    </TTGlyph>
    <TTGlyph name="Scaron" xMin="183" yMin="-20" xMax="1469" yMax="1935">
      <component glyphName="S" x="0" y="0" flags="0x1204"/>
      <component glyphName="caron" x="50" y="735" flags="0x1004"/>
    </TTGlyph>
    <TTGlyph name="T" xMin="252" yMin="-74" xMax="1698" yMax="1443">
      <contour>
        <pt x="529" y="47" on="1"/>
        <pt x="514" y="17" on="0"/>
        <pt x="472" y="-29" on="0"/>
        <pt x="424" y="-59" on="0"/>
        <pt x="374" y="-74" on="0"/>
        <pt x="352" y="-74" on="1"/>
        <pt x="320" y="-74" on="0"/>
        <pt x="276" y="-41" on="0"/>
        <pt x="276" y="-9" on="1"/>
        <pt x="276" y="2" on="0"/>
        <pt x="281" y="29" on="0"/>
        <pt x="289" y="45" on="1"/>
        <pt x="365" y="202" on="0"/>
        <pt x="516" y="492" on="0"/>
        <pt x="657" y="744" on="0"/>
        <pt x="783" y="951" on="0"/>
        <pt x="886" y="1098" on="0"/>
        <pt x="959" y="1178" on="0"/>
        <pt x="976" y="1178" on="1"/>
        <pt x="1011" y="1178" on="0"/>
        <pt x="1045" y="1138" on="0"/>
        <pt x="1045" y="1111" on="1"/>
        <pt x="1045" y="1089" on="0"/>
        <pt x="1034" y="1067" on="1"/>
        <pt x="1009" y="1016" on="0"/>
        <pt x="946" y="887" on="0"/>
        <pt x="876" y="742" on="0"/>
        <pt x="800" y="587" on="0"/>
        <pt x="726" y="434" on="0"/>
        <pt x="655" y="291" on="0"/>
        <pt x="594" y="169" on="0"/>
        <pt x="545" y="74" on="0"/>
      </contour>
      <contour>
        <pt x="1698" y="1217" on="1"/>
        <pt x="1698" y="1199" on="0"/>
        <pt x="1671" y="1134" on="0"/>
        <pt x="1622" y="1072" on="0"/>
        <pt x="1553" y="1026" on="0"/>
        <pt x="1511" y="1026" on="1"/>
        <pt x="1501" y="1026" on="0"/>
        <pt x="1471" y="1029" on="0"/>
        <pt x="1442" y="1041" on="0"/>
        <pt x="1422" y="1063" on="0"/>
        <pt x="1422" y="1081" on="1"/>
        <pt x="1422" y="1090" on="0"/>
        <pt x="1440" y="1123" on="0"/>
        <pt x="1461" y="1161" on="0"/>
        <pt x="1479" y="1197" on="0"/>
        <pt x="1479" y="1209" on="1"/>
        <pt x="1479" y="1243" on="0"/>
        <pt x="1383" y="1274" on="0"/>
        <pt x="1270" y="1274" on="1"/>
        <pt x="1157" y="1270" on="0"/>
        <pt x="975" y="1251" on="0"/>
        <pt x="821" y="1222" on="0"/>
        <pt x="687" y="1184" on="0"/>
        <pt x="557" y="1141" on="0"/>
        <pt x="424" y="1092" on="0"/>
        <pt x="349" y="1067" on="1"/>
        <pt x="342" y="1065" on="0"/>
        <pt x="329" y="1061" on="0"/>
        <pt x="324" y="1061" on="1"/>
        <pt x="308" y="1061" on="0"/>
        <pt x="282" y="1075" on="0"/>
        <pt x="263" y="1099" on="0"/>
        <pt x="252" y="1129" on="0"/>
        <pt x="252" y="1145" on="1"/>
        <pt x="252" y="1171" on="0"/>
        <pt x="336" y="1236" on="0"/>
        <pt x="482" y="1302" on="0"/>
        <pt x="680" y="1365" on="0"/>
        <pt x="909" y="1414" on="0"/>
        <pt x="1158" y="1443" on="0"/>
        <pt x="1282" y="1443" on="1"/>
        <pt x="1389" y="1443" on="0"/>
        <pt x="1545" y="1409" on="0"/>
        <pt x="1647" y="1349" on="0"/>
        <pt x="1697" y="1266" on="0"/>
      </contour>
    </TTGlyph>
    <TTGlyph name="Thorn" xMin="84" yMin="-38" xMax="1333" yMax="1443">
      <contour>
        <pt x="1102" y="858" on="1"/>
        <pt x="1102" y="902" on="0"/>
        <pt x="1081" y="985" on="0"/>
        <pt x="1039" y="1057" on="0"/>
        <pt x="978" y="1114" on="0"/>
        <pt x="938" y="1132" on="1"/>
        <pt x="903" y="1052" on="0"/>
        <pt x="823" y="877" on="0"/>
        <pt x="750" y="718" on="0"/>
        <pt x="691" y="595" on="0"/>
        <pt x="677" y="568" on="1"/>
        <pt x="755" y="574" on="0"/>
        <pt x="907" y="615" on="0"/>
        <pt x="1028" y="687" on="0"/>
        <pt x="1102" y="790" on="0"/>
      </contour>
      <contour>
        <pt x="608" y="411" on="1"/>
        <pt x="589" y="369" on="0"/>
        <pt x="550" y="269" on="0"/>
        <pt x="508" y="170" on="0"/>
        <pt x="460" y="77" on="0"/>
        <pt x="405" y="5" on="0"/>
        <pt x="341" y="-38" on="0"/>
        <pt x="304" y="-38" on="1"/>
        <pt x="273" y="-38" on="0"/>
        <pt x="233" y="-19" on="0"/>
        <pt x="211" y="10" on="0"/>
        <pt x="202" y="45" on="0"/>
        <pt x="202" y="61" on="1"/>
        <pt x="202" y="85" on="0"/>
        <pt x="217" y="135" on="0"/>
        <pt x="228" y="156" on="1"/>
        <pt x="756" y="1157" on="1"/>
        <pt x="669" y="1152" on="0"/>
        <pt x="543" y="1110" on="0"/>
        <pt x="452" y="1048" on="0"/>
        <pt x="390" y="972" on="0"/>
        <pt x="344" y="894" on="0"/>
        <pt x="307" y="821" on="0"/>
        <pt x="267" y="764" on="0"/>
        <pt x="217" y="729" on="0"/>
        <pt x="180" y="729" on="1"/>
        <pt x="131" y="729" on="0"/>
        <pt x="84" y="779" on="0"/>
        <pt x="84" y="871" on="0"/>
        <pt x="134" y="980" on="0"/>
        <pt x="226" y="1090" on="0"/>
        <pt x="357" y="1191" on="0"/>
        <pt x="521" y="1269" on="0"/>
        <pt x="714" y="1316" on="0"/>
        <pt x="821" y="1316" on="1"/>
        <pt x="823" y="1316" on="0"/>
        <pt x="829" y="1315" on="0"/>
        <pt x="832" y="1315" on="1"/>
        <pt x="839" y="1315" on="1"/>
        <pt x="842" y="1320" on="1"/>
        <pt x="867" y="1364" on="0"/>
        <pt x="912" y="1414" on="0"/>
        <pt x="951" y="1438" on="0"/>
        <pt x="981" y="1443" on="0"/>
        <pt x="991" y="1443" on="1"/>
        <pt x="1009" y="1443" on="0"/>
        <pt x="1039" y="1418" on="0"/>
        <pt x="1039" y="1385" on="1"/>
        <pt x="1039" y="1378" on="0"/>
        <pt x="1020" y="1328" on="0"/>
        <pt x="1005" y="1290" on="1"/>
        <pt x="1075" y="1269" on="0"/>
        <pt x="1195" y="1195" on="0"/>
        <pt x="1283" y="1087" on="0"/>
        <pt x="1333" y="946" on="0"/>
        <pt x="1333" y="859" on="1"/>
        <pt x="1333" y="754" on="0"/>
        <pt x="1232" y="585" on="0"/>
        <pt x="1061" y="468" on="0"/>
        <pt x="837" y="405" on="0"/>
        <pt x="713" y="405" on="1"/>
        <pt x="687" y="405" on="0"/>
        <pt x="634" y="407" on="0"/>
      </contour>
    </TTGlyph>
    <TTGlyph name="U" xMin="236" yMin="-26" xMax="1400" yMax="1443">
      <contour>
        <pt x="575" y="1355" on="1"/>
        <pt x="601" y="1407" on="0"/>
        <pt x="666" y="1443" on="0"/>
        <pt x="697" y="1443" on="1"/>
        <pt x="714" y="1443" on="0"/>
        <pt x="745" y="1436" on="0"/>
        <pt x="769" y="1419" on="0"/>
        <pt x="783" y="1390" on="0"/>
        <pt x="783" y="1369" on="1"/>
        <pt x="783" y="1343" on="0"/>
        <pt x="761" y="1275" on="0"/>
        <pt x="736" y="1227" on="1"/>
        <pt x="636" y="1050" on="0"/>
        <pt x="500" y="658" on="0"/>
        <pt x="459" y="462" on="1"/>
        <pt x="455" y="437" on="0"/>
        <pt x="453" y="391" on="0"/>
        <pt x="453" y="370" on="1"/>
        <pt x="453" y="311" on="0"/>
        <pt x="483" y="229" on="0"/>
        <pt x="532" y="179" on="0"/>
        <pt x="592" y="157" on="0"/>
        <pt x="622" y="157" on="1"/>
        <pt x="735" y="157" on="0"/>
        <pt x="943" y="319" on="0"/>
        <pt x="1106" y="616" on="0"/>
        <pt x="1209" y="1033" on="0"/>
        <pt x="1217" y="1289" on="1"/>
        <pt x="1218" y="1316" on="0"/>
        <pt x="1236" y="1357" on="0"/>
        <pt x="1264" y="1383" on="0"/>
        <pt x="1301" y="1396" on="0"/>
        <pt x="1320" y="1396" on="1"/>
        <pt x="1344" y="1396" on="0"/>
        <pt x="1375" y="1361" on="0"/>
        <pt x="1393" y="1303" on="0"/>
        <pt x="1400" y="1226" on="0"/>
        <pt x="1400" y="1184" on="1"/>
        <pt x="1400" y="1007" on="0"/>
        <pt x="1335" y="690" on="0"/>
        <pt x="1221" y="421" on="0"/>
        <pt x="1066" y="206" on="0"/>
        <pt x="884" y="55" on="0"/>
        <pt x="685" y="-26" on="0"/>
        <pt x="585" y="-26" on="1"/>
        <pt x="523" y="-26" on="0"/>
        <pt x="398" y="26" on="0"/>
        <pt x="298" y="126" on="0"/>
        <pt x="236" y="270" on="0"/>
        <pt x="236" y="362" on="1"/>
        <pt x="236" y="379" on="0"/>
        <pt x="238" y="416" on="0"/>
        <pt x="241" y="435" on="1"/>
        <pt x="254" y="512" on="0"/>
        <pt x="285" y="651" on="0"/>
        <pt x="325" y="786" on="0"/>
        <pt x="375" y="924" on="0"/>
        <pt x="440" y="1077" on="0"/>
        <pt x="523" y="1251" on="0"/>
      </contour>
    </TTGlyph>
    <TTGlyph name="Uacute" xMin="236" yMin="-26" xMax="1400" yMax="1923">
      <component glyphName="U" x="0" y="0" flags="0x1204"/>
      <component glyphName="acute" x="480" y="616" flags="0x1004"/>
    </TTGlyph>
    <TTGlyph name="Ucircumflex" xMin="236" yMin="-26" xMax="1400" yMax="1950">
      <component glyphName="U" x="0" y="0" flags="0x1204"/>
      <component glyphName="circumflex" x="-7" y="751" flags="0x1004"/>
    </TTGlyph>
    <TTGlyph name="Udieresis" xMin="236" yMin="-26" xMax="1400" yMax="1717">
      <component glyphName="U" x="0" y="0" flags="0x1204"/>
      <component glyphName="dieresis" x="147" y="605" flags="0x1004"/>
    </TTGlyph>
    <TTGlyph name="Ugrave" xMin="236" yMin="-26" xMax="1400" yMax="1923">
      <component glyphName="U" x="0" y="0" flags="0x1204"/>
      <component glyphName="grave" x="486" y="616" flags="0x1004"/>
    </TTGlyph>
    <TTGlyph name="V" xMin="272" yMin="-69" xMax="1262" yMax="1328">
      <contour>
        <pt x="1261" y="1219" on="1"/>
        <pt x="1259" y="1199" on="0"/>
        <pt x="1224" y="1111" on="0"/>
        <pt x="1169" y="990" on="0"/>
        <pt x="1095" y="844" on="0"/>
        <pt x="1011" y="688" on="0"/>
        <pt x="921" y="528" on="0"/>
        <pt x="876" y="454" on="1"/>
        <pt x="801" y="330" on="0"/>
        <pt x="660" y="126" on="0"/>
        <pt x="602" y="57" on="1"/>
        <pt x="610" y="42" on="0"/>
        <pt x="610" y="27" on="1"/>
        <pt x="610" y="4" on="0"/>
        <pt x="571" y="-32" on="0"/>
        <pt x="508" y="-56" on="0"/>
        <pt x="428" y="-69" on="0"/>
        <pt x="386" y="-69" on="1"/>
        <pt x="354" y="-69" on="0"/>
        <pt x="321" y="-40" on="0"/>
        <pt x="321" y="-17" on="1"/>
        <pt x="321" y="11" on="0"/>
        <pt x="348" y="47" on="0"/>
        <pt x="367" y="55" on="1"/>
        <pt x="364" y="76" on="0"/>
        <pt x="350" y="160" on="0"/>
        <pt x="334" y="270" on="0"/>
        <pt x="316" y="398" on="0"/>
        <pt x="300" y="528" on="0"/>
        <pt x="286" y="653" on="0"/>
        <pt x="283" y="704" on="1"/>
        <pt x="278" y="776" on="0"/>
        <pt x="272" y="904" on="0"/>
        <pt x="272" y="961" on="1"/>
        <pt x="272" y="1015" on="0"/>
        <pt x="278" y="1106" on="0"/>
        <pt x="283" y="1141" on="1"/>
        <pt x="289" y="1177" on="0"/>
        <pt x="326" y="1244" on="0"/>
        <pt x="377" y="1297" on="0"/>
        <pt x="437" y="1328" on="0"/>
        <pt x="466" y="1328" on="1"/>
        <pt x="499" y="1328" on="0"/>
        <pt x="526" y="1273" on="0"/>
        <pt x="526" y="1223" on="1"/>
        <pt x="526" y="1191" on="0"/>
        <pt x="516" y="1110" on="0"/>
        <pt x="510" y="1074" on="1"/>
        <pt x="504" y="1036" on="0"/>
        <pt x="500" y="1012" on="1"/>
        <pt x="495" y="989" on="1"/>
        <pt x="492" y="971" on="0"/>
        <pt x="490" y="922" on="0"/>
        <pt x="490" y="891" on="1"/>
        <pt x="490" y="827" on="0"/>
        <pt x="500" y="661" on="0"/>
        <pt x="516" y="488" on="0"/>
        <pt x="537" y="324" on="0"/>
        <pt x="548" y="262" on="1"/>
        <pt x="617" y="352" on="0"/>
        <pt x="759" y="577" on="0"/>
        <pt x="819" y="699" on="1"/>
        <pt x="870" y="800" on="0"/>
        <pt x="969" y="1012" on="0"/>
        <pt x="1020" y="1113" on="1"/>
        <pt x="1112" y="1282" on="0"/>
        <pt x="1188" y="1282" on="1"/>
        <pt x="1220" y="1282" on="0"/>
        <pt x="1262" y="1262" on="0"/>
        <pt x="1262" y="1233" on="1"/>
        <pt x="1262" y="1224" on="0"/>
      </contour>
    </TTGlyph>
    <TTGlyph name="W" xMin="199" yMin="-25" xMax="1648" yMax="1320">
      <contour>
        <pt x="1643" y="1191" on="1"/>
        <pt x="1595" y="923" on="0"/>
        <pt x="1372" y="487" on="1"/>
        <pt x="1311" y="363" on="0"/>
        <pt x="1215" y="175" on="0"/>
        <pt x="1127" y="48" on="0"/>
        <pt x="1038" y="-16" on="0"/>
        <pt x="984" y="-16" on="1"/>
        <pt x="947" y="-16" on="0"/>
        <pt x="895" y="20" on="0"/>
        <pt x="857" y="123" on="0"/>
        <pt x="831" y="309" on="0"/>
        <pt x="821" y="460" on="1"/>
        <pt x="598" y="133" on="1"/>
        <pt x="568" y="89" on="0"/>
        <pt x="515" y="28" on="0"/>
        <pt x="464" y="-9" on="0"/>
        <pt x="410" y="-25" on="0"/>
        <pt x="380" y="-25" on="1"/>
        <pt x="337" y="-25" on="0"/>
        <pt x="280" y="25" on="0"/>
        <pt x="280" y="73" on="1"/>
        <pt x="280" y="144" on="0"/>
        <pt x="281" y="315" on="0"/>
        <pt x="289" y="526" on="0"/>
        <pt x="306" y="781" on="0"/>
        <pt x="322" y="937" on="1"/>
        <pt x="287" y="896" on="0"/>
        <pt x="239" y="860" on="0"/>
        <pt x="224" y="860" on="1"/>
        <pt x="211" y="860" on="0"/>
        <pt x="199" y="882" on="0"/>
        <pt x="199" y="901" on="1"/>
        <pt x="199" y="934" on="0"/>
        <pt x="233" y="1036" on="0"/>
        <pt x="297" y="1152" on="0"/>
        <pt x="392" y="1267" on="0"/>
        <pt x="454" y="1312" on="1"/>
        <pt x="466" y="1320" on="0"/>
        <pt x="481" y="1320" on="1"/>
        <pt x="499" y="1320" on="0"/>
        <pt x="532" y="1294" on="0"/>
        <pt x="557" y="1252" on="0"/>
        <pt x="572" y="1200" on="0"/>
        <pt x="572" y="1175" on="1"/>
        <pt x="572" y="1151" on="0"/>
        <pt x="569" y="1135" on="1"/>
        <pt x="564" y="1113" on="0"/>
        <pt x="555" y="1079" on="0"/>
        <pt x="545" y="1031" on="0"/>
        <pt x="533" y="954" on="0"/>
        <pt x="525" y="889" on="1"/>
        <pt x="515" y="807" on="0"/>
        <pt x="504" y="641" on="0"/>
        <pt x="496" y="472" on="0"/>
        <pt x="489" y="300" on="0"/>
        <pt x="485" y="212" on="1"/>
        <pt x="507" y="239" on="0"/>
        <pt x="565" y="324" on="0"/>
        <pt x="627" y="419" on="0"/>
        <pt x="687" y="515" on="0"/>
        <pt x="711" y="554" on="1"/>
        <pt x="736" y="592" on="0"/>
        <pt x="750" y="616" on="1"/>
        <pt x="764" y="641" on="1"/>
        <pt x="801" y="735" on="0"/>
        <pt x="877" y="917" on="0"/>
        <pt x="914" y="1007" on="1"/>
        <pt x="950" y="1095" on="0"/>
        <pt x="1030" y="1191" on="0"/>
        <pt x="1077" y="1191" on="1"/>
        <pt x="1115" y="1191" on="0"/>
        <pt x="1161" y="1164" on="0"/>
        <pt x="1161" y="1143" on="1"/>
        <pt x="1161" y="1108" on="0"/>
        <pt x="1126" y="1013" on="0"/>
        <pt x="1080" y="905" on="0"/>
        <pt x="1035" y="791" on="0"/>
        <pt x="1024" y="739" on="1"/>
        <pt x="1019" y="652" on="0"/>
        <pt x="1013" y="530" on="0"/>
        <pt x="1013" y="479" on="1"/>
        <pt x="1013" y="416" on="0"/>
        <pt x="1015" y="278" on="0"/>
        <pt x="1023" y="215" on="1"/>
        <pt x="1063" y="273" on="0"/>
        <pt x="1150" y="408" on="0"/>
        <pt x="1236" y="552" on="0"/>
        <pt x="1316" y="703" on="0"/>
        <pt x="1384" y="853" on="0"/>
        <pt x="1434" y="998" on="0"/>
        <pt x="1447" y="1064" on="1"/>
        <pt x="1460" y="1139" on="1"/>
        <pt x="1460" y="1143" on="0"/>
        <pt x="1462" y="1151" on="0"/>
        <pt x="1462" y="1155" on="1"/>
        <pt x="1468" y="1185" on="0"/>
        <pt x="1482" y="1233" on="0"/>
        <pt x="1505" y="1266" on="0"/>
        <pt x="1540" y="1284" on="0"/>
        <pt x="1566" y="1284" on="1"/>
        <pt x="1609" y="1284" on="0"/>
        <pt x="1648" y="1266" on="0"/>
        <pt x="1648" y="1235" on="1"/>
        <pt x="1648" y="1225" on="0"/>
        <pt x="1645" y="1205" on="0"/>
      </contour>
    </TTGlyph>
    <TTGlyph name="X" xMin="-102" yMin="-53" xMax="1433" yMax="1497">
      <contour>
        <pt x="1198" y="1367" on="1"/>
        <pt x="1219" y="1388" on="0"/>
        <pt x="1269" y="1421" on="0"/>
        <pt x="1321" y="1444" on="0"/>
        <pt x="1371" y="1457" on="0"/>
        <pt x="1391" y="1457" on="1"/>
        <pt x="1414" y="1457" on="0"/>
        <pt x="1433" y="1441" on="0"/>
        <pt x="1433" y="1427" on="1"/>
        <pt x="1433" y="1406" on="0"/>
        <pt x="1396" y="1341" on="0"/>
        <pt x="1345" y="1272" on="0"/>
        <pt x="1290" y="1208" on="0"/>
        <pt x="1272" y="1188" on="1"/>
        <pt x="1136" y="1036" on="0"/>
        <pt x="895" y="770" on="0"/>
        <pt x="786" y="655" on="1"/>
        <pt x="809" y="573" on="0"/>
        <pt x="849" y="451" on="0"/>
        <pt x="887" y="352" on="0"/>
        <pt x="925" y="268" on="0"/>
        <pt x="971" y="183" on="0"/>
        <pt x="1025" y="88" on="0"/>
        <pt x="1060" y="27" on="1"/>
        <pt x="1065" y="18" on="0"/>
        <pt x="1065" y="9" on="1"/>
        <pt x="1065" y="-3" on="0"/>
        <pt x="1048" y="-21" on="0"/>
        <pt x="1023" y="-34" on="0"/>
        <pt x="992" y="-41" on="0"/>
        <pt x="978" y="-41" on="1"/>
        <pt x="939" y="-41" on="0"/>
        <pt x="863" y="12" on="0"/>
        <pt x="779" y="135" on="0"/>
        <pt x="684" y="337" on="0"/>
        <pt x="625" y="486" on="1"/>
        <pt x="515" y="371" on="0"/>
        <pt x="346" y="202" on="0"/>
        <pt x="217" y="82" on="0"/>
        <pt x="120" y="6" on="0"/>
        <pt x="45" y="-37" on="0"/>
        <pt x="-15" y="-53" on="0"/>
        <pt x="-44" y="-53" on="1"/>
        <pt x="-67" y="-53" on="0"/>
        <pt x="-102" y="-27" on="0"/>
        <pt x="-102" y="7" on="1"/>
        <pt x="-102" y="38" on="0"/>
        <pt x="-63" y="86" on="0"/>
        <pt x="-9" y="123" on="0"/>
        <pt x="46" y="150" on="0"/>
        <pt x="61" y="161" on="1"/>
        <pt x="107" y="192" on="0"/>
        <pt x="218" y="289" on="0"/>
        <pt x="346" y="415" on="0"/>
        <pt x="488" y="566" on="0"/>
        <pt x="565" y="652" on="1"/>
        <pt x="517" y="793" on="0"/>
        <pt x="455" y="1016" on="0"/>
        <pt x="432" y="1112" on="1"/>
        <pt x="417" y="1174" on="0"/>
        <pt x="393" y="1271" on="0"/>
        <pt x="393" y="1300" on="1"/>
        <pt x="393" y="1327" on="0"/>
        <pt x="432" y="1395" on="0"/>
        <pt x="490" y="1456" on="0"/>
        <pt x="556" y="1497" on="0"/>
        <pt x="583" y="1497" on="1"/>
        <pt x="614" y="1497" on="0"/>
        <pt x="660" y="1432" on="0"/>
        <pt x="660" y="1352" on="1"/>
        <pt x="660" y="1337" on="0"/>
        <pt x="657" y="1320" on="0"/>
        <pt x="651" y="1308" on="0"/>
        <pt x="643" y="1296" on="0"/>
        <pt x="638" y="1286" on="1"/>
        <pt x="637" y="1283" on="0"/>
        <pt x="637" y="1273" on="1"/>
        <pt x="637" y="1235" on="0"/>
        <pt x="687" y="1023" on="0"/>
        <pt x="732" y="854" on="1"/>
        <pt x="732" y="852" on="0"/>
        <pt x="734" y="846" on="1"/>
        <pt x="794" y="917" on="1"/>
        <pt x="851" y="975" on="0"/>
        <pt x="946" y="1090" on="0"/>
        <pt x="1038" y="1203" on="0"/>
        <pt x="1137" y="1314" on="0"/>
      </contour>
    </TTGlyph>
    <TTGlyph name="Y" xMin="308" yMin="-99" xMax="1498" yMax="1444">
      <contour>
        <pt x="638" y="665" on="1"/>
        <pt x="578" y="735" on="0"/>
        <pt x="482" y="901" on="0"/>
        <pt x="461" y="997" on="1"/>
        <pt x="444" y="1055" on="0"/>
        <pt x="431" y="1155" on="0"/>
        <pt x="431" y="1198" on="1"/>
        <pt x="431" y="1255" on="0"/>
        <pt x="460" y="1347" on="0"/>
        <pt x="509" y="1410" on="0"/>
        <pt x="573" y="1444" on="0"/>
        <pt x="609" y="1444" on="1"/>
        <pt x="682" y="1444" on="0"/>
        <pt x="682" y="1367" on="1"/>
        <pt x="682" y="1353" on="0"/>
        <pt x="671" y="1310" on="0"/>
        <pt x="659" y="1258" on="0"/>
        <pt x="648" y="1200" on="0"/>
        <pt x="648" y="1172" on="1"/>
        <pt x="648" y="1113" on="0"/>
        <pt x="675" y="995" on="0"/>
        <pt x="722" y="887" on="0"/>
        <pt x="782" y="794" on="0"/>
        <pt x="815" y="760" on="1"/>
        <pt x="889" y="808" on="1"/>
        <pt x="948" y="846" on="0"/>
        <pt x="1065" y="928" on="0"/>
        <pt x="1112" y="974" on="1"/>
        <pt x="1149" y="1018" on="0"/>
        <pt x="1206" y="1102" on="0"/>
        <pt x="1247" y="1176" on="0"/>
        <pt x="1271" y="1236" on="0"/>
        <pt x="1276" y="1256" on="1"/>
        <pt x="1285" y="1298" on="0"/>
        <pt x="1303" y="1358" on="0"/>
        <pt x="1337" y="1396" on="0"/>
        <pt x="1398" y="1414" on="0"/>
        <pt x="1450" y="1414" on="1"/>
        <pt x="1498" y="1414" on="0"/>
        <pt x="1498" y="1346" on="1"/>
        <pt x="1498" y="1342" on="0"/>
        <pt x="1490" y="1280" on="0"/>
        <pt x="1451" y="1174" on="0"/>
        <pt x="1370" y="1030" on="0"/>
        <pt x="1297" y="945" on="1"/>
        <pt x="1250" y="900" on="0"/>
        <pt x="1145" y="818" on="0"/>
        <pt x="1032" y="743" on="0"/>
        <pt x="916" y="673" on="0"/>
        <pt x="859" y="639" on="1"/>
        <pt x="815" y="613" on="1"/>
        <pt x="613" y="231" on="1"/>
        <pt x="584" y="175" on="0"/>
        <pt x="559" y="116" on="0"/>
        <pt x="557" y="105" on="1"/>
        <pt x="557" y="52" on="0"/>
        <pt x="526" y="-24" on="0"/>
        <pt x="479" y="-75" on="0"/>
        <pt x="423" y="-99" on="0"/>
        <pt x="398" y="-99" on="1"/>
        <pt x="361" y="-99" on="0"/>
        <pt x="308" y="-55" on="0"/>
        <pt x="308" y="-12" on="1"/>
        <pt x="308" y="4" on="0"/>
        <pt x="310" y="24" on="0"/>
        <pt x="322" y="56" on="0"/>
        <pt x="349" y="111" on="0"/>
        <pt x="374" y="164" on="1"/>
      </contour>
    </TTGlyph>
    <TTGlyph name="Yacute" xMin="308" yMin="-99" xMax="1498" yMax="1923">
      <component glyphName="Y" x="0" y="0" flags="0x1204"/>
      <component glyphName="acute" x="440" y="616" flags="0x1004"/>
    </TTGlyph>
    <TTGlyph name="Ydieresis" xMin="308" yMin="-99" xMax="1498" yMax="1741">
      <component glyphName="Y" x="0" y="0" flags="0x1204"/>
      <component glyphName="dieresis" x="179" y="629" flags="0x1004"/>
    </TTGlyph>
    <TTGlyph name="Z" xMin="291" yMin="-37" xMax="1682" yMax="1303">
      <contour>
        <pt x="1496" y="1270" on="1"/>
        <pt x="1512" y="1282" on="0"/>
        <pt x="1532" y="1282" on="1"/>
        <pt x="1558" y="1282" on="0"/>
        <pt x="1602" y="1243" on="0"/>
        <pt x="1602" y="1214" on="1"/>
        <pt x="1602" y="1197" on="0"/>
        <pt x="1581" y="1159" on="0"/>
        <pt x="1556" y="1141" on="1"/>
        <pt x="1515" y="1111" on="0"/>
        <pt x="1434" y="1038" on="0"/>
        <pt x="1397" y="1003" on="1"/>
        <pt x="1323" y="927" on="0"/>
        <pt x="1174" y="757" on="0"/>
        <pt x="1023" y="576" on="0"/>
        <pt x="869" y="390" on="0"/>
        <pt x="790" y="297" on="1"/>
        <pt x="828" y="288" on="0"/>
        <pt x="901" y="248" on="0"/>
        <pt x="974" y="209" on="0"/>
        <pt x="1047" y="179" on="0"/>
        <pt x="1085" y="179" on="1"/>
        <pt x="1168" y="179" on="0"/>
        <pt x="1295" y="237" on="0"/>
        <pt x="1397" y="335" on="0"/>
        <pt x="1479" y="465" on="0"/>
        <pt x="1518" y="538" on="1"/>
        <pt x="1531" y="556" on="0"/>
        <pt x="1564" y="571" on="0"/>
        <pt x="1581" y="571" on="1"/>
        <pt x="1600" y="571" on="0"/>
        <pt x="1636" y="556" on="0"/>
        <pt x="1664" y="534" on="0"/>
        <pt x="1682" y="508" on="0"/>
        <pt x="1682" y="497" on="1"/>
        <pt x="1682" y="493" on="0"/>
        <pt x="1678" y="485" on="1"/>
        <pt x="1639" y="378" on="0"/>
        <pt x="1513" y="193" on="0"/>
        <pt x="1352" y="57" on="0"/>
        <pt x="1160" y="-21" on="0"/>
        <pt x="1055" y="-21" on="1"/>
        <pt x="1032" y="-21" on="0"/>
        <pt x="985" y="0" on="0"/>
        <pt x="934" y="32" on="0"/>
        <pt x="877" y="69" on="0"/>
        <pt x="812" y="101" on="0"/>
        <pt x="737" y="122" on="0"/>
        <pt x="694" y="122" on="1"/>
        <pt x="677" y="122" on="0"/>
        <pt x="634" y="115" on="0"/>
        <pt x="592" y="103" on="0"/>
        <pt x="556" y="88" on="0"/>
        <pt x="546" y="81" on="1"/>
        <pt x="507" y="54" on="0"/>
        <pt x="429" y="-1" on="0"/>
        <pt x="390" y="-28" on="1"/>
        <pt x="376" y="-37" on="0"/>
        <pt x="363" y="-37" on="1"/>
        <pt x="349" y="-37" on="0"/>
        <pt x="323" y="-21" on="0"/>
        <pt x="303" y="4" on="0"/>
        <pt x="291" y="35" on="0"/>
        <pt x="291" y="51" on="1"/>
        <pt x="291" y="65" on="0"/>
        <pt x="300" y="88" on="0"/>
        <pt x="313" y="99" on="1"/>
        <pt x="350" y="129" on="0"/>
        <pt x="422" y="190" on="0"/>
        <pt x="459" y="221" on="1"/>
        <pt x="478" y="234" on="0"/>
        <pt x="511" y="258" on="0"/>
        <pt x="550" y="293" on="0"/>
        <pt x="601" y="345" on="0"/>
        <pt x="673" y="427" on="0"/>
        <pt x="772" y="544" on="0"/>
        <pt x="907" y="709" on="0"/>
        <pt x="1084" y="927" on="0"/>
        <pt x="1199" y="1070" on="1"/>
        <pt x="1179" y="1068" on="0"/>
        <pt x="1141" y="1064" on="0"/>
        <pt x="1121" y="1064" on="1"/>
        <pt x="1074" y="1064" on="0"/>
        <pt x="971" y="1087" on="0"/>
        <pt x="866" y="1114" on="0"/>
        <pt x="762" y="1137" on="0"/>
        <pt x="714" y="1137" on="1"/>
        <pt x="682" y="1137" on="0"/>
        <pt x="617" y="1105" on="0"/>
        <pt x="556" y="1067" on="0"/>
        <pt x="502" y="1035" on="0"/>
        <pt x="482" y="1035" on="1"/>
        <pt x="464" y="1035" on="0"/>
        <pt x="442" y="1058" on="0"/>
        <pt x="442" y="1077" on="1"/>
        <pt x="442" y="1088" on="0"/>
        <pt x="452" y="1118" on="0"/>
        <pt x="464" y="1132" on="1"/>
        <pt x="493" y="1166" on="0"/>
        <pt x="571" y="1228" on="0"/>
        <pt x="658" y="1275" on="0"/>
        <pt x="752" y="1303" on="0"/>
        <pt x="797" y="1303" on="1"/>
        <pt x="816" y="1303" on="0"/>
        <pt x="834" y="1300" on="1"/>
        <pt x="927" y="1287" on="0"/>
        <pt x="1055" y="1257" on="0"/>
        <pt x="1150" y="1232" on="0"/>
        <pt x="1222" y="1216" on="0"/>
        <pt x="1259" y="1216" on="1"/>
        <pt x="1304" y="1216" on="0"/>
        <pt x="1373" y="1220" on="0"/>
        <pt x="1429" y="1232" on="0"/>
        <pt x="1474" y="1253" on="0"/>
      </contour>
    </TTGlyph>
    <TTGlyph name="Zcaron" xMin="291" yMin="-37" xMax="1682" yMax="1745">
      <component glyphName="Z" x="0" y="0" flags="0x1204"/>
      <component glyphName="caron" x="109" y="545" flags="0x1004"/>
    </TTGlyph>
    <TTGlyph name="a" xMin="62" yMin="-25" xMax="1212" yMax="727">
      <contour>
        <pt x="500" y="546" on="1"/>
        <pt x="453" y="546" on="0"/>
        <pt x="365" y="498" on="0"/>
        <pt x="297" y="420" on="0"/>
        <pt x="257" y="323" on="0"/>
        <pt x="257" y="274" on="1"/>
        <pt x="257" y="254" on="0"/>
        <pt x="262" y="211" on="0"/>
        <pt x="280" y="175" on="0"/>
        <pt x="313" y="151" on="0"/>
        <pt x="341" y="151" on="1"/>
        <pt x="363" y="151" on="0"/>
        <pt x="422" y="190" on="0"/>
        <pt x="485" y="251" on="0"/>
        <pt x="545" y="324" on="0"/>
        <pt x="593" y="394" on="0"/>
        <pt x="623" y="450" on="0"/>
        <pt x="623" y="463" on="1"/>
        <pt x="623" y="482" on="0"/>
        <pt x="597" y="513" on="0"/>
        <pt x="559" y="535" on="0"/>
        <pt x="516" y="546" on="0"/>
      </contour>
      <contour>
        <pt x="1193" y="288" on="1"/>
        <pt x="1175" y="271" on="0"/>
        <pt x="1115" y="211" on="0"/>
        <pt x="1038" y="141" on="0"/>
        <pt x="951" y="70" on="0"/>
        <pt x="860" y="12" on="0"/>
        <pt x="772" y="-25" on="0"/>
        <pt x="733" y="-25" on="1"/>
        <pt x="698" y="-25" on="0"/>
        <pt x="648" y="5" on="0"/>
        <pt x="615" y="53" on="0"/>
        <pt x="599" y="114" on="0"/>
        <pt x="599" y="146" on="1"/>
        <pt x="599" y="167" on="0"/>
        <pt x="605" y="208" on="0"/>
        <pt x="612" y="226" on="1"/>
        <pt x="581" y="184" on="0"/>
        <pt x="502" y="95" on="0"/>
        <pt x="411" y="22" on="0"/>
        <pt x="312" y="-25" on="0"/>
        <pt x="261" y="-25" on="1"/>
        <pt x="235" y="-25" on="0"/>
        <pt x="166" y="-4" on="0"/>
        <pt x="104" y="44" on="0"/>
        <pt x="62" y="120" on="0"/>
        <pt x="62" y="175" on="1"/>
        <pt x="62" y="216" on="0"/>
        <pt x="87" y="330" on="0"/>
        <pt x="138" y="453" on="0"/>
        <pt x="217" y="573" on="0"/>
        <pt x="325" y="668" on="0"/>
        <pt x="463" y="727" on="0"/>
        <pt x="548" y="727" on="1"/>
        <pt x="592" y="727" on="0"/>
        <pt x="658" y="705" on="0"/>
        <pt x="681" y="692" on="1"/>
        <pt x="707" y="676" on="0"/>
        <pt x="727" y="657" on="1"/>
        <pt x="744" y="666" on="0"/>
        <pt x="762" y="674" on="1"/>
        <pt x="777" y="681" on="0"/>
        <pt x="810" y="692" on="0"/>
        <pt x="822" y="692" on="1"/>
        <pt x="860" y="692" on="0"/>
        <pt x="908" y="650" on="0"/>
        <pt x="908" y="625" on="1"/>
        <pt x="908" y="618" on="0"/>
        <pt x="907" y="614" on="1"/>
        <pt x="902" y="595" on="0"/>
        <pt x="881" y="537" on="0"/>
        <pt x="855" y="466" on="0"/>
        <pt x="828" y="389" on="0"/>
        <pt x="806" y="315" on="0"/>
        <pt x="792" y="250" on="0"/>
        <pt x="792" y="227" on="1"/>
        <pt x="792" y="197" on="0"/>
        <pt x="812" y="158" on="0"/>
        <pt x="836" y="158" on="1"/>
        <pt x="851" y="158" on="0"/>
        <pt x="892" y="177" on="0"/>
        <pt x="940" y="209" on="0"/>
        <pt x="991" y="250" on="0"/>
        <pt x="1015" y="271" on="1"/>
        <pt x="1071" y="321" on="0"/>
        <pt x="1134" y="385" on="1"/>
        <pt x="1150" y="398" on="0"/>
        <pt x="1165" y="398" on="1"/>
        <pt x="1185" y="398" on="0"/>
        <pt x="1212" y="359" on="0"/>
        <pt x="1212" y="335" on="1"/>
        <pt x="1212" y="307" on="0"/>
      </contour>
    </TTGlyph>
    <TTGlyph name="aacute" xMin="86" yMin="-25" xMax="1236" yMax="1307">
      <component glyphName="a" x="24" y="0" flags="0x1204"/>
      <component glyphName="acute" x="159" y="0" flags="0x1004"/>
    </TTGlyph>
    <TTGlyph name="acircumflex" xMin="86" yMin="-25" xMax="1236" yMax="1199">
      <component glyphName="a" x="24" y="0" flags="0x1204"/>
      <component glyphName="circumflex" x="-385" y="0" flags="0x1004"/>
    </TTGlyph>
    <TTGlyph name="acute" xMin="514" yMin="826" xMax="907" yMax="1307">
      <contour>
        <pt x="545" y="942" on="1"/>
        <pt x="581" y="1005" on="0"/>
        <pt x="654" y="1129" on="0"/>
        <pt x="689" y="1192" on="1"/>
        <pt x="727" y="1255" on="0"/>
        <pt x="807" y="1307" on="0"/>
        <pt x="839" y="1307" on="1"/>
        <pt x="869" y="1307" on="0"/>
        <pt x="907" y="1269" on="0"/>
        <pt x="907" y="1238" on="1"/>
        <pt x="907" y="1218" on="0"/>
        <pt x="889" y="1170" on="0"/>
        <pt x="866" y="1144" on="1"/>
        <pt x="812" y="1081" on="0"/>
        <pt x="703" y="957" on="0"/>
        <pt x="649" y="894" on="1"/>
        <pt x="623" y="860" on="0"/>
        <pt x="565" y="826" on="0"/>
        <pt x="545" y="826" on="1"/>
        <pt x="514" y="826" on="0"/>
        <pt x="514" y="858" on="1"/>
        <pt x="514" y="887" on="0"/>
      </contour>
    </TTGlyph>
    <TTGlyph name="adieresis" xMin="86" yMin="-25" xMax="1236" yMax="1021">
      <component glyphName="a" x="24" y="0" flags="0x1204"/>
      <component glyphName="dieresis" x="-240" y="-91" flags="0x1004"/>
    </TTGlyph>
    <TTGlyph name="ae" xMin="145" yMin="-25" xMax="1569" yMax="728">
      <contour>
        <pt x="1171" y="590" on="1"/>
        <pt x="1166" y="591" on="0"/>
        <pt x="1158" y="591" on="0"/>
        <pt x="1153" y="591" on="1"/>
        <pt x="1115" y="591" on="0"/>
        <pt x="1049" y="561" on="0"/>
        <pt x="994" y="512" on="0"/>
        <pt x="951" y="450" on="0"/>
        <pt x="917" y="389" on="0"/>
        <pt x="894" y="333" on="0"/>
        <pt x="888" y="314" on="1"/>
        <pt x="923" y="332" on="0"/>
        <pt x="998" y="378" on="0"/>
        <pt x="1064" y="420" on="0"/>
        <pt x="1113" y="454" on="0"/>
        <pt x="1123" y="460" on="1"/>
        <pt x="1168" y="488" on="0"/>
        <pt x="1202" y="537" on="0"/>
        <pt x="1202" y="555" on="1"/>
        <pt x="1202" y="570" on="0"/>
        <pt x="1183" y="588" on="0"/>
      </contour>
      <contour>
        <pt x="583" y="546" on="1"/>
        <pt x="536" y="546" on="0"/>
        <pt x="448" y="498" on="0"/>
        <pt x="380" y="420" on="0"/>
        <pt x="340" y="323" on="0"/>
        <pt x="340" y="274" on="1"/>
        <pt x="340" y="254" on="0"/>
        <pt x="345" y="211" on="0"/>
        <pt x="363" y="175" on="0"/>
        <pt x="396" y="151" on="0"/>
        <pt x="424" y="151" on="1"/>
        <pt x="447" y="151" on="0"/>
        <pt x="508" y="192" on="0"/>
        <pt x="573" y="257" on="0"/>
        <pt x="636" y="335" on="0"/>
        <pt x="685" y="409" on="0"/>
        <pt x="716" y="469" on="0"/>
        <pt x="716" y="483" on="1"/>
        <pt x="700" y="500" on="0"/>
        <pt x="680" y="514" on="1"/>
        <pt x="663" y="526" on="0"/>
        <pt x="614" y="546" on="0"/>
      </contour>
      <contour>
        <pt x="1207" y="728" on="1"/>
        <pt x="1290" y="728" on="0"/>
        <pt x="1372" y="648" on="0"/>
        <pt x="1372" y="577" on="1"/>
        <pt x="1372" y="535" on="0"/>
        <pt x="1328" y="443" on="0"/>
        <pt x="1220" y="348" on="0"/>
        <pt x="1039" y="249" on="0"/>
        <pt x="903" y="199" on="1"/>
        <pt x="908" y="170" on="0"/>
        <pt x="960" y="137" on="0"/>
        <pt x="1003" y="137" on="1"/>
        <pt x="1049" y="137" on="0"/>
        <pt x="1154" y="164" on="0"/>
        <pt x="1257" y="206" on="0"/>
        <pt x="1355" y="255" on="0"/>
        <pt x="1434" y="299" on="0"/>
        <pt x="1487" y="331" on="0"/>
        <pt x="1496" y="335" on="1"/>
        <pt x="1505" y="341" on="0"/>
        <pt x="1520" y="343" on="0"/>
        <pt x="1526" y="343" on="1"/>
        <pt x="1538" y="343" on="0"/>
        <pt x="1554" y="332" on="0"/>
        <pt x="1565" y="317" on="0"/>
        <pt x="1569" y="300" on="0"/>
        <pt x="1569" y="294" on="1"/>
        <pt x="1569" y="285" on="0"/>
        <pt x="1565" y="260" on="0"/>
        <pt x="1552" y="244" on="1"/>
        <pt x="1547" y="239" on="0"/>
        <pt x="1490" y="195" on="0"/>
        <pt x="1400" y="135" on="0"/>
        <pt x="1281" y="68" on="0"/>
        <pt x="1148" y="12" on="0"/>
        <pt x="1004" y="-25" on="0"/>
        <pt x="934" y="-25" on="1"/>
        <pt x="885" y="-25" on="0"/>
        <pt x="805" y="12" on="0"/>
        <pt x="746" y="77" on="0"/>
        <pt x="710" y="163" on="0"/>
        <pt x="705" y="212" on="1"/>
        <pt x="672" y="171" on="0"/>
        <pt x="590" y="86" on="0"/>
        <pt x="497" y="18" on="0"/>
        <pt x="395" y="-25" on="0"/>
        <pt x="344" y="-25" on="1"/>
        <pt x="318" y="-25" on="0"/>
        <pt x="249" y="-4" on="0"/>
        <pt x="187" y="44" on="0"/>
        <pt x="145" y="120" on="0"/>
        <pt x="145" y="175" on="1"/>
        <pt x="145" y="216" on="0"/>
        <pt x="170" y="330" on="0"/>
        <pt x="221" y="453" on="0"/>
        <pt x="300" y="573" on="0"/>
        <pt x="408" y="668" on="0"/>
        <pt x="546" y="727" on="0"/>
        <pt x="631" y="727" on="1"/>
        <pt x="707" y="727" on="0"/>
        <pt x="821" y="664" on="0"/>
        <pt x="877" y="604" on="1"/>
        <pt x="943" y="659" on="0"/>
        <pt x="1108" y="728" on="0"/>
      </contour>
    </TTGlyph>
    <TTGlyph name="agrave" xMin="86" yMin="-25" xMax="1236" yMax="1307">
      <component glyphName="a" x="24" y="0" flags="0x1204"/>
      <component glyphName="grave" x="-14" y="0" flags="0x1004"/>
    </TTGlyph>
    <TTGlyph name="ampersand" xMin="173" yMin="-54" xMax="1114" yMax="1146">
      <contour>
        <pt x="479" y="361" on="1"/>
        <pt x="356" y="260" on="0"/>
        <pt x="356" y="207" on="1"/>
        <pt x="356" y="178" on="0"/>
        <pt x="402" y="155" on="0"/>
        <pt x="432" y="155" on="1"/>
        <pt x="482" y="155" on="0"/>
        <pt x="534" y="181" on="1"/>
        <pt x="551" y="189" on="0"/>
        <pt x="627" y="239" on="0"/>
        <pt x="687" y="282" on="1"/>
        <pt x="566" y="442" on="1"/>
        <pt x="524" y="399" on="0"/>
      </contour>
      <contour>
        <pt x="967" y="700" on="1"/>
        <pt x="951" y="687" on="0"/>
        <pt x="918" y="676" on="0"/>
        <pt x="902" y="676" on="1"/>
        <pt x="884" y="676" on="0"/>
        <pt x="851" y="689" on="0"/>
        <pt x="826" y="710" on="0"/>
        <pt x="812" y="736" on="0"/>
        <pt x="812" y="750" on="1"/>
        <pt x="812" y="762" on="0"/>
        <pt x="844" y="801" on="0"/>
        <pt x="881" y="848" on="0"/>
        <pt x="913" y="901" on="0"/>
        <pt x="913" y="927" on="1"/>
        <pt x="913" y="957" on="0"/>
        <pt x="870" y="994" on="0"/>
        <pt x="839" y="994" on="1"/>
        <pt x="799" y="994" on="0"/>
        <pt x="706" y="950" on="0"/>
        <pt x="627" y="881" on="0"/>
        <pt x="574" y="797" on="0"/>
        <pt x="574" y="757" on="1"/>
        <pt x="574" y="685" on="0"/>
        <pt x="633" y="613" on="1"/>
        <pt x="802" y="406" on="1"/>
        <pt x="826" y="436" on="0"/>
        <pt x="865" y="497" on="0"/>
        <pt x="879" y="521" on="1"/>
        <pt x="1053" y="521" on="1"/>
        <pt x="1026" y="456" on="0"/>
        <pt x="948" y="329" on="0"/>
        <pt x="895" y="266" on="1"/>
        <pt x="911" y="241" on="0"/>
        <pt x="939" y="199" on="0"/>
        <pt x="969" y="154" on="0"/>
        <pt x="1006" y="102" on="0"/>
        <pt x="1032" y="68" on="1"/>
        <pt x="1040" y="57" on="0"/>
        <pt x="1048" y="33" on="0"/>
        <pt x="1048" y="23" on="1"/>
        <pt x="1048" y="-9" on="0"/>
        <pt x="1003" y="-54" on="0"/>
        <pt x="971" y="-54" on="1"/>
        <pt x="949" y="-54" on="0"/>
        <pt x="902" y="-28" on="0"/>
        <pt x="879" y="2" on="1"/>
        <pt x="776" y="142" on="1"/>
        <pt x="666" y="60" on="0"/>
        <pt x="613" y="30" on="1"/>
        <pt x="509" y="-28" on="0"/>
        <pt x="423" y="-28" on="1"/>
        <pt x="371" y="-28" on="0"/>
        <pt x="280" y="3" on="0"/>
        <pt x="212" y="60" on="0"/>
        <pt x="173" y="142" on="0"/>
        <pt x="173" y="193" on="1"/>
        <pt x="173" y="230" on="0"/>
        <pt x="224" y="329" on="0"/>
        <pt x="305" y="430" on="0"/>
        <pt x="403" y="522" on="0"/>
        <pt x="451" y="553" on="1"/>
        <pt x="464" y="561" on="0"/>
        <pt x="464" y="566" on="1"/>
        <pt x="430" y="619" on="0"/>
        <pt x="399" y="719" on="0"/>
        <pt x="399" y="767" on="1"/>
        <pt x="399" y="820" on="0"/>
        <pt x="439" y="918" on="0"/>
        <pt x="509" y="1002" on="0"/>
        <pt x="602" y="1071" on="0"/>
        <pt x="706" y="1120" on="0"/>
        <pt x="816" y="1146" on="0"/>
        <pt x="869" y="1146" on="1"/>
        <pt x="945" y="1146" on="0"/>
        <pt x="1069" y="1085" on="0"/>
        <pt x="1101" y="1017" on="1"/>
        <pt x="1114" y="990" on="0"/>
        <pt x="1114" y="958" on="1"/>
        <pt x="1114" y="922" on="0"/>
        <pt x="1084" y="850" on="0"/>
        <pt x="1040" y="783" on="0"/>
        <pt x="989" y="723" on="0"/>
      </contour>
    </TTGlyph>
    <TTGlyph name="aring" xMin="86" yMin="-25" xMax="1236" yMax="1199">
      <component glyphName="a" x="24" y="0" flags="0x1204"/>
      <component glyphName="ring" x="-112" y="-15" flags="0x1004"/>
    </TTGlyph>
    <TTGlyph name="asciicircum" xMin="233" yMin="712" xMax="1125" yMax="1372">
      <contour>
        <pt x="1124" y="815" on="1"/>
        <pt x="1125" y="812" on="0"/>
        <pt x="1125" y="805" on="0"/>
        <pt x="1125" y="802" on="1"/>
        <pt x="1125" y="783" on="0"/>
        <pt x="1105" y="750" on="0"/>
        <pt x="1074" y="726" on="0"/>
        <pt x="1036" y="712" on="0"/>
        <pt x="1018" y="712" on="1"/>
        <pt x="996" y="712" on="0"/>
        <pt x="962" y="736" on="0"/>
        <pt x="958" y="762" on="1"/>
        <pt x="929" y="883" on="0"/>
        <pt x="873" y="1124" on="0"/>
        <pt x="844" y="1245" on="1"/>
        <pt x="787" y="1185" on="0"/>
        <pt x="686" y="1077" on="0"/>
        <pt x="587" y="972" on="0"/>
        <pt x="485" y="864" on="0"/>
        <pt x="428" y="804" on="1"/>
        <pt x="387" y="757" on="0"/>
        <pt x="308" y="717" on="0"/>
        <pt x="279" y="717" on="1"/>
        <pt x="259" y="717" on="0"/>
        <pt x="233" y="735" on="0"/>
        <pt x="233" y="751" on="1"/>
        <pt x="233" y="761" on="0"/>
        <pt x="246" y="788" on="0"/>
        <pt x="260" y="804" on="1"/>
        <pt x="331" y="880" on="0"/>
        <pt x="461" y="1020" on="0"/>
        <pt x="590" y="1157" on="0"/>
        <pt x="720" y="1296" on="0"/>
        <pt x="791" y="1372" on="1"/>
        <pt x="996" y="1372" on="1"/>
        <pt x="1012" y="1296" on="0"/>
        <pt x="1045" y="1160" on="0"/>
        <pt x="1076" y="1027" on="0"/>
        <pt x="1108" y="891" on="0"/>
      </contour>
    </TTGlyph>
    <TTGlyph name="asciitilde" xMin="243" yMin="1188" xMax="1240" yMax="1495">
      <contour>
        <pt x="1240" y="1391" on="1"/>
        <pt x="1168" y="1285" on="0"/>
        <pt x="1013" y="1188" on="0"/>
        <pt x="925" y="1188" on="1"/>
        <pt x="843" y="1188" on="0"/>
        <pt x="717" y="1245" on="1"/>
        <pt x="589" y="1314" on="0"/>
        <pt x="524" y="1321" on="1"/>
        <pt x="496" y="1321" on="0"/>
        <pt x="447" y="1311" on="0"/>
        <pt x="399" y="1287" on="0"/>
        <pt x="351" y="1248" on="0"/>
        <pt x="326" y="1220" on="1"/>
        <pt x="243" y="1297" on="1"/>
        <pt x="315" y="1403" on="0"/>
        <pt x="463" y="1495" on="0"/>
        <pt x="553" y="1495" on="1"/>
        <pt x="629" y="1495" on="0"/>
        <pt x="762" y="1431" on="1"/>
        <pt x="826" y="1394" on="0"/>
        <pt x="931" y="1358" on="0"/>
        <pt x="970" y="1358" on="1"/>
        <pt x="1016" y="1358" on="0"/>
        <pt x="1099" y="1407" on="0"/>
        <pt x="1153" y="1469" on="1"/>
      </contour>
    </TTGlyph>
    <TTGlyph name="asterisk" xMin="265" yMin="721" xMax="981" yMax="1368">
      <contour>
        <pt x="966" y="1053" on="1"/>
        <pt x="681" y="995" on="1"/>
        <pt x="761" y="791" on="1"/>
        <pt x="611" y="721" on="1"/>
        <pt x="570" y="950" on="1"/>
        <pt x="337" y="721" on="1"/>
        <pt x="265" y="823" on="1"/>
        <pt x="523" y="1008" on="1"/>
        <pt x="299" y="1077" on="1"/>
        <pt x="412" y="1217" on="1"/>
        <pt x="601" y="1106" on="1"/>
        <pt x="699" y="1368" on="1"/>
        <pt x="854" y="1368" on="1"/>
        <pt x="698" y="1094" on="1"/>
        <pt x="981" y="1192" on="1"/>
      </contour>
    </TTGlyph>
    <TTGlyph name="at" xMin="178" yMin="-155" xMax="1971" yMax="1456">
      <contour>
        <pt x="1274" y="1008" on="1"/>
        <pt x="1190" y="1008" on="0"/>
        <pt x="1015" y="945" on="0"/>
        <pt x="861" y="831" on="0"/>
        <pt x="741" y="670" on="0"/>
        <pt x="711" y="573" on="1"/>
        <pt x="635" y="330" on="0"/>
        <pt x="860" y="330" on="1"/>
        <pt x="946" y="330" on="0"/>
        <pt x="1109" y="405" on="0"/>
        <pt x="1258" y="565" on="0"/>
        <pt x="1389" y="813" on="0"/>
        <pt x="1443" y="987" on="1"/>
        <pt x="1428" y="990" on="1"/>
        <pt x="1412" y="994" on="0"/>
        <pt x="1363" y="1001" on="0"/>
        <pt x="1302" y="1008" on="0"/>
      </contour>
      <contour>
        <pt x="825" y="-155" on="1"/>
        <pt x="605" y="-155" on="0"/>
        <pt x="325" y="-37" on="0"/>
        <pt x="185" y="164" on="0"/>
        <pt x="171" y="430" on="0"/>
        <pt x="217" y="578" on="1"/>
        <pt x="261" y="720" on="0"/>
        <pt x="403" y="960" on="0"/>
        <pt x="581" y="1155" on="0"/>
        <pt x="790" y="1304" on="0"/>
        <pt x="1010" y="1405" on="0"/>
        <pt x="1235" y="1456" on="0"/>
        <pt x="1342" y="1456" on="1"/>
        <pt x="1450" y="1456" on="0"/>
        <pt x="1643" y="1419" on="0"/>
        <pt x="1799" y="1342" on="0"/>
        <pt x="1913" y="1227" on="0"/>
        <pt x="1972" y="1072" on="0"/>
        <pt x="1970" y="875" on="0"/>
        <pt x="1933" y="756" on="1"/>
        <pt x="1900" y="649" on="0"/>
        <pt x="1807" y="483" on="0"/>
        <pt x="1697" y="359" on="0"/>
        <pt x="1580" y="274" on="0"/>
        <pt x="1466" y="222" on="0"/>
        <pt x="1361" y="199" on="0"/>
        <pt x="1319" y="199" on="1"/>
        <pt x="1284" y="199" on="0"/>
        <pt x="1251" y="218" on="0"/>
        <pt x="1240" y="250" on="0"/>
        <pt x="1248" y="292" on="0"/>
        <pt x="1256" y="316" on="1"/>
        <pt x="1328" y="548" on="1"/>
        <pt x="1298" y="489" on="0"/>
        <pt x="1198" y="366" on="0"/>
        <pt x="1065" y="264" on="0"/>
        <pt x="899" y="199" on="0"/>
        <pt x="803" y="199" on="1"/>
        <pt x="717" y="199" on="0"/>
        <pt x="599" y="254" on="0"/>
        <pt x="537" y="356" on="0"/>
        <pt x="533" y="500" on="0"/>
        <pt x="561" y="590" on="1"/>
        <pt x="581" y="655" on="0"/>
        <pt x="660" y="785" on="0"/>
        <pt x="769" y="905" on="0"/>
        <pt x="903" y="1008" on="0"/>
        <pt x="1052" y="1084" on="0"/>
        <pt x="1214" y="1128" on="0"/>
        <pt x="1295" y="1128" on="1"/>
        <pt x="1311" y="1128" on="0"/>
        <pt x="1368" y="1124" on="0"/>
        <pt x="1432" y="1117" on="0"/>
        <pt x="1496" y="1108" on="0"/>
        <pt x="1518" y="1104" on="1"/>
        <pt x="1547" y="1099" on="0"/>
        <pt x="1573" y="1077" on="0"/>
        <pt x="1584" y="1046" on="0"/>
        <pt x="1587" y="1008" on="0"/>
        <pt x="1591" y="987" on="1"/>
        <pt x="1383" y="317" on="1"/>
        <pt x="1444" y="317" on="0"/>
        <pt x="1554" y="366" on="0"/>
        <pt x="1652" y="473" on="0"/>
        <pt x="1737" y="640" on="0"/>
        <pt x="1774" y="758" on="1"/>
        <pt x="1809" y="869" on="0"/>
        <pt x="1809" y="1038" on="0"/>
        <pt x="1756" y="1162" on="0"/>
        <pt x="1657" y="1245" on="0"/>
        <pt x="1530" y="1296" on="0"/>
        <pt x="1382" y="1317" on="0"/>
        <pt x="1305" y="1317" on="1"/>
        <pt x="1154" y="1317" on="0"/>
        <pt x="867" y="1217" on="0"/>
        <pt x="621" y="1027" on="0"/>
        <pt x="430" y="752" on="0"/>
        <pt x="376" y="578" on="1"/>
        <pt x="333" y="440" on="0"/>
        <pt x="353" y="219" on="0"/>
        <pt x="478" y="66" on="0"/>
        <pt x="709" y="-16" on="0"/>
        <pt x="878" y="-16" on="1"/>
        <pt x="965" y="-16" on="0"/>
        <pt x="1113" y="6" on="0"/>
        <pt x="1231" y="39" on="0"/>
        <pt x="1276" y="58" on="1"/>
        <pt x="1322" y="78" on="0"/>
        <pt x="1380" y="110" on="0"/>
        <pt x="1396" y="122" on="1"/>
        <pt x="1411" y="134" on="1"/>
        <pt x="1474" y="42" on="1"/>
        <pt x="1419" y="-3" on="0"/>
        <pt x="1276" y="-76" on="0"/>
        <pt x="1109" y="-127" on="0"/>
        <pt x="923" y="-155" on="0"/>
      </contour>
    </TTGlyph>
    <TTGlyph name="atilde" xMin="86" yMin="-25" xMax="1236" yMax="1035">
      <component glyphName="a" x="24" y="0" flags="0x1204"/>
      <component glyphName="tilde" x="-392" y="0" flags="0x1004"/>
    </TTGlyph>
    <TTGlyph name="b" xMin="84" yMin="-39" xMax="1218" yMax="1323">
      <contour>
        <pt x="607" y="561" on="1"/>
        <pt x="550" y="561" on="0"/>
        <pt x="436" y="506" on="0"/>
        <pt x="345" y="416" on="0"/>
        <pt x="287" y="303" on="0"/>
        <pt x="287" y="245" on="1"/>
        <pt x="287" y="229" on="0"/>
        <pt x="293" y="196" on="0"/>
        <pt x="312" y="168" on="0"/>
        <pt x="348" y="150" on="0"/>
        <pt x="378" y="150" on="1"/>
        <pt x="436" y="150" on="0"/>
        <pt x="545" y="205" on="0"/>
        <pt x="631" y="295" on="0"/>
        <pt x="683" y="408" on="0"/>
        <pt x="683" y="465" on="1"/>
        <pt x="683" y="480" on="0"/>
        <pt x="678" y="514" on="0"/>
        <pt x="662" y="542" on="0"/>
        <pt x="632" y="561" on="0"/>
      </contour>
      <contour>
        <pt x="691" y="158" on="1"/>
        <pt x="606" y="56" on="0"/>
        <pt x="415" y="-39" on="0"/>
        <pt x="304" y="-39" on="1"/>
        <pt x="243" y="-39" on="0"/>
        <pt x="159" y="-4" on="0"/>
        <pt x="107" y="56" on="0"/>
        <pt x="84" y="136" on="0"/>
        <pt x="84" y="181" on="1"/>
        <pt x="84" y="232" on="0"/>
        <pt x="110" y="341" on="0"/>
        <pt x="131" y="392" on="1"/>
        <pt x="145" y="425" on="0"/>
        <pt x="163" y="469" on="0"/>
        <pt x="175" y="500" on="0"/>
        <pt x="184" y="523" on="0"/>
        <pt x="194" y="548" on="0"/>
        <pt x="208" y="581" on="0"/>
        <pt x="220" y="607" on="1"/>
        <pt x="512" y="1256" on="1"/>
        <pt x="518" y="1269" on="0"/>
        <pt x="541" y="1293" on="0"/>
        <pt x="571" y="1312" on="0"/>
        <pt x="606" y="1323" on="0"/>
        <pt x="624" y="1323" on="1"/>
        <pt x="670" y="1323" on="0"/>
        <pt x="707" y="1287" on="0"/>
        <pt x="707" y="1261" on="1"/>
        <pt x="707" y="1241" on="0"/>
        <pt x="687" y="1194" on="0"/>
        <pt x="675" y="1174" on="1"/>
        <pt x="601" y="1032" on="0"/>
        <pt x="469" y="739" on="0"/>
        <pt x="395" y="596" on="1"/>
        <pt x="427" y="621" on="0"/>
        <pt x="499" y="668" on="0"/>
        <pt x="577" y="705" on="0"/>
        <pt x="661" y="728" on="0"/>
        <pt x="705" y="728" on="1"/>
        <pt x="736" y="728" on="0"/>
        <pt x="800" y="704" on="0"/>
        <pt x="853" y="658" on="0"/>
        <pt x="886" y="591" on="0"/>
        <pt x="886" y="547" on="1"/>
        <pt x="886" y="537" on="0"/>
        <pt x="874" y="477" on="0"/>
        <pt x="851" y="402" on="0"/>
        <pt x="818" y="323" on="0"/>
        <pt x="798" y="293" on="1"/>
        <pt x="805" y="282" on="0"/>
        <pt x="827" y="277" on="0"/>
        <pt x="841" y="277" on="1"/>
        <pt x="887" y="277" on="0"/>
        <pt x="978" y="301" on="0"/>
        <pt x="1059" y="336" on="0"/>
        <pt x="1127" y="374" on="0"/>
        <pt x="1150" y="388" on="1"/>
        <pt x="1162" y="401" on="0"/>
        <pt x="1176" y="401" on="1"/>
        <pt x="1193" y="401" on="0"/>
        <pt x="1218" y="371" on="0"/>
        <pt x="1218" y="347" on="1"/>
        <pt x="1218" y="324" on="0"/>
        <pt x="1199" y="279" on="0"/>
        <pt x="1174" y="252" on="1"/>
        <pt x="1129" y="225" on="0"/>
        <pt x="1038" y="177" on="0"/>
        <pt x="944" y="142" on="0"/>
        <pt x="847" y="121" on="0"/>
        <pt x="797" y="121" on="1"/>
        <pt x="765" y="121" on="0"/>
        <pt x="711" y="139" on="0"/>
      </contour>
    </TTGlyph>
    <TTGlyph name="backslash" xMin="144" yMin="-185" xMax="1245" yMax="1554">
      <contour>
        <pt x="1244" y="1476" on="1"/>
        <pt x="1007" y="1072" on="0"/>
        <pt x="534" y="264" on="0"/>
        <pt x="297" y="-140" on="1"/>
        <pt x="283" y="-165" on="0"/>
        <pt x="243" y="-185" on="0"/>
        <pt x="221" y="-185" on="1"/>
        <pt x="192" y="-185" on="0"/>
        <pt x="144" y="-155" on="0"/>
        <pt x="144" y="-131" on="1"/>
        <pt x="144" y="-126" on="0"/>
        <pt x="146" y="-113" on="0"/>
        <pt x="149" y="-109" on="1"/>
        <pt x="384" y="298" on="0"/>
        <pt x="848" y="1103" on="0"/>
        <pt x="1083" y="1510" on="1"/>
        <pt x="1097" y="1533" on="0"/>
        <pt x="1140" y="1554" on="0"/>
        <pt x="1164" y="1554" on="1"/>
        <pt x="1202" y="1554" on="0"/>
        <pt x="1245" y="1518" on="0"/>
        <pt x="1245" y="1491" on="1"/>
        <pt x="1245" y="1481" on="0"/>
      </contour>
    </TTGlyph>
    <TTGlyph name="bar" xMin="295" yMin="-205" xMax="992" yMax="1573">
      <contour>
        <pt x="992" y="1573" on="1"/>
        <pt x="451" y="-205" on="1"/>
        <pt x="295" y="-205" on="1"/>
        <pt x="828" y="1573" on="1"/>
      </contour>
    </TTGlyph>
    <TTGlyph name="braceleft" xMin="235" yMin="-205" xMax="1434" yMax="1513">
      <contour>
        <pt x="1405" y="1509" on="1"/>
        <pt x="1419" y="1509" on="0"/>
        <pt x="1434" y="1487" on="0"/>
        <pt x="1434" y="1470" on="1"/>
        <pt x="1434" y="1454" on="0"/>
        <pt x="1420" y="1416" on="0"/>
        <pt x="1393" y="1383" on="0"/>
        <pt x="1351" y="1361" on="0"/>
        <pt x="1323" y="1361" on="1"/>
        <pt x="1254" y="1361" on="0"/>
        <pt x="1168" y="1348" on="0"/>
        <pt x="1109" y="1311" on="0"/>
        <pt x="1065" y="1245" on="0"/>
        <pt x="1037" y="1193" on="1"/>
        <pt x="890" y="916" on="1"/>
        <pt x="851" y="845" on="0"/>
        <pt x="795" y="760" on="0"/>
        <pt x="742" y="712" on="0"/>
        <pt x="682" y="690" on="0"/>
        <pt x="638" y="684" on="1"/>
        <pt x="662" y="661" on="0"/>
        <pt x="681" y="610" on="0"/>
        <pt x="681" y="583" on="1"/>
        <pt x="681" y="548" on="0"/>
        <pt x="654" y="476" on="0"/>
        <pt x="634" y="438" on="1"/>
        <pt x="418" y="29" on="1"/>
        <pt x="407" y="6" on="0"/>
        <pt x="408" y="-3" on="1"/>
        <pt x="408" y="-32" on="0"/>
        <pt x="488" y="-57" on="0"/>
        <pt x="566" y="-57" on="1"/>
        <pt x="587" y="-57" on="0"/>
        <pt x="607" y="-81" on="0"/>
        <pt x="607" y="-115" on="0"/>
        <pt x="590" y="-152" on="0"/>
        <pt x="559" y="-184" on="0"/>
        <pt x="513" y="-205" on="0"/>
        <pt x="485" y="-205" on="1"/>
        <pt x="361" y="-205" on="0"/>
        <pt x="235" y="-132" on="0"/>
        <pt x="235" y="-59" on="1"/>
        <pt x="235" y="-48" on="0"/>
        <pt x="238" y="-27" on="0"/>
        <pt x="240" y="-16" on="1"/>
        <pt x="243" y="-2" on="0"/>
        <pt x="250" y="22" on="0"/>
        <pt x="264" y="59" on="0"/>
        <pt x="291" y="114" on="0"/>
        <pt x="337" y="204" on="0"/>
        <pt x="406" y="336" on="0"/>
        <pt x="456" y="430" on="1"/>
        <pt x="474" y="465" on="0"/>
        <pt x="502" y="539" on="0"/>
        <pt x="502" y="567" on="1"/>
        <pt x="502" y="590" on="0"/>
        <pt x="476" y="618" on="0"/>
        <pt x="444" y="618" on="1"/>
        <pt x="422" y="618" on="0"/>
        <pt x="401" y="643" on="0"/>
        <pt x="401" y="661" on="1"/>
        <pt x="401" y="676" on="0"/>
        <pt x="416" y="711" on="0"/>
        <pt x="445" y="739" on="0"/>
        <pt x="489" y="758" on="0"/>
        <pt x="519" y="758" on="1"/>
        <pt x="552" y="758" on="0"/>
        <pt x="606" y="777" on="0"/>
        <pt x="656" y="817" on="0"/>
        <pt x="703" y="880" on="0"/>
        <pt x="727" y="924" on="1"/>
        <pt x="884" y="1226" on="1"/>
        <pt x="931" y="1314" on="0"/>
        <pt x="1012" y="1426" on="0"/>
        <pt x="1108" y="1490" on="0"/>
        <pt x="1235" y="1513" on="0"/>
        <pt x="1328" y="1513" on="1"/>
      </contour>
    </TTGlyph>
    <TTGlyph name="braceright" xMin="7" yMin="-205" xMax="1187" yMax="1513">
      <contour>
        <pt x="37" y="-201" on="1"/>
        <pt x="22" y="-201" on="0"/>
        <pt x="7" y="-179" on="0"/>
        <pt x="7" y="-162" on="1"/>
        <pt x="7" y="-146" on="0"/>
        <pt x="21" y="-107" on="0"/>
        <pt x="48" y="-75" on="0"/>
        <pt x="89" y="-53" on="0"/>
        <pt x="117" y="-53" on="1"/>
        <pt x="185" y="-53" on="0"/>
        <pt x="270" y="-40" on="0"/>
        <pt x="329" y="-3" on="0"/>
        <pt x="373" y="63" on="0"/>
        <pt x="400" y="115" on="1"/>
        <pt x="544" y="392" on="1"/>
        <pt x="583" y="462" on="0"/>
        <pt x="637" y="548" on="0"/>
        <pt x="690" y="596" on="0"/>
        <pt x="749" y="618" on="0"/>
        <pt x="793" y="624" on="1"/>
        <pt x="769" y="647" on="0"/>
        <pt x="748" y="696" on="0"/>
        <pt x="748" y="723" on="1"/>
        <pt x="748" y="755" on="0"/>
        <pt x="774" y="831" on="0"/>
        <pt x="794" y="870" on="1"/>
        <pt x="1006" y="1279" on="1"/>
        <pt x="1015" y="1297" on="0"/>
        <pt x="1015" y="1309" on="1"/>
        <pt x="1015" y="1339" on="0"/>
        <pt x="935" y="1365" on="0"/>
        <pt x="856" y="1365" on="1"/>
        <pt x="835" y="1365" on="0"/>
        <pt x="815" y="1389" on="0"/>
        <pt x="815" y="1423" on="0"/>
        <pt x="831" y="1461" on="0"/>
        <pt x="863" y="1492" on="0"/>
        <pt x="907" y="1513" on="0"/>
        <pt x="936" y="1513" on="1"/>
        <pt x="1060" y="1513" on="0"/>
        <pt x="1187" y="1439" on="0"/>
        <pt x="1187" y="1365" on="1"/>
        <pt x="1187" y="1343" on="0"/>
        <pt x="1183" y="1324" on="1"/>
        <pt x="1180" y="1310" on="0"/>
        <pt x="1174" y="1286" on="0"/>
        <pt x="1160" y="1250" on="0"/>
        <pt x="1135" y="1194" on="0"/>
        <pt x="1090" y="1104" on="0"/>
        <pt x="1022" y="972" on="0"/>
        <pt x="973" y="878" on="1"/>
        <pt x="955" y="843" on="0"/>
        <pt x="927" y="771" on="0"/>
        <pt x="927" y="743" on="1"/>
        <pt x="927" y="719" on="0"/>
        <pt x="953" y="690" on="0"/>
        <pt x="987" y="690" on="1"/>
        <pt x="1009" y="690" on="0"/>
        <pt x="1030" y="664" on="0"/>
        <pt x="1030" y="645" on="1"/>
        <pt x="1030" y="630" on="0"/>
        <pt x="1015" y="596" on="0"/>
        <pt x="986" y="568" on="0"/>
        <pt x="942" y="550" on="0"/>
        <pt x="913" y="550" on="1"/>
        <pt x="848" y="550" on="0"/>
        <pt x="755" y="472" on="0"/>
        <pt x="707" y="384" on="1"/>
        <pt x="553" y="82" on="1"/>
        <pt x="508" y="-7" on="0"/>
        <pt x="428" y="-119" on="0"/>
        <pt x="332" y="-182" on="0"/>
        <pt x="206" y="-205" on="0"/>
        <pt x="114" y="-205" on="1"/>
      </contour>
    </TTGlyph>
    <TTGlyph name="bracketleft" xMin="180" yMin="-205" xMax="1496" yMax="1573">
      <contour>
        <pt x="1448" y="1573" on="1"/>
        <pt x="1472" y="1573" on="0"/>
        <pt x="1496" y="1546" on="0"/>
        <pt x="1496" y="1526" on="1"/>
        <pt x="1496" y="1511" on="0"/>
        <pt x="1481" y="1478" on="0"/>
        <pt x="1452" y="1451" on="0"/>
        <pt x="1408" y="1434" on="0"/>
        <pt x="1378" y="1434" on="1"/>
        <pt x="1182" y="1434" on="1"/>
        <pt x="990" y="1056" on="0"/>
        <pt x="613" y="308" on="0"/>
        <pt x="421" y="-70" on="1"/>
        <pt x="618" y="-70" on="1"/>
        <pt x="639" y="-70" on="0"/>
        <pt x="659" y="-93" on="0"/>
        <pt x="659" y="-110" on="1"/>
        <pt x="659" y="-125" on="0"/>
        <pt x="644" y="-158" on="0"/>
        <pt x="615" y="-187" on="0"/>
        <pt x="574" y="-205" on="0"/>
        <pt x="548" y="-205" on="1"/>
        <pt x="180" y="-205" on="1"/>
        <pt x="405" y="240" on="0"/>
        <pt x="854" y="1128" on="0"/>
        <pt x="1080" y="1573" on="1"/>
      </contour>
    </TTGlyph>
    <TTGlyph name="bracketright" xMin="-88" yMin="-205" xMax="1232" yMax="1573">
      <contour>
        <pt x="1232" y="1573" on="1"/>
        <pt x="1008" y="1128" on="0"/>
        <pt x="558" y="240" on="0"/>
        <pt x="334" y="-205" on="1"/>
        <pt x="-38" y="-205" on="1"/>
        <pt x="-64" y="-205" on="0"/>
        <pt x="-88" y="-183" on="0"/>
        <pt x="-88" y="-166" on="1"/>
        <pt x="-88" y="-151" on="0"/>
        <pt x="-70" y="-117" on="0"/>
        <pt x="-38" y="-88" on="0"/>
        <pt x="8" y="-70" on="0"/>
        <pt x="36" y="-70" on="1"/>
        <pt x="232" y="-70" on="1"/>
        <pt x="611" y="684" on="0"/>
        <pt x="990" y="1434" on="1"/>
        <pt x="793" y="1434" on="1"/>
        <pt x="762" y="1434" on="0"/>
        <pt x="733" y="1461" on="0"/>
        <pt x="733" y="1480" on="1"/>
        <pt x="733" y="1495" on="0"/>
        <pt x="750" y="1528" on="0"/>
        <pt x="783" y="1555" on="0"/>
        <pt x="832" y="1573" on="0"/>
        <pt x="863" y="1573" on="1"/>
      </contour>
    </TTGlyph>
    <TTGlyph name="breve" xMin="611" yMin="834" xMax="1084" yMax="1065">
      <contour>
        <pt x="632" y="1024" on="1"/>
        <pt x="640" y="1041" on="0"/>
        <pt x="687" y="1060" on="0"/>
        <pt x="709" y="1060" on="1"/>
        <pt x="726" y="1060" on="0"/>
        <pt x="749" y="1048" on="0"/>
        <pt x="749" y="1037" on="1"/>
        <pt x="749" y="1028" on="0"/>
        <pt x="738" y="1003" on="0"/>
        <pt x="738" y="993" on="1"/>
        <pt x="738" y="972" on="0"/>
        <pt x="775" y="945" on="0"/>
        <pt x="816" y="945" on="1"/>
        <pt x="843" y="945" on="0"/>
        <pt x="891" y="959" on="0"/>
        <pt x="930" y="982" on="0"/>
        <pt x="959" y="1012" on="0"/>
        <pt x="967" y="1028" on="1"/>
        <pt x="976" y="1047" on="0"/>
        <pt x="1018" y="1065" on="0"/>
        <pt x="1039" y="1065" on="1"/>
        <pt x="1057" y="1065" on="0"/>
        <pt x="1084" y="1052" on="0"/>
        <pt x="1084" y="1039" on="1"/>
        <pt x="1084" y="1031" on="0"/>
        <pt x="1080" y="1024" on="1"/>
        <pt x="1061" y="985" on="0"/>
        <pt x="989" y="916" on="0"/>
        <pt x="900" y="864" on="0"/>
        <pt x="804" y="834" on="0"/>
        <pt x="760" y="834" on="1"/>
        <pt x="685" y="834" on="0"/>
        <pt x="611" y="896" on="0"/>
        <pt x="611" y="945" on="1"/>
        <pt x="611" y="982" on="0"/>
      </contour>
    </TTGlyph>
    <TTGlyph name="brokenbar" xMin="294" yMin="-205" xMax="991" yMax="1573">
      <contour>
        <pt x="991" y="1573" on="1"/>
        <pt x="776" y="880" on="1"/>
        <pt x="620" y="880" on="1"/>
        <pt x="827" y="1573" on="1"/>
      </contour>
      <contour>
        <pt x="661" y="488" on="1"/>
        <pt x="450" y="-205" on="1"/>
        <pt x="294" y="-205" on="1"/>
        <pt x="500" y="488" on="1"/>
      </contour>
    </TTGlyph>
    <TTGlyph name="bullet" xMin="312" yMin="358" xMax="1008" yMax="1028">
      <contour>
        <pt x="660" y="358" on="1"/>
        <pt x="586" y="358" on="0"/>
        <pt x="459" y="410" on="0"/>
        <pt x="366" y="500" on="0"/>
        <pt x="312" y="622" on="0"/>
        <pt x="312" y="762" on="0"/>
        <pt x="366" y="885" on="0"/>
        <pt x="459" y="976" on="0"/>
        <pt x="586" y="1028" on="0"/>
        <pt x="660" y="1028" on="1"/>
        <pt x="733" y="1028" on="0"/>
        <pt x="861" y="976" on="0"/>
        <pt x="954" y="885" on="0"/>
        <pt x="1008" y="762" on="0"/>
        <pt x="1008" y="622" on="0"/>
        <pt x="954" y="500" on="0"/>
        <pt x="861" y="410" on="0"/>
        <pt x="733" y="358" on="0"/>
      </contour>
    </TTGlyph>
    <TTGlyph name="c" xMin="37" yMin="-25" xMax="860" yMax="727">
      <contour>
        <pt x="669" y="635" on="1"/>
        <pt x="669" y="604" on="0"/>
        <pt x="655" y="529" on="0"/>
        <pt x="623" y="463" on="0"/>
        <pt x="573" y="419" on="0"/>
        <pt x="536" y="419" on="1"/>
        <pt x="516" y="419" on="0"/>
        <pt x="505" y="431" on="0"/>
        <pt x="505" y="446" on="1"/>
        <pt x="505" y="455" on="0"/>
        <pt x="506" y="490" on="0"/>
        <pt x="506" y="506" on="1"/>
        <pt x="506" y="524" on="0"/>
        <pt x="496" y="549" on="0"/>
        <pt x="476" y="549" on="1"/>
        <pt x="453" y="549" on="0"/>
        <pt x="396" y="514" on="0"/>
        <pt x="339" y="458" on="0"/>
        <pt x="285" y="387" on="0"/>
        <pt x="242" y="314" on="0"/>
        <pt x="217" y="246" on="0"/>
        <pt x="217" y="222" on="1"/>
        <pt x="217" y="187" on="0"/>
        <pt x="266" y="147" on="0"/>
        <pt x="308" y="147" on="1"/>
        <pt x="353" y="147" on="0"/>
        <pt x="455" y="177" on="0"/>
        <pt x="556" y="223" on="0"/>
        <pt x="650" y="277" on="0"/>
        <pt x="727" y="326" on="0"/>
        <pt x="779" y="361" on="0"/>
        <pt x="787" y="365" on="1"/>
        <pt x="803" y="373" on="0"/>
        <pt x="817" y="373" on="1"/>
        <pt x="829" y="373" on="0"/>
        <pt x="846" y="362" on="0"/>
        <pt x="856" y="347" on="0"/>
        <pt x="860" y="330" on="0"/>
        <pt x="860" y="324" on="1"/>
        <pt x="860" y="315" on="0"/>
        <pt x="856" y="290" on="0"/>
        <pt x="843" y="274" on="1"/>
        <pt x="838" y="268" on="0"/>
        <pt x="783" y="219" on="0"/>
        <pt x="696" y="153" on="0"/>
        <pt x="583" y="78" on="0"/>
        <pt x="454" y="16" on="0"/>
        <pt x="316" y="-25" on="0"/>
        <pt x="249" y="-25" on="1"/>
        <pt x="198" y="-25" on="0"/>
        <pt x="119" y="7" on="0"/>
        <pt x="65" y="62" on="0"/>
        <pt x="37" y="136" on="0"/>
        <pt x="37" y="177" on="1"/>
        <pt x="37" y="222" on="0"/>
        <pt x="79" y="339" on="0"/>
        <pt x="153" y="461" on="0"/>
        <pt x="253" y="579" on="0"/>
        <pt x="370" y="671" on="0"/>
        <pt x="497" y="727" on="0"/>
        <pt x="562" y="727" on="1"/>
        <pt x="584" y="727" on="0"/>
        <pt x="623" y="717" on="0"/>
        <pt x="652" y="696" on="0"/>
        <pt x="669" y="660" on="0"/>
      </contour>
    </TTGlyph>
    <TTGlyph name="caron" xMin="881" yMin="851" xMax="1419" yMax="1200">
      <contour>
        <pt x="1405" y="1111" on="1"/>
        <pt x="1332" y="1051" on="0"/>
        <pt x="1230" y="967" on="0"/>
        <pt x="1159" y="909" on="0"/>
        <pt x="1114" y="875" on="0"/>
        <pt x="1083" y="856" on="0"/>
        <pt x="1059" y="851" on="0"/>
        <pt x="1045" y="851" on="1"/>
        <pt x="1018" y="851" on="0"/>
        <pt x="987" y="877" on="0"/>
        <pt x="957" y="941" on="0"/>
        <pt x="919" y="1049" on="0"/>
        <pt x="885" y="1132" on="1"/>
        <pt x="881" y="1142" on="0"/>
        <pt x="881" y="1146" on="1"/>
        <pt x="881" y="1158" on="0"/>
        <pt x="898" y="1178" on="0"/>
        <pt x="924" y="1192" on="0"/>
        <pt x="955" y="1200" on="0"/>
        <pt x="970" y="1200" on="1"/>
        <pt x="991" y="1200" on="0"/>
        <pt x="1029" y="1185" on="0"/>
        <pt x="1035" y="1168" on="1"/>
        <pt x="1041" y="1152" on="0"/>
        <pt x="1061" y="1098" on="0"/>
        <pt x="1071" y="1072" on="1"/>
        <pt x="1080" y="1045" on="0"/>
        <pt x="1088" y="1026" on="1"/>
        <pt x="1096" y="1007" on="1"/>
        <pt x="1134" y="1040" on="0"/>
        <pt x="1169" y="1071" on="1"/>
        <pt x="1199" y="1097" on="0"/>
        <pt x="1261" y="1151" on="0"/>
        <pt x="1281" y="1168" on="1"/>
        <pt x="1308" y="1191" on="0"/>
        <pt x="1337" y="1191" on="1"/>
        <pt x="1353" y="1191" on="0"/>
        <pt x="1383" y="1182" on="0"/>
        <pt x="1405" y="1168" on="0"/>
        <pt x="1419" y="1149" on="0"/>
        <pt x="1419" y="1139" on="1"/>
        <pt x="1419" y="1123" on="0"/>
      </contour>
    </TTGlyph>
    <TTGlyph name="ccedilla" xMin="37" yMin="-459" xMax="860" yMax="727">
      <component glyphName="c" x="0" y="0" flags="0x1204"/>
      <component glyphName="cedilla" x="-191" y="0" flags="0x1004"/>
    </TTGlyph>
    <TTGlyph name="cedilla" xMin="277" yMin="-459" xMax="627" yMax="0">
      <contour>
        <pt x="627" y="-225" on="1"/>
        <pt x="627" y="-273" on="0"/>
        <pt x="589" y="-358" on="0"/>
        <pt x="524" y="-422" on="0"/>
        <pt x="437" y="-459" on="0"/>
        <pt x="389" y="-459" on="1"/>
        <pt x="338" y="-459" on="0"/>
        <pt x="277" y="-424" on="0"/>
        <pt x="277" y="-398" on="1"/>
        <pt x="277" y="-391" on="0"/>
        <pt x="284" y="-373" on="0"/>
        <pt x="296" y="-358" on="0"/>
        <pt x="314" y="-348" on="0"/>
        <pt x="325" y="-348" on="1"/>
        <pt x="342" y="-348" on="0"/>
        <pt x="380" y="-361" on="0"/>
        <pt x="397" y="-361" on="1"/>
        <pt x="422" y="-361" on="0"/>
        <pt x="464" y="-342" on="0"/>
        <pt x="495" y="-310" on="0"/>
        <pt x="512" y="-266" on="0"/>
        <pt x="512" y="-242" on="1"/>
        <pt x="512" y="-213" on="0"/>
        <pt x="493" y="-189" on="0"/>
        <pt x="471" y="-184" on="1"/>
        <pt x="454" y="-184" on="0"/>
        <pt x="415" y="-193" on="0"/>
        <pt x="378" y="-203" on="0"/>
        <pt x="345" y="-212" on="0"/>
        <pt x="333" y="-212" on="1"/>
        <pt x="313" y="-212" on="0"/>
        <pt x="313" y="-195" on="1"/>
        <pt x="313" y="-177" on="0"/>
        <pt x="339" y="-131" on="1"/>
        <pt x="412" y="0" on="1"/>
        <pt x="526" y="0" on="1"/>
        <pt x="438" y="-131" on="1"/>
        <pt x="457" y="-125" on="0"/>
        <pt x="499" y="-111" on="0"/>
        <pt x="516" y="-111" on="1"/>
        <pt x="567" y="-111" on="0"/>
        <pt x="627" y="-171" on="0"/>
      </contour>
    </TTGlyph>
    <TTGlyph name="cent" xMin="-20" yMin="-212" xMax="803" yMax="925">
      <contour>
        <pt x="213" y="153" on="1"/>
        <pt x="268" y="242" on="0"/>
        <pt x="378" y="419" on="0"/>
        <pt x="434" y="509" on="1"/>
        <pt x="389" y="479" on="0"/>
        <pt x="298" y="393" on="0"/>
        <pt x="224" y="304" on="0"/>
        <pt x="177" y="224" on="0"/>
        <pt x="177" y="200" on="1"/>
        <pt x="177" y="166" on="0"/>
      </contour>
      <contour>
        <pt x="745" y="635" on="1"/>
        <pt x="736" y="604" on="0"/>
        <pt x="702" y="529" on="0"/>
        <pt x="652" y="463" on="0"/>
        <pt x="590" y="419" on="0"/>
        <pt x="553" y="419" on="1"/>
        <pt x="538" y="419" on="0"/>
        <pt x="527" y="425" on="0"/>
        <pt x="527" y="433" on="1"/>
        <pt x="527" y="435" on="0"/>
        <pt x="534" y="457" on="0"/>
        <pt x="543" y="486" on="0"/>
        <pt x="551" y="518" on="0"/>
        <pt x="551" y="529" on="1"/>
        <pt x="551" y="541" on="0"/>
        <pt x="543" y="545" on="1"/>
        <pt x="302" y="152" on="1"/>
        <pt x="343" y="160" on="0"/>
        <pt x="436" y="196" on="0"/>
        <pt x="528" y="241" on="0"/>
        <pt x="615" y="290" on="0"/>
        <pt x="684" y="332" on="0"/>
        <pt x="732" y="361" on="0"/>
        <pt x="739" y="365" on="1"/>
        <pt x="749" y="370" on="0"/>
        <pt x="765" y="373" on="0"/>
        <pt x="771" y="373" on="1"/>
        <pt x="790" y="373" on="0"/>
        <pt x="803" y="350" on="0"/>
        <pt x="803" y="338" on="1"/>
        <pt x="803" y="330" on="0"/>
        <pt x="794" y="296" on="0"/>
        <pt x="770" y="274" on="1"/>
        <pt x="763" y="268" on="0"/>
        <pt x="707" y="224" on="0"/>
        <pt x="619" y="164" on="0"/>
        <pt x="507" y="95" on="0"/>
        <pt x="383" y="33" on="0"/>
        <pt x="254" y="-13" on="0"/>
        <pt x="194" y="-21" on="1"/>
        <pt x="102" y="-173" on="1"/>
        <pt x="89" y="-193" on="0"/>
        <pt x="50" y="-212" on="0"/>
        <pt x="35" y="-212" on="1"/>
        <pt x="22" y="-212" on="0"/>
        <pt x="4" y="-201" on="0"/>
        <pt x="4" y="-190" on="1"/>
        <pt x="4" y="-186" on="0"/>
        <pt x="6" y="-178" on="0"/>
        <pt x="10" y="-173" on="1"/>
        <pt x="33" y="-135" on="0"/>
        <pt x="80" y="-60" on="0"/>
        <pt x="104" y="-22" on="1"/>
        <pt x="41" y="-12" on="0"/>
        <pt x="-20" y="64" on="0"/>
        <pt x="-20" y="118" on="1"/>
        <pt x="-20" y="141" on="0"/>
        <pt x="-9" y="189" on="0"/>
        <pt x="0" y="213" on="1"/>
        <pt x="15" y="254" on="0"/>
        <pt x="79" y="349" on="0"/>
        <pt x="166" y="447" on="0"/>
        <pt x="271" y="544" on="0"/>
        <pt x="385" y="627" on="0"/>
        <pt x="502" y="691" on="0"/>
        <pt x="558" y="709" on="1"/>
        <pt x="668" y="884" on="1"/>
        <pt x="681" y="904" on="0"/>
        <pt x="719" y="925" on="0"/>
        <pt x="734" y="925" on="1"/>
        <pt x="745" y="925" on="0"/>
        <pt x="759" y="916" on="0"/>
        <pt x="759" y="905" on="1"/>
        <pt x="759" y="895" on="0"/>
        <pt x="752" y="884" on="1"/>
        <pt x="655" y="727" on="1"/>
        <pt x="663" y="727" on="1"/>
        <pt x="699" y="727" on="0"/>
        <pt x="749" y="699" on="0"/>
        <pt x="749" y="665" on="1"/>
        <pt x="749" y="650" on="0"/>
      </contour>
    </TTGlyph>
    <TTGlyph name="circumflex" xMin="844" yMin="850" xMax="1382" yMax="1199">
      <contour>
        <pt x="857" y="939" on="1"/>
        <pt x="925" y="998" on="0"/>
        <pt x="1021" y="1083" on="0"/>
        <pt x="1087" y="1141" on="0"/>
        <pt x="1129" y="1175" on="0"/>
        <pt x="1159" y="1194" on="0"/>
        <pt x="1183" y="1199" on="0"/>
        <pt x="1197" y="1199" on="1"/>
        <pt x="1224" y="1199" on="0"/>
        <pt x="1257" y="1173" on="0"/>
        <pt x="1291" y="1109" on="0"/>
        <pt x="1338" y="1001" on="0"/>
        <pt x="1379" y="918" on="1"/>
        <pt x="1382" y="910" on="0"/>
        <pt x="1382" y="903" on="1"/>
        <pt x="1382" y="891" on="0"/>
        <pt x="1367" y="872" on="0"/>
        <pt x="1343" y="858" on="0"/>
        <pt x="1313" y="850" on="0"/>
        <pt x="1298" y="850" on="1"/>
        <pt x="1276" y="850" on="0"/>
        <pt x="1239" y="865" on="0"/>
        <pt x="1231" y="882" on="1"/>
        <pt x="1224" y="898" on="0"/>
        <pt x="1200" y="953" on="0"/>
        <pt x="1188" y="979" on="1"/>
        <pt x="1174" y="1010" on="0"/>
        <pt x="1158" y="1043" on="1"/>
        <pt x="1122" y="1010" on="0"/>
        <pt x="1089" y="979" on="1"/>
        <pt x="1061" y="953" on="0"/>
        <pt x="1003" y="898" on="0"/>
        <pt x="985" y="882" on="1"/>
        <pt x="959" y="859" on="0"/>
        <pt x="930" y="859" on="1"/>
        <pt x="913" y="859" on="0"/>
        <pt x="882" y="868" on="0"/>
        <pt x="858" y="883" on="0"/>
        <pt x="844" y="903" on="0"/>
        <pt x="844" y="913" on="1"/>
        <pt x="844" y="927" on="0"/>
      </contour>
    </TTGlyph>
    <TTGlyph name="colon" xMin="316" yMin="-16" xMax="813" yMax="692">
      <contour>
        <pt x="579" y="139" on="1"/>
        <pt x="573" y="108" on="0"/>
        <pt x="542" y="52" on="0"/>
        <pt x="497" y="9" on="0"/>
        <pt x="442" y="-16" on="0"/>
        <pt x="412" y="-16" on="1"/>
        <pt x="368" y="-16" on="0"/>
        <pt x="316" y="40" on="0"/>
        <pt x="316" y="82" on="1"/>
        <pt x="316" y="115" on="0"/>
        <pt x="346" y="177" on="0"/>
        <pt x="394" y="225" on="0"/>
        <pt x="456" y="254" on="0"/>
        <pt x="489" y="254" on="1"/>
        <pt x="534" y="254" on="0"/>
        <pt x="581" y="205" on="0"/>
        <pt x="581" y="164" on="1"/>
        <pt x="581" y="158" on="0"/>
        <pt x="580" y="145" on="0"/>
      </contour>
      <contour>
        <pt x="811" y="573" on="1"/>
        <pt x="806" y="544" on="0"/>
        <pt x="774" y="490" on="0"/>
        <pt x="728" y="450" on="0"/>
        <pt x="671" y="426" on="0"/>
        <pt x="641" y="426" on="1"/>
        <pt x="597" y="426" on="0"/>
        <pt x="545" y="478" on="0"/>
        <pt x="545" y="520" on="1"/>
        <pt x="545" y="553" on="0"/>
        <pt x="576" y="615" on="0"/>
        <pt x="625" y="663" on="0"/>
        <pt x="688" y="692" on="0"/>
        <pt x="721" y="692" on="1"/>
        <pt x="764" y="692" on="0"/>
        <pt x="813" y="642" on="0"/>
        <pt x="813" y="599" on="1"/>
        <pt x="813" y="593" on="0"/>
        <pt x="812" y="580" on="0"/>
      </contour>
    </TTGlyph>
    <TTGlyph name="comma" xMin="181" yMin="-275" xMax="609" yMax="318">
      <contour>
        <pt x="602" y="233" on="1"/>
        <pt x="522" y="115" on="0"/>
        <pt x="367" y="-111" on="0"/>
        <pt x="288" y="-229" on="1"/>
        <pt x="271" y="-253" on="0"/>
        <pt x="233" y="-275" on="0"/>
        <pt x="216" y="-275" on="1"/>
        <pt x="201" y="-275" on="0"/>
        <pt x="181" y="-260" on="0"/>
        <pt x="181" y="-246" on="1"/>
        <pt x="181" y="-236" on="0"/>
        <pt x="185" y="-229" on="1"/>
        <pt x="228" y="-111" on="0"/>
        <pt x="309" y="115" on="0"/>
        <pt x="352" y="233" on="1"/>
        <pt x="360" y="255" on="0"/>
        <pt x="393" y="287" on="0"/>
        <pt x="434" y="308" on="0"/>
        <pt x="481" y="318" on="0"/>
        <pt x="504" y="318" on="1"/>
        <pt x="546" y="318" on="0"/>
        <pt x="609" y="287" on="0"/>
        <pt x="609" y="259" on="1"/>
        <pt x="609" y="246" on="0"/>
      </contour>
    </TTGlyph>
    <TTGlyph name="copyright" xMin="144" yMin="0" xMax="1634" yMax="1490">
      <contour>
        <pt x="904" y="1131" on="1"/>
        <pt x="976" y="1131" on="0"/>
        <pt x="1128" y="1093" on="0"/>
        <pt x="1206" y="1051" on="1"/>
        <pt x="1206" y="925" on="1"/>
        <pt x="1132" y="964" on="0"/>
        <pt x="986" y="1003" on="0"/>
        <pt x="919" y="1003" on="1"/>
        <pt x="863" y="1003" on="0"/>
        <pt x="767" y="971" on="0"/>
        <pt x="696" y="906" on="0"/>
        <pt x="655" y="809" on="0"/>
        <pt x="655" y="679" on="0"/>
        <pt x="696" y="582" on="0"/>
        <pt x="767" y="517" on="0"/>
        <pt x="863" y="485" on="0"/>
        <pt x="919" y="485" on="1"/>
        <pt x="986" y="485" on="0"/>
        <pt x="1132" y="524" on="0"/>
        <pt x="1206" y="563" on="1"/>
        <pt x="1206" y="437" on="1"/>
        <pt x="1128" y="395" on="0"/>
        <pt x="976" y="357" on="0"/>
        <pt x="904" y="357" on="1"/>
        <pt x="814" y="357" on="0"/>
        <pt x="658" y="418" on="0"/>
        <pt x="544" y="523" on="0"/>
        <pt x="478" y="664" on="0"/>
        <pt x="478" y="824" on="0"/>
        <pt x="544" y="965" on="0"/>
        <pt x="658" y="1070" on="0"/>
        <pt x="814" y="1131" on="0"/>
      </contour>
      <contour>
        <pt x="889" y="0" on="1"/>
        <pt x="794" y="0" on="0"/>
        <pt x="610" y="47" on="0"/>
        <pt x="444" y="136" on="0"/>
        <pt x="304" y="265" on="0"/>
        <pt x="202" y="430" on="0"/>
        <pt x="144" y="629" on="0"/>
        <pt x="144" y="857" on="0"/>
        <pt x="204" y="1056" on="0"/>
        <pt x="310" y="1222" on="0"/>
        <pt x="453" y="1353" on="0"/>
        <pt x="618" y="1443" on="0"/>
        <pt x="799" y="1490" on="0"/>
        <pt x="889" y="1490" on="1"/>
        <pt x="980" y="1490" on="0"/>
        <pt x="1161" y="1442" on="0"/>
        <pt x="1327" y="1352" on="0"/>
        <pt x="1469" y="1221" on="0"/>
        <pt x="1574" y="1055" on="0"/>
        <pt x="1634" y="856" on="0"/>
        <pt x="1634" y="743" on="1"/>
        <pt x="1634" y="632" on="0"/>
        <pt x="1578" y="435" on="0"/>
        <pt x="1477" y="270" on="0"/>
        <pt x="1338" y="139" on="0"/>
        <pt x="1173" y="48" on="0"/>
        <pt x="986" y="0" on="0"/>
      </contour>
      <contour>
        <pt x="1486" y="742" on="1"/>
        <pt x="1486" y="839" on="0"/>
        <pt x="1437" y="1006" on="0"/>
        <pt x="1351" y="1145" on="0"/>
        <pt x="1235" y="1253" on="0"/>
        <pt x="1103" y="1326" on="0"/>
        <pt x="959" y="1365" on="0"/>
        <pt x="889" y="1365" on="1"/>
        <pt x="817" y="1365" on="0"/>
        <pt x="673" y="1326" on="0"/>
        <pt x="540" y="1252" on="0"/>
        <pt x="425" y="1144" on="0"/>
        <pt x="341" y="1005" on="0"/>
        <pt x="292" y="838" on="0"/>
        <pt x="292" y="742" on="1"/>
        <pt x="292" y="614" on="0"/>
        <pt x="378" y="389" on="0"/>
        <pt x="535" y="221" on="0"/>
        <pt x="755" y="124" on="0"/>
        <pt x="1023" y="124" on="0"/>
        <pt x="1243" y="221" on="0"/>
        <pt x="1400" y="389" on="0"/>
        <pt x="1486" y="614" on="0"/>
      </contour>
    </TTGlyph>
    <TTGlyph name="currency" xMin="269" yMin="430" xMax="1365" yMax="1526">
      <contour>
        <pt x="807" y="699" on="1"/>
        <pt x="864" y="699" on="0"/>
        <pt x="968" y="747" on="0"/>
        <pt x="1049" y="827" on="0"/>
        <pt x="1097" y="932" on="0"/>
        <pt x="1097" y="1046" on="0"/>
        <pt x="1053" y="1147" on="0"/>
        <pt x="978" y="1222" on="0"/>
        <pt x="877" y="1266" on="0"/>
        <pt x="763" y="1266" on="0"/>
        <pt x="658" y="1218" on="0"/>
        <pt x="579" y="1137" on="0"/>
        <pt x="531" y="1032" on="0"/>
        <pt x="531" y="918" on="0"/>
        <pt x="575" y="817" on="0"/>
        <pt x="651" y="742" on="0"/>
        <pt x="751" y="699" on="0"/>
      </contour>
      <contour>
        <pt x="456" y="742" on="1"/>
        <pt x="388" y="846" on="0"/>
        <pt x="388" y="970" on="1"/>
        <pt x="388" y="1097" on="0"/>
        <pt x="463" y="1208" on="1"/>
        <pt x="269" y="1402" on="1"/>
        <pt x="393" y="1526" on="1"/>
        <pt x="587" y="1333" on="1"/>
        <pt x="699" y="1409" on="0"/>
        <pt x="826" y="1409" on="1"/>
        <pt x="951" y="1409" on="0"/>
        <pt x="1055" y="1341" on="1"/>
        <pt x="1241" y="1526" on="1"/>
        <pt x="1365" y="1402" on="1"/>
        <pt x="1178" y="1215" on="1"/>
        <pt x="1239" y="1118" on="0"/>
        <pt x="1239" y="993" on="1"/>
        <pt x="1239" y="869" on="0"/>
        <pt x="1163" y="757" on="1"/>
        <pt x="1365" y="555" on="1"/>
        <pt x="1241" y="430" on="1"/>
        <pt x="1038" y="633" on="1"/>
        <pt x="928" y="558" on="0"/>
        <pt x="804" y="558" on="1"/>
        <pt x="679" y="558" on="0"/>
        <pt x="582" y="619" on="1"/>
        <pt x="393" y="430" on="1"/>
        <pt x="269" y="555" on="1"/>
      </contour>
    </TTGlyph>
</ttFont>
